<svg id="Layer_1" viewBox="0 0 512 512" xmlns="http://www.w3.org/2000/svg" xmlns:xlink="http://www.w3.org/1999/xlink" data-name="Layer 1"><linearGradient id="linear-gradient" gradientUnits="userSpaceOnUse" x2="512" y1="256" y2="256"><stop offset="0" stop-color="#0056e9"/><stop offset=".008" stop-color="#0057e9"/><stop offset=".304" stop-color="#007de2"/><stop offset=".577" stop-color="#0098dc"/><stop offset=".818" stop-color="#00a9d9"/><stop offset="1" stop-color="#00afd8"/></linearGradient><path d="m138.062 187.18h-14.628v-34.774h14.628zm-129.153 15.864h-1.809a7.1 7.1 0 1 0 0 14.2h1.81a7.1 7.1 0 1 0 0-14.2zm94.034 14.2a6.6 6.6 0 1 1 0 13.191h-62.795a7.1 7.1 0 0 0 0 14.2h32.852v23.279h115.5v-115.5h-36.24v41.872a7.077 7.077 0 0 1 -7.1 7.1h-28.824a7.077 7.077 0 0 1 -7.1-7.1v-41.88h-36.236v23.249h-40.324a7.1 7.1 0 0 0 0 14.2h53.886a6.6 6.6 0 1 1 0 13.192h-59.862a7.1 7.1 0 0 0 0 14.2h76.244zm192.925-123.044c1.466 2.1 2.845 3.994 3.621 5.173 1.064 1.609 2.127 3.276 3.075 5a29.487 29.487 0 0 0 5.636-10.173c-1.9.115-3.793.143-5.633.143-1.554-.002-4.026-.088-6.699-.143zm-6.409 25.434c11.122-2.989-17.329-26.44-12.99-36.212 3.305-7.385 41.643 1.006 39.373-7.414a36.641 36.641 0 1 0 -70.784 18.968c5.23 19.54 24.859 29.886 44.401 24.656zm206.72 327.739a54.006 54.006 0 0 1 -91.361-28.8l-17.818 17.791a72.446 72.446 0 0 1 -5.375-45.522c-11.035 12.789-24.916 22.445-42.763 22.445h-123.291a55.729 55.729 0 0 1 -110.472 0h-18.537l3.305-21.587h-19.6a7.1 7.1 0 1 1 0-14.2h54.259a6.6 6.6 0 1 0 0-13.191h-68.686a7.1 7.1 0 1 1 0-14.2h78.86a6.6 6.6 0 0 0 0-13.192h-63.485a7.1 7.1 0 0 1 0-14.2h51.585a74.707 74.707 0 0 1 50.9-19.514h114.84v85.24h11.984l.086.115.259.345.086.087c.115.114.2.258.316.373l.115.144c.115.115.2.23.316.345l.115.143a2.7 2.7 0 0 0 .288.288l.143.143a1.379 1.379 0 0 0 .288.288l.115.144a3.246 3.246 0 0 1 .316.316l.143.143a3.534 3.534 0 0 1 .345.316l.115.087a2.83 2.83 0 0 0 .316.287l.115.086c.115.115.23.2.345.316l.144.115c.115.087.259.2.374.288l.143.115.345.258.173.115a1.24 1.24 0 0 0 .316.23l.115.086a2.022 2.022 0 0 0 .4.288l.144.115c.143.086.258.172.4.258l.115.087c.144.086.287.143.4.23l.115.057c.115.086.259.172.374.259l.172.086c.115.057.259.144.4.23l.143.057c.144.086.288.173.46.259l.086.057a1.747 1.747 0 0 1 .4.2l.143.057c.144.057.288.144.46.2l.115.058c.144.057.316.143.46.2l.144.057c.143.058.316.144.488.2l.058.028c.172.058.316.115.488.173l.087.057c.172.058.316.115.488.173l.144.028.517.173.058.028a4.854 4.854 0 0 0 .546.144l.028.029h.029c.173.057.345.086.517.144l.087.029c.2.028.373.086.546.114l.115.029a3.636 3.636 0 0 0 .546.115l.057.029a3.362 3.362 0 0 1 .575.115h.029c.2.028.373.057.574.086l.087.029a3.849 3.849 0 0 0 .574.057l.115.029c.173.029.374.029.546.057h.087a3.152 3.152 0 0 0 .546.058h.057c.2.029.4.029.575.057h.69l.115.029h23.8a25.892 25.892 0 0 0 25.844-25.817v-.633c0-.2-.029-.4-.029-.574v-.029c0-.2-.029-.374-.029-.575v-.029c-.028-.2-.028-.373-.057-.546v-.086c-.029-.172-.029-.345-.058-.517v-.086a2.594 2.594 0 0 1 -.057-.489l-.029-.115c-.029-.144-.029-.287-.057-.431l-.029-.2a1.43 1.43 0 0 1 -.057-.345l-.058-.23-.029-.086-.028-.23-.058-.287-.086-.317-.058-.258c3.018-4.4 5.633-8.852 7.817-12.7a107.338 107.338 0 0 0 11.5-29.457 23.752 23.752 0 0 0 .144-10.26l-21.1-105.07h-49.516a12.209 12.209 0 0 1 -8.593-3.535l-33.395-33.423-13.938 52.071a6.953 6.953 0 0 0 -.747-.2l-46.788-9.915 20.75-78.2a18.352 18.352 0 0 1 31.757-7.041l55.983 55.983h40.845l.02-3.247 47.678-7.76v46.011l-16.927-2.816 18.335 92.482a49.025 49.025 0 0 1 -.316 20.347 127.907 127.907 0 0 1 -6.035 19.428c20.345-17.358 49.721-24.227 78.545-11.007l-17.818 17.789a54.022 54.022 0 0 1 28.8 91.39zm-303.254-34.086h-65.209a33.436 33.436 0 0 0 65.209 0zm288.712-27.762a33.439 33.439 0 1 0 0 47.3 33.44 33.44 0 0 0 0-47.3zm-37.619-188.787a24.078 24.078 0 0 0 -18.218-23.338v46.672a24.076 24.076 0 0 0 18.218-23.334zm-223.906 67.853 35.546 6.15h-80.149a23.863 23.863 0 0 0 -23.623 20.836 92.19 92.19 0 0 1 21.813-2.558h114.841v-12.588l19.772 3.421c1.61.258 2.242 1.9 2.213 3.535-.345 18.364-.661 42.016-1.006 63.34h23.881l.92-65.5c.115-6.868.029-13.8-3.621-19.629-3.679-5.891-9.34-10.489-16.123-11.926l-56.156-11.9-47.477-10.059-3.822 14.37a18.459 18.459 0 0 0 12.991 22.508zm-167.663 112.916h-1.782a7.1 7.1 0 1 0 0 14.2h1.782a7.1 7.1 0 0 0 0-14.2zm256.869-16.583c-.057 3.076-.115 6.035-.172 8.909 0 .92.057 1.811.057 2.731a11.689 11.689 0 0 0 11.668 11.636h23.193a11.64 11.64 0 0 0 0-23.279h-34.746zm-271.3-10.8h-1.807a7.1 7.1 0 0 0 0 14.2h1.811a7.1 7.1 0 0 0 0-14.2z" fill="url(#linear-gradient)"/></svg>