<svg id="Warstwa_1" enable-background="new 0 0 283.46 283.46" height="283.46" viewBox="0 0 283.46 283.46" width="283.46" xmlns="http://www.w3.org/2000/svg"><g><path d="m2.834 48.375h277.796v186.714h-277.796z" fill="#d6d4d1"/><g><path d="m5.195 50.646h273.256v61.477h-273.256z" fill="#cd0e26"/><path d="m5.195 171.333h273.256v61.479h-273.256z"/><path d="m5.21 112.131h273.241v59.203h-273.241z" fill="#fff"/><g fill="#bf920c"><g><path d="m128.745 160.014 1.459.486c.023.008.048.016.063.016.078 0 .148-.055.172-.133.032-.094-.016-.196-.109-.228l-1.467-.486c-.095-.031-.196.016-.228.11-.038.102.016.204.11.235z"/><path d="m130.895 160.666 1.742.463c.016.008.031.008.047.008.078 0 .156-.055.173-.141.031-.095-.032-.196-.126-.221l-1.741-.463c-.095-.03-.196.032-.22.134-.032.095.031.196.125.22z"/><path d="m137.829 161.654.008-.008 1.789-.134c.102-.008.18-.094.164-.196 0-.102-.094-.188-.188-.173l-1.789.142c-.109.008-.181.094-.173.195.001.096.088.174.189.174z"/><path d="m135.296 161.567 1.765.079v.008c.103 0 .188-.078.188-.181 0-.102-.078-.188-.173-.188l-1.757-.086h-.016c-.095 0-.173.077-.181.18-.008.102.071.188.174.188z"/></g><g><path d="m154.805 160.014-1.459.486c-.017.008-.039.016-.063.016-.078 0-.142-.055-.173-.133-.03-.094.017-.196.117-.228l1.467-.486c.095-.031.196.016.236.11.032.102-.032.204-.125.235z"/><path d="m152.655 160.666-1.726.463c-.023.008-.031.008-.047.008-.088 0-.157-.055-.188-.141-.016-.095.039-.196.142-.221l1.728-.463c.103-.03.203.032.229.134.02.095-.036.196-.138.22z"/><path d="m145.736 161.654c-.016 0-.016 0-.016 0l-1.788-.142c-.11-.008-.181-.094-.173-.196s.102-.188.203-.173l1.781.142c.103.008.18.094.164.195.003.096-.075.174-.171.174z"/><path d="m148.263 161.567-1.766.079-.01.008c-.094 0-.18-.078-.188-.181 0-.102.078-.188.181-.188l1.767-.086c.103 0 .188.077.188.18.001.102-.079.188-.172.188z"/></g><path d="m141.822 148.859h.008v.009-.009.009-.009h.008c8.315-7.052 7.899-16.128 7.899-16.222s-.077-.165-.173-.173c-4.439-.228-7.343-1.992-7.734-2.244v-.008.008c-.393.251-3.295 2.016-7.734 2.244-.095.008-.173.079-.173.173-.008.093-.416 9.171 7.899 16.222zm-2.997-16.888c1.515-.494 2.55-1.059 3.005-1.326.447.267 1.49.832 2.996 1.326v13.241c-.83 1.066-1.818 2.134-2.996 3.162-1.177-1.028-2.165-2.096-3.005-3.162z"/><path d="m160.531 127.459c-.142-1.796-.769-2.588-.8-2.62-.022-.031-2.399-2.612-6.339.016-2.62 1.757-5.075 2.094-6.33 2.133-.338-.557-.729-1.412-1.014-2.69-.61-2.785-.375-6.087-.375-6.134 0-.031 0-2.722-2.307-3.326-1.171-.298-1.86-.431-2.308-.431-.377 0-.628.102-.801.313-.29-.102-1.02-.306-1.757-.306-.769 0-1.333.211-1.694.643-.4.486-.518 1.231-.329 2.212.016.079.063.133.133.149.071.016.149-.008.196-.063 0-.008.471-.588 1.051-.588.581 0 1.114.604 1.554 1.734.926 2.377-1.475 6.565-2.729 8.495-1.225-.031-3.734-.337-6.417-2.133-3.938-2.636-6.315-.055-6.339-.024-.031.032-.666.824-.8 2.62-.142 1.75-1.373 33.088-1.381 33.401-.008.079.031.142.095.173.031.016.063.023.078.023.047 0 .094-.016.125-.047l10.441-9.351-.369 1.287c-.047.038-.055.094-.047.148l-1.788 6.166c-.33-.086-.612-.173-.801-.259-.22-.094-.423-.143-.604-.143-.29 0-.494.118-.628.274-.243-.016-.949-.016-1.389.487-.392.431-.471 1.105-.234 2 0 .023.016.04.039.063-.039.11-.079.221-.087.346-.471.156-1.882.689-1.882 1.576 0 .017-.173 1.429 1.129 2.188-.055.212-.102.604.11 1.012.306.573 1.02.957 2.102 1.146.612.102 1.146.204 1.663.306 1.805.345 3.357.643 6.794.729 2.055.055 3.922.063 5.334.069 1.412-.008 3.279-.022 5.333-.069 3.438-.087 4.989-.385 6.795-.737.519-.094 1.051-.196 1.662-.307 1.082-.181 1.797-.564 2.104-1.146.212-.4.156-.792.109-1.004 1.301-.761 1.129-2.173 1.129-2.188 0-.895-1.412-1.42-1.883-1.576-.017-.125-.048-.235-.086-.346.016-.022.038-.039.038-.063.235-.902.157-1.569-.235-2-.438-.502-1.146-.502-1.387-.487-.135-.157-.339-.282-.629-.282-.181 0-.385.056-.604.149-.188.086-.471.172-.81.259l-1.778-6.166c0-.055 0-.11-.049-.148l-.367-1.287 10.438 9.343c.032.031.079.047.118.047.021 0 .056 0 .078-.016.068-.031.109-.103.103-.173-.001-.309-1.232-31.648-1.374-33.397zm-18.748-11.626c.243 0 .438.188.438.432 0 .235-.195.432-.438.432-.235 0-.424-.196-.424-.432 0-.243.189-.432.424-.432zm-2.009 2.598c.142-.22.518-.573 1.365-.079 0 0-.502-1.804-2.486-2.565-1.114-.423-1.577.039-1.773.525.047-.369.228-.871.855-.925 1.004-.086 1.428.22 1.428.22s1.224 1.043 1.961 1.043c0 0 .204.526.745.439.541-.094.556-.525.556-.525s.849-.902 2.512.008c.359.753.368 1.529.368 1.577-.009.031-.243 3.389.385 6.229.377 1.71.94 2.714 1.351 3.255l-1.586-.502c-.016-.016-.016-.04-.039-.055-.289-.235-.934-3.114-1.381-5.758-.016-.102-.117-.165-.211-.149-.095.016-.174.11-.148.212.203 1.208.869 4.942 1.402 5.828-.016.047-.016.086 0 .125.252.542.252.785.252.863-.597-.133-1.68-.871-2.103-1.192-.212-.447-.347-3.828-.377-5.891 0-.102-.086-.188-.188-.188-.107.008-.188.086-.188.188.016.871.102 5.02.393 5.969l-.958.973-.784-1.106c.549-1.027.848-5.413.879-5.93 0-.102-.079-.196-.173-.196-.095.008-.188.071-.204.172-.125 2.063-.455 5.303-.848 5.836l-1.819 1.318.36-1.287c.973-1.333 1.601-5.616 1.624-5.805.016-.102-.055-.196-.157-.212-.094-.008-.195.055-.211.157-.188 1.318-.832 4.84-1.616 5.734-.533.596-1.733.957-2.393 1.114.996-1.451 4.267-6.511 3.207-9.42zm-7.334 34.703 2.016-1.953.628 2.298c.016.071.07.118.141.133.063.017.134-.016.173-.063l1.459-1.813.675 3.161-1.529 2.26-.785-2.268c-.023-.07-.086-.118-.148-.125-.071-.008-.142.023-.173.079l-1.475 2.173-1.035-3.671zm16.929 6.927c-.103.023-.164.031-.164.031-.063.008-.11.016-.158.024l-.957-1.633c-.039-.063-.108-.094-.188-.094-.063.008-.125.063-.148.134l-.541 1.797c-.471.039-.918.055-1.334.063l-.471-2.094.611-2.896 1.538 2.275c.047.055.108.086.181.079.07-.008.125-.056.148-.118l.783-2.275 1.429 2.126zm.995-2.181 1.21 1.781c-.691.141-1.351.259-1.806.337zm-1.718 2.291c-.354.04-.697.086-1.043.118l.376-1.255zm-12.739-1.647c-.023-.07-.086-.117-.156-.134-.071 0-.142.032-.181.094l-.957 1.633c-.047-.009-.103-.017-.157-.024 0 0-.063-.008-.164-.023l-.73-2.588 1.428-2.126.785 2.275c.016.063.078.11.148.118.071.008.134-.023.181-.079l1.537-2.268.612 2.888-.471 2.094c-.424-.008-.863-.023-1.334-.063zm.15 1.766c-.346-.031-.69-.07-1.044-.118l.667-1.137zm-2.165-.291c-.455-.079-1.114-.196-1.805-.33l1.2-1.789zm4.047-14.034c.376.479.792.957 1.231 1.428l-1.875 2.376-.313-2.895zm-1.012.448-.234-2.197c.306.486.65.973 1.027 1.459zm2.495 1.254c.306.313.636.627.973.94l-.683 3.06-.047.063-.98-3.13zm-1.498 7.311 1.576-2.338-1.059 4.777zm.51 4.182.635.847 1.138-.871 1.059-7.53-.376 7.507.941 1.311v.008-.008.008-.016l.941-1.303-.377-7.507 1.052 7.53 1.145.863.63-.839.28 1.224c-.502-.008-.887-.039-1.168-.055-.273-.023-.445-.039-.571-.023-.3.04-.55.196-.69.439-.076.125-.115.273-.125.432h-1.114-1.114c-.016-.157-.047-.306-.125-.432-.142-.243-.393-.4-.69-.433-.126-.022-.306-.008-.581.017-.282.023-.658.047-1.16.055zm8.244-12.285-.313 2.895-1.875-2.376c.439-.471.848-.949 1.231-1.428zm-.738-1.201c.377-.487.714-.973 1.026-1.459l-.242 2.197zm-.972 2.927-.98 3.13-.047-.063-.675-3.06c.337-.313.667-.627.965-.94zm-.808 4.039 1.576 2.338-.518 2.439zm1.687 1.836-1.602-2.354 1.004-3.178 1.113 1.404c.031.047.078.071.143.071.016 0 .031 0 .048-.008.077-.023.125-.086.133-.157l.337-3.067 1.979 1.867c.031.032.078.047.125.047.008 0 .017 0 .031-.008.055-.008.102-.047.125-.094l.424-.855.941 2.926c0 .024-.016.048 0 .071l.359 1.278-1.771-1.727c-.047-.038-.117-.063-.181-.038-.063.016-.118.063-.134.125l-.604 2.251-1.467-1.828c-.047-.056-.126-.078-.188-.063-.078.017-.125.07-.142.142zm1.552-10.952c.173-.306.347-.611.519-.917l1.615 5.029-.471.973-1.992-1.875.338-3.161c.008-.017-.009-.032-.009-.049zm2.463 3.924-.36-8.645c.269-.824.455-1.6.604-2.322l.667 13.814zm-8.032 1.905c-8.339-6.715-8.394-15.886-8.347-17.273 3.945.125 7.343-1.757 8.347-2.369 1.003.612 4.4 2.487 8.347 2.369.039 1.389-.008 10.558-8.347 17.273zm-5.24-2.62-1.992 1.875-.471-.973 1.616-5.029c.164.307.337.612.518.917 0 .017-.016.032-.016.047zm-3.036-10.253c.149.722.338 1.498.597 2.322l-.354 8.645-.917 2.848zm-.541 14.6.941-2.935.416.855c.023.047.078.086.133.102h.031c.048 0 .095-.016.126-.047l1.977-1.867.33 3.067c.016.071.063.134.141.157.016.008.031.008.047.008.056 0 .11-.023.142-.071l1.114-1.403.996 3.177-1.593 2.354-.675-3.192c-.016-.071-.07-.125-.141-.142-.063-.016-.142.008-.188.063l-1.467 1.828-.604-2.251c-.023-.063-.07-.11-.133-.125-.063-.017-.134 0-.181.047l-1.772 1.718.36-1.278c.015-.025 0-.05 0-.065zm-.824 2.933.965 3.404-1.459 2.165c-.361-.07-.722-.149-1.052-.229zm-3.789 5.656c0-.023.063-.439.479-.439.134 0 .282.04.463.11 1.066.479 4.895 1.09 5.06 1.114 1.31.204 2.502.298 3.546.298.627 0 1.074-.031 1.404-.055.235-.024.399-.032.51-.024.181.024.321.118.415.259.11.188.11.447-.008.737-.07.188-.479.502-2.377.502-.596 0-1.191-.031-1.646-.055-1.443-.086-3.162-.424-5.335-.855l-.635-.118c-1.2-.234-1.647-.627-1.813-.917-.157-.283-.078-.51-.063-.557zm-1.27.197c.267-.299.682-.361.941-.361-.008.022-.016.055-.024.07-.008.016-.148.384.087.815.016.017.031.023.031.039-.298.103-.863.345-1.239.8-.111-.61-.048-1.073.204-1.363zm28.396.525c.235-.432.095-.8.078-.815 0-.023-.008-.048-.017-.07.252 0 .676.063.94.361.251.29.313.753.204 1.364-.376-.455-.939-.697-1.238-.8.003-.016.018-.024.033-.04zm1.192 1.78c0 .078.056.148.135.172.479.141 1.749.651 1.749 1.287 0 .079.142 1.294-1.083 1.914-.078.047-.125.148-.078.243 0 .016.182.424-.047.847-.251.455-.879.785-1.836.949-.611.102-1.153.212-1.671.306-1.78.345-3.334.644-6.729.729-2.057.047-3.923.063-5.327.069-1.412 0-3.279-.016-5.334-.069-3.39-.086-4.942-.386-6.73-.729-.519-.094-1.052-.196-1.663-.306-.957-.165-1.585-.494-1.836-.949-.228-.423-.055-.832-.047-.847.039-.095 0-.196-.078-.243-1.225-.62-1.083-1.835-1.083-1.914 0-.635 1.263-1.146 1.749-1.287.079-.016.134-.094.134-.172 0-.957 1.239-1.365 1.475-1.437.36.346.957.604 1.788.77l.628.125c2.196.424 3.922.769 5.397.847.455.032 1.059.063 1.662.063 1.663 0 2.526-.235 2.723-.737.039-.086.055-.173.078-.259h1.138 1.138c.023.086.039.172.078.259.195.502 1.059.729 2.722.729.597 0 1.208-.023 1.663-.056 1.467-.078 3.201-.423 5.396-.854l.627-.118c.832-.165 1.429-.423 1.789-.77.234.073 1.473.481 1.473 1.438zm-2.4-2.832c.174-.078.329-.118.463-.118.416 0 .479.424.479.447.018.047.096.273-.063.557-.173.29-.611.674-1.82.91l-.627.125c-2.182.432-3.897.77-5.334.847-.455.032-1.052.056-1.646.056-1.896 0-2.307-.307-2.387-.494-.107-.291-.107-.549 0-.737.089-.142.236-.234.416-.259.104-.008.274 0 .512.024.33.022.775.055 1.402.055 1.045 0 2.235-.094 3.539-.298.171-.024 3.999-.644 5.066-1.115zm-1.301.016c-.33.079-.689.157-1.053.229l-1.459-2.165.957-3.404zm-1.805-6.221.063.204-1.035 3.679-1.475-2.173c-.031-.055-.11-.086-.174-.079-.069.008-.125.055-.156.118l-.775 2.275-1.529-2.26.676-3.16 1.449 1.804c.039.055.117.078.182.069.063-.016.126-.069.143-.133l.629-2.298zm8.205 5.413-.724-.651-1.323-31.017-2.111 1.812 1.162 27.166-.957-.847-1.101-25.558-1.622 1.326.918 22.608-.957-.847-.802-21.275-1.396.565c-.017-.071-.069-.118-.164-.125-4.243.196-7.898-2.032-8.511-2.424v-.008.008-.008.008c-.612.4-4.268 2.628-8.512 2.432-.102 0-.148.047-.164.118l-1.396-.557-.8 21.267-.957.847.917-22.608-1.623-1.326-1.099 25.558-.957.855 1.161-27.166-2.118-1.82-1.317 31.017-.722.651 1.341-32.179-2.079 1.012c.142-1.585.698-2.299.698-2.299.024-.023 2.181-2.369 5.853.086 2.636 1.757 5.067 2.134 6.393 2.189-.267.408-.438.651-.454.659-.048.063-.048.141 0 .204.031.07.109.102.18.086.079-.008 1.655-.283 2.628-.949l-.345 1.208c-.016.07.008.157.078.204.031.016.063.032.103.032.039 0 .07-.016.102-.04l2.134-1.538.862 1.224c.032.047.079.078.142.078.055.008.103-.016.142-.055l1.082-1.106c.393.298 1.616 1.145 2.291 1.216.031 0 .063 0 .094-.016s.11-.063.165-.196c.07-.188.039-.463-.087-.816l2.04.643c.078.024.173-.016.22-.094.031-.079.016-.181-.063-.235 0 0-.196-.157-.455-.51 1.35-.079 3.727-.471 6.291-2.197 3.671-2.455 5.836-.102 5.859-.079 0 0 .558.714.696 2.299l-2.077-1.012z"/><path d="m131.632 164.079c-.329.273-.392.148-.392.148s-.228.149-.048.298c.173.149.024.572.024.572s-.149.157-.62-.047c-.479-.196-.181-.714-.181-.714l.212-.785s.047-.282-.298.04c-.329.321-.329.282-.439.282-.109 0-.188.07-.055.259.134.188-.023.636-.023.636s-.385.07-.628-.165c-.243-.228.338-1.23.338-1.23l.313-1.09s.055-.196-.11-.182c0 0-.619.283-.745.243-.125-.039-.58-.172-.564.125.016.298.432.259.432.259l.463-.195-.298 1.191s-1.075-.109-1.153.745c0 0-.103.314.321.408s3.075.785 3.075.785.282.079.376-.282c.095-.369.346-1.232.346-1.232s0-.337-.346-.069zm-3.09.555c-.142 0-.268-.118-.268-.267 0-.142.126-.26.268-.26.141 0 .267.118.267.26 0 .15-.126.267-.267.267z"/><path d="m147.925 165.019c-.235.361-.321.268-.321.268s-.173.212.039.298.204.534.204.534-.086.195-.604.156c-.521-.047-.395-.627-.395-.627l-.039-.815s-.057-.282-.273.133c-.221.416-.234.376-.33.408-.108.032-.156.126.03.259.183.141.175.62.175.62s-.347.18-.646.039c-.313-.142-.063-1.278-.063-1.278l-.047-1.138s-.017-.196-.166-.133c0 0-.502.463-.635.463-.126 0-.604.016-.503.29.11.282.503.109.503.109l.376-.32.087 1.224s-1.044.235-.855 1.067c0 0 0 .328.434.281.434-.039 3.161-.212 3.161-.212s.298-.016.272-.392c-.022-.376-.063-1.271-.063-1.271s-.099-.323-.341.037zm-2.769 1.498c-.134.047-.281-.031-.33-.172-.047-.133.032-.283.174-.33.133-.047.281.023.33.165.046.142-.034.29-.174.337z"/><path d="m128.29 163.175c0 .149.118.267.268.267.141 0 .267-.116.267-.267 0-.141-.126-.259-.267-.259-.15.001-.268.119-.268.259z"/><path d="m128.848 165.499c0 .141-.118.259-.267.259s-.259-.118-.259-.259c0-.149.109-.268.259-.268.148-.001.267.117.267.268z"/><path d="m129.06 165.686c0 .142.125.259.267.259.141 0 .267-.117.267-.259 0-.148-.126-.267-.267-.267-.142 0-.267.119-.267.267z"/><path d="m130.801 166.062c0 .149-.126.268-.267.268-.149 0-.267-.117-.267-.268 0-.141.117-.267.267-.267.141 0 .267.126.267.267z"/><path d="m136.401 163.537c-.353.259-.407.274-.407.274s0 .103.125.243c.126.133-.282 2.394-.282 2.394s-.313.431-.385-.095c-.07-.525-.259-.485-.259-.485s-.313 0-.313-.204.329-.212.329-.212.282.102.33-.165c.031-.274-.424-.627-.424-.627s-.078-.69-.408-.698c-.321-.017-.619.524-.619.524s-.612-.038-.69.26c-.087.298.416.455.416.455s.219.195.016.313c-.204.125-.354.133-.354.133s-.494.047-.604-.298c-.11-.337-.157-1.529-.597-.51 0 0 .016.313.157.557.156.243-.346.917-.729.878-.385-.039-.338.282.133.26.471-.031.667-.142.784-.313.126-.181.369-.204.785-.148.424.055.408.134.666-.134.26-.273.408.157.408.157s.055.219.282.219.322.486.322.486 0 .377.518.377.667-.636.667-.636l.376-2.871c.001-.002.111-.394-.243-.134zm-1.929 1.624c-.141 0-.267-.118-.267-.26 0-.148.126-.267.267-.267.142 0 .267.118.267.267-.001.141-.126.26-.267.26z"/><path d="m137.343 163.638c.267.345.314.376.314.376s-.024.103-.181.196c-.149.102-.298 1.835-.298 1.835s.141.581-.103.753c-.416.298-.376-.416-.376-.416l.376-2.683c.001.003.001-.406.268-.061z"/><path d="m144.826 165.036c0 .141-.125.267-.267.267s-.267-.125-.267-.267c0-.149.125-.268.267-.268s.267.117.267.268z"/><path d="m145.619 167.31c0 .142-.117.268-.259.268-.149 0-.269-.125-.269-.268 0-.148.119-.267.269-.267.141-.001.259.119.259.267z"/><path d="m146.341 167.294c0 .141-.118.259-.26.259-.148 0-.268-.118-.268-.259 0-.149.117-.268.268-.268.142.001.26.118.26.268z"/><path d="m155.589 165.756c0 .141-.125.267-.269.267-.147 0-.267-.125-.267-.267 0-.149.115-.267.267-.267.144.002.269.118.269.267z"/><path d="m143.768 165.583s-.039-.259-.228-.274c-.188-.008-.33.204-.33.204s-.77.133-.736.706c0 0-.234.392-.346-.125 0 0 .22-.495-.439-.495-.674 0-1.819-.108-1.819-.108s-.267-.04-.267-.291c0-.243-.22-.393-.408-.243-.188.148-.094.683-.094.683s.063.596-.236.596c-.298 0-.438-.636-.438-.636s-.126-.462-.385-.18-.321.376-.212.463c.103.079.439.525.307.808-.134.29-.408.612-.871.612-.455 0-.282.243-.023.243s.784.11 1.074-.243c.282-.353.212-.502.737-.518.534-.009 1.632.125 1.632.125s.173-.056.322.376c.148.438.479.424.479.424s.674-.07.674-.745l1.678-.094zm-2.095 1.052c0 .542-.156.424-.156.424s-.204-.079-.204-.369c0-.282-.235-.267-.235-.267l-1.177-.055s-.329-.04-.329-.188c0-.147.219-.18.219-.18s.973.039 1.515.039c.54.001.367.596.367.596zm1.491-.11c-.156 0-.268-.117-.268-.267 0-.141.109-.267.268-.267.143 0 .26.125.26.267-.001.15-.119.267-.26.267z"/><path d="m156.216 164.706c-.156-.29-.289-.463-.424-.274-.143.188-.58.431-.77.204-.188-.227-.479-1.788-.479-1.788s-.211-.612-1.026-.486c-.815.117-.597.408-.597.408s.242.447.438.229c.188-.221.659-.268.77.133.109.408.377 1.679.377 1.679s.108.235-.203.221c-.313-.016-.299-.425-.84-.408-.541.016-.502.596-.502.596s-.07.125-.229.133c-.164.017-.329-.078-.558-.541-.229-.455-.729-.337-.729-.337s-.188-.854-.298-.863c-.108-.016-.519.408-.438.541.086.135.385.361.234.447-.148.079-.736.408-.675 1.122 0 0-.017.149-.204.109-.188-.039-.188-.095-.188-.095s-.047-.722-.233-.722c-.188 0-.957.259-.957.871 0 .604.524.541.524.541s.408-.016.273.212c-.143.235-.658.259-.658.408 0 .148.329.134.518.109.189-.022.652-.273.652-.635 0-.369.743-.313.743-.313s.651-.298.651.219c0 .51.775.353.775.353s.549-.18.485-.8c0 0-.063-.094.126-.134.195-.047.58.188.58.188s.58.173.753-.26c.173-.432.597-.432.597-.432l1.381-.337c.006-.001.273-.017.131-.298zm-6.895 1.356c-.147 0-.259-.118-.259-.267 0-.142.109-.268.259-.268s.259.125.259.268c0 .149-.109.267-.259.267zm1.624-.384c-.142 0-.267-.118-.267-.259 0-.149.125-.268.267-.268.149 0 .268.118.268.268-.001.141-.118.259-.268.259zm.517-.408c0-.148.127-.267.268-.267.148 0 .268.117.268.267 0 .142-.117.26-.268.26-.141-.001-.268-.118-.268-.26zm.565 1.129c-.141 0-.268-.117-.268-.267 0-.141.127-.259.268-.259.148 0 .268.118.268.259-.001.151-.118.267-.268.267zm1.562-.768c-.149 0-.269-.125-.269-.267 0-.149.117-.268.269-.268.146 0 .259.118.259.268 0 .141-.111.267-.259.267z"/></g></g></g></svg>