<svg id="Layer_1" enable-background="new 0 0 336.871 385" height="512" viewBox="0 0 512 512" width="512" xmlns="http://www.w3.org/2000/svg" xmlns:svg="http://www.w3.org/2000/svg"><path id="path1" d="m111.9953 32.000578h320.00911c9.0286 0 15.99454 6.97648 15.99454 16.004945v415.998267c0 9.02314-6.96594 15.9943-15.99454 15.9943h-320.00911c-9.02328 0-15.994538-6.97116-15.994538-15.9943v-32.00059h15.994538c4.24367 0 8.31711-1.68893 11.31999-4.68512 3.00155-3.00284 4.68519-7.07489 4.68519-11.31982 0-4.24494-1.68896-8.31699-4.68519-11.31451-3.00288-3.00284-7.07632-4.68512-11.31999-4.68512h-15.994538v-127.99967h15.994538c4.24367.005 8.31711-1.68361 11.31999-4.68113 2.99623-3.00284 4.68519-7.06957 4.68519-11.31451 0-4.24892-1.68364-8.31698-4.68519-11.31982-3.00288-3.00284-7.07632-4.68512-11.31999-4.68512h-15.994538v-128.00366h15.994538c4.24367.005 8.31711-1.68361 11.31467-4.68113 3.00155-2.99752 4.69051-7.06957 4.69051-11.313177 0-4.244935-1.68896-8.311667-4.69051-11.314506-2.99756-2.99752-7.071-4.681131-11.31467-4.681131h-15.994538v-31.999253c0-9.028465 6.971258-16.004945 15.994538-16.004945zm0-32.00058268c-26.322432 0-47.995582 21.68347668-47.995582 48.00552768v31.999253h-15.994538c-4.244996 0-8.317107 1.683611-11.319989 4.68645-2.997563 2.99752-4.685188 7.064252-4.685188 11.309187 0 4.243607 1.687625 8.311667 4.685188 11.313177 3.002882 2.99752 7.074993 4.68645 11.319989 4.68113h15.994538v128.00499h-15.994538c-4.250316 0-8.317107 1.68228-11.319989 4.68512s-4.685188 7.0709-4.685188 11.31982c0 4.24361 1.687625 8.31167 4.685188 11.30919 3.002882 3.00284 7.074993 4.68512 11.319989 4.68512h15.994538v127.99967h-15.994538c-4.244996 0-8.317107 1.68361-11.319989 4.68512-2.997563 2.99885-4.685188 7.0709-4.685188 11.31584 0 4.24493 1.682306 8.31698 4.685188 11.3145 3.002882 3.00284 7.069673 4.69044 11.319989 4.69044h15.994538v32.00059c0 26.31673 21.67847 47.99488 47.995582 47.99488h320.00911c26.32244 0 47.99559-21.67815 47.99559-47.99488v-415.999597c0-26.322051-21.67315-48.00552768-47.99559-48.00552768z"/><path id="path2" d="m208.00109 303.99954c-4.24366 0-8.3171 1.68893-11.31467 4.69044-3.00155 2.99752-4.68518 7.0709-4.68518 11.31451.005 8.83164 7.16409 15.99431 15.99985 15.99431h160.00256c8.8371 0 15.99454-7.164 15.99454-15.99431.005-4.24228-1.68363-8.31699-4.6812-11.31451-3.00288-3.00284-7.06967-4.69044-11.31466-4.69044z"/><path id="path3" d="m288.00703 183.99902c34.44138 0 62.98738 23.82855 70.20866 56.00069h-140.43196c7.22527-32.17214 35.77659-56.00069 70.2233-56.00069zm0-55.99935c-4.24367 0-8.31578 1.68361-11.31999 4.68512-2.99756 2.99752-4.68519 7.0709-4.68519 11.30918v9.24657c-44.48867 6.92993-79.82906 42.27114-86.75909 86.75917h-9.2467c-4.23968 0-8.31179 1.6876-11.30935 4.68512-3.00288 3.00284-4.68519 7.07622-4.68519 11.31982 0 8.83165 7.16277 15.99431 15.99454 15.99431h224.00731c8.83709 0 15.99454-7.16399 15.99454-15.99431.005-4.2436-1.68364-8.31698-4.6812-11.31982-3.00288-2.99752-7.06967-4.68512-11.31467-4.68512h-9.24138c-6.93003-44.48803-42.27042-79.82924-86.75909-86.75917v-9.24657c-.004-8.83031-7.16277-15.98899-15.99454-15.9943z"/></svg>