<svg id="Layer_1" enable-background="new 0 0 512 512" height="512" viewBox="0 0 512 512" width="512" xmlns="http://www.w3.org/2000/svg"><path d="m442.779 130.043c-32.565-65.201-99.193-65.776-106.446-65.776h-321.333c-8.284 0-15 6.716-15 15v305.267c0 8.284 6.716 15 15 15h35.014c6.753 27.629 31.706 48.2 61.387 48.2s54.633-20.571 61.386-48.2h150.36c6.753 27.629 31.707 48.2 61.387 48.2s54.634-20.571 61.387-48.2h51.079c8.284 0 15-6.716 15-15v-116.007s-58.941-117.852-69.221-138.484zm29.95 127.024h-73.196v-66.4h39.996zm-201.729-162.8h50.333v25.167c0 13.877-11.289 25.167-25.166 25.167s-25.167-11.291-25.167-25.168zm-80.333 0h50.333v25.167c0 13.877-11.29 25.167-25.167 25.167s-25.166-11.29-25.166-25.167zm-80.334 0h50.334v25.167c0 13.877-11.29 25.167-25.167 25.167s-25.167-11.29-25.167-25.167zm-16.066 64.042c.363-.365.714-.743 1.067-1.119 10.069 10.705 24.346 17.41 40.167 17.41s30.098-6.705 40.167-17.41c10.069 10.705 24.345 17.41 40.166 17.41s30.098-6.705 40.167-17.41c.353.375.703.753 1.066 1.118v98.759h-162.8zm-64.267-64.042h50.333v25.167c0 13.877-11.289 25.167-25.166 25.167s-25.167-11.291-25.167-25.168zm81.4 323.466c-18.307 0-33.2-14.894-33.2-33.2s14.894-33.2 33.2-33.2 33.199 14.893 33.199 33.2-14.893 33.2-33.199 33.2zm273.133 0c-18.307 0-33.2-14.894-33.2-33.2s14.894-33.2 33.2-33.2 33.2 14.893 33.2 33.2-14.893 33.2-33.2 33.2zm97.467-48.2h-36.064c-6.752-27.632-31.72-48.2-61.402-48.2s-54.65 20.568-61.402 48.2h-150.33c-6.751-27.632-31.72-48.2-61.401-48.2-29.683 0-54.651 20.565-61.402 48.2h-19.999v-201.033c7.552 3.889 16.104 6.1 25.167 6.1 3.1 0 6.137-.27 9.1-.764v98.231c0 8.284 6.716 15 15 15h192.8c8.284 0 15-6.716 15-15v-98.231c2.963.494 6 .764 9.101.764 30.419 0 55.166-24.748 55.166-55.167v-23.912c27.754 4.664 51.727 22.137 64.601 47.913 3.031 6.085 5.965 11.964 8.596 17.232h-39.996c-8.284 0-15 6.716-15 15v96.4c0 8.284 6.716 15 15 15h97.465z"/></svg>