<svg id="Capa_1" enable-background="new 0 0 512 512" height="512" viewBox="0 0 512 512" width="512" xmlns="http://www.w3.org/2000/svg"><g><path d="m111.12 157.836c-2.693 4.818-6.01 9.184-9.865 13.067-9.071 9.042-21.062 15.193-34.441 16.895v87.847h21.26v-60.576c0-4.169 3.345-7.513 7.483-7.513h56.751c4.139 0 7.512 3.344 7.512 7.513v26.531h27.525c4.139 0 7.484 3.346 7.484 7.484v26.561h27.723c-.227-1.645-.34-3.346-.34-5.017 0-10.403 4.224-19.815 11.027-26.617 6.804-6.803 16.215-11.027 26.618-11.027 5.839 0 11.395 1.361 16.384 3.77 2.608 1.275 5.046 2.835 7.257 4.62 6.491-5.244 14.712-8.391 23.698-8.391 10.403 0 19.786 4.225 26.618 11.027 6.803 6.803 10.998 16.214 10.998 26.617 0 1.672-.113 3.373-.312 5.017h18.142v-87.847c-13.38-1.701-25.37-7.853-34.441-16.895-3.855-3.884-7.2-8.249-9.865-13.067-2.693 4.818-6.01 9.184-9.865 13.067-10.743 10.715-25.568 17.348-41.953 17.348-16.356 0-31.181-6.633-41.925-17.348-3.855-3.884-7.2-8.249-9.865-13.067-2.693 4.818-6.009 9.184-9.865 13.067-10.743 10.715-25.569 17.348-41.953 17.348-16.356 0-31.182-6.633-41.925-17.348-3.856-3.882-7.201-8.248-9.865-13.066zm-8.051 83.764h41.727v-19.049h-41.727zm0 34.045h76.763v-19.049h-76.763zm170.903-22.735c-1.304-1.049-2.721-1.928-4.224-2.664-2.977-1.446-6.321-2.268-9.893-2.268-6.265 0-11.905 2.551-16.016 6.633-4.082 4.109-6.633 9.751-6.633 16.016 0 1.701.199 3.345.567 5.017h32.116c-.198-1.645-.311-3.346-.311-5.017 0-6.406 1.587-12.444 4.394-17.717zm11.14 22.735h44.164c.369-1.673.538-3.316.538-5.017 0-6.265-2.522-11.906-6.633-16.016-4.083-4.082-9.752-6.633-15.988-6.633s-11.906 2.551-16.016 6.633c-4.082 4.109-6.604 9.751-6.604 16.016.001 1.7.171 3.344.539 5.017zm92.524 0h44.306c4.139 0 7.484 3.345 7.484 7.483v44.421c0 4.139-3.345 7.482-7.484 7.482h-18.652v54.087h86.43c6.123 0 11.707 2.494 15.732 6.548 4.054 4.025 6.548 9.609 6.548 15.761 0 6.123-2.495 11.707-6.548 15.732-4.025 4.053-9.609 6.548-15.732 6.548h-24.662v56.637c0 4.139-3.374 7.512-7.512 7.512h-29.594c-4.139 0-7.512-3.373-7.512-7.512v-56.637h-183.319c-1.729 16.781-9.298 31.861-20.58 43.172-12.982 12.955-30.87 20.977-50.655 20.977-19.787 0-37.701-8.021-50.656-20.977-11.311-11.31-18.851-26.362-20.608-43.172h-60.974c-4.139 0-7.483-3.345-7.483-7.483v-91.194h-18.653c-4.139 0-7.512-3.344-7.512-7.482v-44.421c0-4.138 3.374-7.483 7.512-7.483h44.306v-87.847c-13.379-1.701-25.37-7.853-34.441-16.895-10.744-10.743-17.377-25.566-17.377-41.952 0-1.19.284-2.353.822-3.431l44.164-106.725c1.163-2.777 3.884-4.648 6.917-4.648h325.62c2.948 0 5.726 1.785 6.917 4.648l15.704 37.957c1.587 3.827-.255 8.192-4.053 9.779-3.827 1.56-8.192-.255-9.78-4.082l-13.776-33.308h-60.436l12.756 92.325h85.891l-11.424-27.609c-1.587-3.827.255-8.192 4.053-9.78 3.828-1.559 8.193.256 9.78 4.082l15.449 37.361c.539 1.077.822 2.24.822 3.431 0 16.386-6.633 31.209-17.348 41.953-9.071 9.042-21.062 15.193-34.441 16.895v87.847zm-211.75 115.938c9.553 0 18.198 3.884 24.491 10.147 6.265 6.266 10.12 14.911 10.12 24.492 0 9.553-3.855 18.227-10.12 24.491-6.293 6.265-14.939 10.12-24.491 10.12-9.581 0-18.227-3.856-24.492-10.12-6.265-6.265-10.148-14.939-10.148-24.491 0-9.581 3.884-18.227 10.148-24.492 6.264-6.263 14.911-10.147 24.492-10.147zm13.861 20.749c-3.544-3.543-8.447-5.754-13.861-5.754-5.442 0-10.347 2.211-13.89 5.754-3.544 3.545-5.755 8.447-5.755 13.891 0 5.414 2.211 10.318 5.755 13.861 3.543 3.572 8.447 5.754 13.89 5.754 5.414 0 10.318-2.182 13.861-5.754 3.572-3.543 5.754-8.447 5.754-13.861 0-5.444-2.182-10.346-5.754-13.891zm-44.136-34.044c-3.487 2.211-8.107 1.162-10.29-2.324-2.211-3.516-1.162-8.107 2.325-10.318 5.612-3.544 11.764-6.35 18.311-8.221 6.378-1.871 13.068-2.863 19.928-2.863 19.786 0 37.673 8.022 50.655 21.005 11.282 11.283 18.851 26.363 20.58 43.145h151.173v-83.682h-61.342c-4.139 0-7.512-3.344-7.512-7.482 0-4.139 3.373-7.512 7.512-7.512h87.478v-29.396c-133.145 0-266.29 0-399.435 0v29.397h277.969c4.139 0 7.512 3.373 7.512 7.512s-3.373 7.482-7.512 7.482h-251.803v83.681h53.49c.312-3.176.879-6.321 1.616-9.411 1.361-5.612 3.374-10.97 5.953-15.931 1.899-3.686 6.407-5.131 10.092-3.231 3.657 1.899 5.102 6.406 3.203 10.091-2.041 3.969-3.628 8.192-4.706 12.586-1.021 4.224-1.559 8.703-1.559 13.408 0 15.619 6.321 29.792 16.582 40.053 10.233 10.235 24.407 16.585 40.054 16.585 15.619 0 29.792-6.35 40.054-16.585 10.233-10.261 16.583-24.434 16.583-40.053 0-15.647-6.35-29.82-16.583-40.054-10.261-10.262-24.435-16.583-40.054-16.583-5.556 0-10.829.765-15.761 2.183-5.159 1.501-10.034 3.711-14.513 6.518zm299.824 55.418v49.154h14.627v-49.154zm54.285-29.594h-86.43v14.599h86.43c1.983 0 3.798-.822 5.13-2.154s2.154-3.146 2.154-5.131c0-2.013-.822-3.827-2.154-5.159-1.332-1.333-3.147-2.155-5.13-2.155zm-192.702-374.971h-74.808v92.325h87.535zm-278.309 92.325h85.891l12.728-92.325h-60.436zm101 0h87.506v-92.325h-74.779zm281.738 38.807c6.35-6.32 10.772-14.598 12.359-23.811h-87.336c1.559 9.213 5.981 17.49 12.331 23.811 8.022 8.022 19.105 12.983 31.324 12.983 12.245 0 23.329-4.961 31.322-12.983zm-103.607 0c6.35-6.32 10.772-14.598 12.359-23.811h-87.336c1.559 9.213 5.982 17.49 12.331 23.811 8.022 8.022 19.106 12.983 31.323 12.983 12.246 0 23.329-4.961 31.323-12.983zm-103.608 0c6.35-6.32 10.772-14.598 12.359-23.811h-87.336c1.559 9.213 5.981 17.49 12.33 23.811 8.022 8.022 19.106 12.983 31.323 12.983 12.247 0 23.33-4.961 31.324-12.983zm-103.607 0c6.35-6.32 10.771-14.598 12.359-23.811h-87.336c1.559 9.213 5.981 17.49 12.331 23.811 8.022 8.022 19.105 12.983 31.323 12.983 12.246 0 23.329-4.961 31.323-12.983z"/></g></svg>