<svg height="512" viewBox="0 0 58 60" width="512" xmlns="http://www.w3.org/2000/svg"><g id="Page-1" fill="none" fill-rule="evenodd"><g id="014---Fruit-Stall" fill="rgb(0,0,0)" fill-rule="nonzero" transform="translate(0 -1)"><path id="Shape" d="m12 30h11c0 2.209139-1.790861 4-4 4h-3c-2.209139 0-4-1.790861-4-4z"/><path id="Shape" d="m23 30h12c0 2.209139-1.790861 4-4 4h-4c-2.209139 0-4-1.790861-4-4z"/><path id="Shape" d="m35 30h11c0 2.209139-1.790861 4-4 4h-3c-2.209139 0-4-1.790861-4-4z"/><path id="Shape" d="m57 30c-.0018942 1.0606427-.4223608 2.0776689-1.17 2.83-.5084818.500833-1.1395019.8594456-1.83 1.04-.3257307.0893041-.6622628.1330533-1 .13h-3c-2.209139 0-4-1.790861-4-4h7c.5522847 0 1-.4477153 1-1s-.4477153-1-1-1h-6.32l-1.75-4.37c-.2043454-.5136248-.7863752-.7643454-1.3-.56s-.7643454.7863752-.56 1.3l1.45 3.63h-8.52v-1c0-.5522847-.4477153-1-1-1s-1 .4477153-1 1v1h-10v-1c0-.5522847-.4477153-1-1-1s-1 .4477153-1 1v1h-8.52l1.45-3.63c.2043453-.5136248-.0463752-1.0956546-.56-1.3-.5136248-.2043453-1.0956546.0463752-1.3.56l-1.75 4.37h-6.32c-.55228475 0-1 .4477153-1 1s.44771525 1 1 1h7c0 2.209139-1.790861 4-4 4h-3c-.33773721.0030533-.67426925-.0406959-1-.13-.69049806-.1805544-1.32151823-.539167-1.83-1.04-.74763915-.7523311-1.16810582-1.7693573-1.17-2.83.00173641-.6521511.18903129-1.290341.54-1.84l4.99-7.84c.91170016-1.4451093 2.50133481-2.3211075 4.21-2.32h7.25c2.23 5.47 7.72 9 11.01 9s8.78-3.53 11.01-9h7.25c1.7086652-.0011075 3.2982998.8748907 4.21 2.32l4.99 7.84c.3509687.549659.5382636 1.1878489.54 1.84z"/><path id="Shape" d="m8 36v12.5c0 .2761424-.22385763.5-.5.5h-3c-.27614237 0-.5-.2238576-.5-.5v-12.58c.33074126.0526686.66509192.0794167 1 .08z"/><path id="Shape" d="m54 35.92v12.58c0 .2761424-.2238576.5-.5.5h-3c-.2761424 0-.5-.2238576-.5-.5v-12.5h3c.334941.0002364.6693565-.0265169 1-.08z"/><rect id="Rectangle-path" height="4" rx="2" width="58" y="51"/><path id="Shape" d="m2 57h54v2c0 1.1045695-.8954305 2-2 2h-50c-1.1045695 0-2-.8954305-2-2z"/><path id="Shape" d="m38.03 8.07c-.5838689.6221808-1.3876211.99176326-2.24 1.03l-.19.01c-.16.01-.31.03-.37.11-.069141.12940143-.080047.28208515-.03.42.1412008.6772467.2049434 1.3683517.19 2.06-.038175 1.8542713-1.555345 3.3358478-3.41 3.33-1.2846074.0058067-2.4571385-.7304337-3.01-1.89-.5765971 1.1253408-1.7355433 1.8322979-3 1.83-1.7960321.0283959-3.284906-1.3849233-3.35-3.18-.0360327-.7143693.0211145-1.4303895.17-2.13.0470182-.1560588.0213111-.3249913-.07-.46-.0380451-.05794287-.1008712-.09489944-.17-.1-.1359783-.01785381-.2728711-.02787036-.41-.03-.8235347-.05599455-1.596898-.41594706-2.17-1.01-.7364111 1.53796784-1.0701765 3.2377629-.97 4.94 0 7 6.67 12 10 12s10-5 10-12c.1015123-1.6991053-.2323598-3.39600179-.97-4.93zm-12.03 10.93c0 .5522847-.4477153 1-1 1s-1-.4477153-1-1v-1c0-.5522847.4477153-1 1-1s1 .4477153 1 1zm3 4c-.5522847 0-1-.4477153-1-1s.4477153-1 1-1 1 .4477153 1 1-.4477153 1-1 1zm1-5c0 .5522847-.4477153 1-1 1s-1-.4477153-1-1v-1c0-.5522847.4477153-1 1-1s1 .4477153 1 1zm4 1c0 .5522847-.4477153 1-1 1s-1-.4477153-1-1v-1c0-.5522847.4477153-1 1-1s1 .4477153 1 1z"/><path id="Shape" d="m36.28 4.6c-1.4782711-.68142346-3.1572202-.78836289-4.71-.3-.5723487.18174335-1.1243021.42236422-1.647.718-.1447659-1.20592496-.4930391-2.37855741-1.03-3.468-.1592459-.32171122-.478709-.53338676-.8370472-.55462559-.3583382-.02123882-.700569.15121789-.8967023.45186566s-.216075.68335596-.0522505 1.00275993c.3877005.78558051.6524532 1.62604403.785 2.492-.475084-.25711975-.9749627-.46551422-1.492-.622-1.5386947-.48638987-3.2033029-.3830202-4.67.29-.51326.27660448-.7819364.85913235-.6591378 1.42910287.1227985.56997051.6075123.99018261 1.1891378 1.03089713.17.01.33.02.48.04.6800757.08421045 1.290809.45758988 1.6757762 1.0245067s.5067744 1.2723035.3342238 1.9354933c-.1142979.5387119-.1579983 1.0900085-.13 1.64.0477779.6362192.5310996 1.1538561 1.1625531 1.2450928.6314535.0912366 1.2415323-.2684185 1.4674469-.8650928.1162652-.4097381.2772325-.8054493.48-1.18l.01-.01c.2424556-.4327441.6943356-.706391 1.1901647-.7207332.4958292-.0143422.9627712.2327273 1.2298353.6507332.2181448.4212211.4020707.8592991.55 1.31.2373429.6194176.8802946.9838315 1.5336557.8692495s1.133941-.6760331 1.1463443-1.3392495c.0152338-.5336383-.0317496-1.0672346-.14-1.59-.2014087-.67746227-.0810252-1.4098733.3266324-1.98722575.4076577-.57735244 1.0575636-.93587768 1.7633676-.97277425.11-.01.23-.01.35-.02.3747665-.01203192.7255146-.18740596.96-.48.2727965-.29725297.3904124-.70522843.3177213-1.10208262s-.3272758-.73665427-.6877213-.91791738z"/><circle id="Oval" cx="20" cy="46" r="5"/><path id="Shape" d="m20 44c-.3079163.0004542-.5988728-.1409711-.7887391-.3833828-.1898664-.2424117-.2574691-.5587764-.1832609-.8576172.25-1.011.477-3.388-.476-3.864-.4942949-.2468713-.6948713-.8477051-.448-1.342s.8477051-.6948713 1.342-.448c2.641 1.321 1.645 5.648 1.523 6.138-.1113683.4445697-.5106935.7565296-.969.757z"/><circle id="Oval" cx="38" cy="46" r="5"/><path id="Shape" d="m38 44c-.3079163.0004542-.5988728-.1409711-.7887391-.3833828-.1898664-.2424117-.2574691-.5587764-.1832609-.8576172.25-1.011.477-3.388-.476-3.864-.4942948-.2468713-.6948712-.8477051-.448-1.342.2468713-.4942948.8477052-.6948713 1.342-.448 2.641 1.321 1.645 5.648 1.523 6.138-.1113683.4445697-.5106935.7565296-.969.757z"/></g></g></svg>