<svg id="Layer_1" enable-background="new 0 0 511.816 511.816" height="512" viewBox="0 0 511.816 511.816" width="512" xmlns="http://www.w3.org/2000/svg"><g><path d="m385.002 140.027c-19.349-.933-37.104 9.83-45.205 27.531l-15.271 34.412c-1.834 3.753-3.897 6.326-5.852 8.092v-155.917c.249-19.676-21.974-34.437-39.623-24.84-.474-39.007-54.123-39.141-54.622-.001-17.631-9.571-39.863 5.131-39.622 24.841v22.672c-17.603-9.559-39.877 5.128-39.622 24.84v32.798c0 9.697 15 9.697 15 0v-32.799c0-6.706 5.637-13.028 12.549-12.799 6.657.125 12.073 5.634 12.073 12.28v81.508c0 9.697 15 9.697 15 0v-128.5c0-6.72 5.639-13.003 12.55-12.799 6.657.124 12.073 5.633 12.073 12.28v110.146c0 9.697 15 9.697 15 0v-136.673c0-6.647 5.416-12.156 12.073-12.28 6.911-.175 12.549 6.058 12.549 12.799v136.155c0 9.697 15 9.697 15 0v-110.146c0-6.647 5.417-12.156 12.074-12.28 6.911-.205 12.549 6.079 12.549 12.799v161.161c-26.845 7.423-51.042 23.45-59.349 63.308-1.715 9.272 12.959 12.41 14.751 2.73 8.741-47.237 51.622-52.284 53.475-52.479 11.481-1.158 21.09-10.568 25.633-20.691l15.288-34.453c5.498-12.012 17.587-19.365 30.8-18.712 2.58.546 3.532 2.095 2.854 4.646l-65.896 148.096c-11.685 24.424-29.729 27.578-30.418 27.689-3.707.517-6.466 3.687-6.466 7.429v32.231h-84.538v-32.231c0-2.388-1.137-4.633-3.062-6.046-22.893-16.803-36.56-43.734-36.56-72.042v-91.294c0-9.697-15-9.697-15 0v91.294c0 31.781 14.743 62.074 39.622 81.798v30.3c-5.883 2.87-9.945 8.913-9.945 15.887v21.206c-9.02.781-16.122 8.381-16.122 17.61v72.732c0 4.143 3.358 7.5 7.5 7.5s7.5-3.357 7.5-7.5v-72.732c0-1.476 1.191-2.677 2.656-2.677h69.694c9.697 0 9.697-15 0-15h-56.228v-21.14c0-1.47 1.196-2.666 2.667-2.666h99.509c1.47 0 2.666 1.196 2.666 2.666v21.14h-8.955c-9.697 0-9.697 15 0 15h22.421c1.465 0 2.656 1.201 2.656 2.677v72.732c.289 9.88 14.69 9.94 15 0v-72.732c0-9.229-7.102-16.83-16.122-17.61v-21.206c0-7.136-4.254-13.298-10.358-16.083v-28.132c15.934-5.74 28.67-19.382 35.547-34.61l65.938-148.188c5.085-11.436-3.263-25.112-15.831-25.727z"/><path d="m68.088 130.469 18.186 10.485c3.417 1.971 8.272.669 10.244-2.751 2.069-3.588.837-8.175-2.751-10.243l-18.187-10.485c-8.733-4.687-15.931 7.775-7.492 12.994z"/><path d="m79.839 203.88c-.006-4.142-3.369-7.495-7.51-7.489 0 0-21.002.029-21.002.029-9.907.317-9.896 14.708.021 15 0 0 21.002-.029 21.002-.029 4.141-.006 7.495-3.369 7.489-7.511z"/><path d="m87.934 266.321-18.191 10.538c-3.584 2.076-4.807 6.664-2.73 10.249 1.979 3.416 6.835 4.708 10.249 2.729l18.19-10.537c8.421-5.229 1.218-17.682-7.518-12.979z"/><path d="m443.728 276.852-18.186-10.485c-3.586-2.069-8.175-.839-10.243 2.751-2.069 3.588-.838 8.175 2.751 10.243l18.186 10.485c8.766 4.418 15.95-7.649 7.492-12.994z"/><path d="m460.479 195.899c-.002-.006-21.008.034-21.013.03-4.143.006-7.495 3.369-7.489 7.511.005 4.142 3.369 7.495 7.511 7.489 0 0 21.002-.03 21.002-.03 9.901-.316 9.898-14.695-.011-15z"/></g></svg>