<svg id="flat" height="512" viewBox="0 0 64 64" width="512" xmlns="http://www.w3.org/2000/svg"><path d="m54.53 4.42c0 .56-.14 1.14-.45 1.69l-7.31 12.8c-.86-.53-1.8-.96-2.78-1.28-.04-1.64-.39-3.2-.99-4.63l5.06-10.11c.57-1.16 1.76-1.89 3.05-1.89 2 0 3.42 1.63 3.42 3.42z" fill="#fccb63"/><path d="m52.93 1.52c-.56.32-1.03.82-1.33 1.42l-4.307 8.597c-.456.911-.53 1.956-.249 2.935.285.991.453 2.027.486 3.098l-.76 1.34c-.86-.53-1.8-.96-2.78-1.28-.04-1.64-.39-3.2-.99-4.63l5.06-10.11c.57-1.16 1.76-1.89 3.05-1.89.69 0 1.3.19 1.82.52z" fill="#f5a933"/><path d="m43 13c.6 1.43.95 2.99.99 4.63-1.26-.41-2.6-.63-3.99-.63-5.12 0-9.55 2.96-11.67 7.26-2.09-1.42-4.61-2.26-7.33-2.26-.79 0-1.56.07-2.31.21-.45-1.32-.69-2.73-.69-4.21 0-7.18 5.82-13 13-13 5.41 0 10.05 3.3 12 8z" fill="#7acf00"/><path d="m31 5c-7.18 0-13 5.82-13 13 0 1.48.24 2.89.69 4.21.75-.14 1.52-.21 2.31-.21 1.31 0 2.58.2 3.77.57-.12-.72-.18-1.45-.18-2.2 0-7.18 5.82-13 13-13 .32 0 .63.01.94.04-2.12-1.52-4.72-2.41-7.53-2.41z" fill="#5cad08"/><path d="m34 35h-26c0-6.39 4.61-11.7 10.69-12.79.75-.14 1.52-.21 2.31-.21 2.72 0 5.24.84 7.33 2.26 3.42 2.34 5.67 6.28 5.67 10.74z" fill="#de3946"/><path d="m21 22c-.79 0-1.56.07-2.31.21-6.08 1.09-10.69 6.4-10.69 12.79h7.37c.45-5.94 4.89-10.76 10.65-11.79.11-.02.22-.04.33-.05-1.63-.75-3.44-1.16-5.35-1.16z" fill="#af233a"/><path d="m53 30c0 1.77-.36 3.46-1 5-1.66 0-3 1.34-3 3v1 4c0 1.1-.9 2-2 2-.55 0-1.05-.22-1.41-.59-.37-.36-.59-.86-.59-1.41v-2c0-1.1-.9-2-2-2-.55 0-1.05.22-1.41.59-.37.36-.59.86-.59 1.41v3.37 3.63c0 1.1-.9 2-2 2-.55 0-1.05-.22-1.41-.59-.37-.36-.59-.86-.59-1.41v-5.36-3.64-1c0-1.66-1.34-3-3-3 0-4.46-2.25-8.4-5.67-10.74 2.12-4.3 6.55-7.26 11.67-7.26 1.39 0 2.73.22 3.99.63.98.32 1.92.75 2.78 1.28 3.74 2.28 6.23 6.39 6.23 11.09z" fill="#b16612"/><path d="m39.33 35c0-3.34-1.262-6.389-3.332-8.692-1.384-1.54-1.415-3.913.032-5.393 1.768-1.808 4.06-3.103 6.63-3.635-.86-.19-1.75-.28-2.66-.28-5.12 0-9.55 2.96-11.67 7.26 3.42 2.34 5.67 6.28 5.67 10.74 1.66 0 3 1.34 3 3v10c0 .55.22 1.05.59 1.41.398.409.968.635 1.587.583 1.053-.09 1.823-1.048 1.823-2.105v-6.888c0-.55.22-1.05.59-1.41.21-.21.46-.37.74-.47v-1.12c0-1.66-1.34-3-3-3z" fill="#904b17"/><path d="m60.41 35.59c.41.4.64.97.58 1.59-.09 1.05-1.05 1.82-2.1 1.82h-1.89-8v-1c0-1.66 1.34-3 3-3h7c.55 0 1.05.22 1.41.59z" fill="#ffb700"/><path d="m52.31 59-.58 2.46c-.21.9-1.02 1.54-1.94 1.54h-35.58c-.92 0-1.73-.64-1.94-1.54l-.58-2.46h20.31z" fill="#ffb700"/><path d="m41 44.37c1.87 1.23 3 2.85 3 4.63 0 3.87-5.37 7-12 7s-12-3.13-12-7 5.37-7 12-7c1.79 0 3.48.23 5 .64v5.36c0 .55.22 1.05.59 1.41.36.37.86.59 1.41.59 1.1 0 2-.9 2-2z" fill="#f2da09"/><path d="m36 53c2.67 0 5.14-.51 7.13-1.37-1.78 2.56-6.09 4.37-11.13 4.37-6.63 0-12-3.13-12-7 0-2.31 1.92-4.36 4.87-5.63-.56.81-.87 1.7-.87 2.63 0 3.87 5.37 7 12 7z" fill="#f5b504"/><path d="m49 39v4c0 1.1-.9 2-2 2-.55 0-1.05-.22-1.41-.59-.37-.36-.59-.86-.59-1.41v-2c0-1.1-.9-2-2-2-.55 0-1.05.22-1.41.59-.37.36-.59.86-.59 1.41v3.37c1.87 1.23 3 2.85 3 4.63 0 3.87-5.37 7-12 7s-12-3.13-12-7 5.37-7 12-7c1.79 0 3.48.23 5 .64v-3.64h-30l4.69 20h40.62l4.69-20z" fill="#fff2de"/><path d="m37 38v1h-30-2c-.55 0-1.05-.22-1.41-.59-.41-.4-.64-.97-.58-1.59.09-1.05 1.05-1.82 2.1-1.82h2.89 26c1.66 0 3 1.34 3 3z" fill="#ffb700"/><path d="m11.69 59 .58 2.46c.21.9 1.02 1.54 1.94 1.54h22.466c-2.83-.904-5.464-2.265-7.786-4z" fill="#ff9500"/><path d="m24.021 54.22c-2.462-1.281-4.021-3.141-4.021-5.22 0-.562.125-1.105.339-1.628-.877-2.614-1.283-5.43-1.129-8.372h-12.21l4.69 20h17.2c-1.84-1.375-3.481-2.983-4.869-4.78z" fill="#f9d2a7"/><path d="m8 35h-2.89c-1.05 0-2.01.77-2.1 1.82-.06.62.17 1.19.58 1.59.36.37.86.59 1.41.59h2 12.21c.069-1.311.25-2.646.553-4z" fill="#ff9500"/><path d="m34 49h-5c-.553 0-1 .448-1 1s.447 1 1 1h5c.553 0 1-.448 1-1s-.447-1-1-1z" fill="#df912e"/><path d="m42 27c-.553 0-1 .448-1 1 0 .551-.448 1-1 1s-1-.449-1-1c0-.552-.447-1-1-1s-1 .448-1 1c0 1.654 1.346 3 3 3s3-1.346 3-3c0-.552-.447-1-1-1z" fill="#fff2de"/><path d="m18 28c-.553 0-1 .448-1 1 0 .551-.448 1-1 1s-1-.449-1-1c0-.552-.447-1-1-1s-1 .448-1 1c0 1.654 1.346 3 3 3s3-1.346 3-3c0-.552-.447-1-1-1z" fill="#eb8890"/><path d="m28 17c1.654 0 3-1.346 3-3 0-.552-.447-1-1-1s-1 .448-1 1c0 .551-.448 1-1 1s-1-.449-1-1c0-.552-.447-1-1-1s-1 .448-1 1c0 1.654 1.346 3 3 3z" fill="#afe266"/><circle cx="24" cy="26" fill="#eb8890" r="1"/><circle cx="22" cy="31" fill="#eb8890" r="1"/><circle cx="47" cy="30" fill="#fff2de" r="1"/><circle cx="43" cy="22" fill="#fff2de" r="1"/><g fill="#afe266"><circle cx="35" cy="14" r="1"/><circle cx="30" cy="10" r="1"/><circle cx="23" cy="18" r="1"/></g><path d="m14.602 48.737c-.145-.534-.695-.848-1.228-.702-.533.145-.848.695-.702 1.228l.545 2c.121.445.539.846 1.228.702.541-.113.848-.695.702-1.228z" fill="#904b17"/><path d="m15 42h-3c-.312 0-.605.146-.795.393s-.252.569-.17.87l.818 3c.121.445.424.861 1.228.702.542-.107.848-.695.702-1.228l-.473-1.737h1.69c.553 0 1-.448 1-1s-.447-1-1-1z" fill="#904b17"/><g><path d="m37 46v2h-10c-.55 0-1-.45-1-1s.45-1 1-1z" fill="#df912e"/></g></svg>