<svg height="512" viewBox="0 0 32 32" width="512" xmlns="http://www.w3.org/2000/svg"><g id="Layer_56" data-name="Layer 56"><path d="m7 12a1 1 0 0 1 1-1h8a1 1 0 0 1 0 2h-8a1 1 0 0 1 -1-1zm22-5v20a3 3 0 0 1 -3 3h-20a3 3 0 0 1 -3-3v-20a3 3 0 0 1 3-3h3a2 2 0 0 1 2-2h10a2 2 0 0 1 2 2h3a3 3 0 0 1 3 3zm-18-1h10v-1-1h-10zm16 1a1 1 0 0 0 -1-1h-3a2 2 0 0 1 -2 2h-10a2 2 0 0 1 -2-2h-3a1 1 0 0 0 -1 1v20a1 1 0 0 0 1 1h20a1 1 0 0 0 1-1zm-5 9h-14a1 1 0 0 0 0 2h14a1 1 0 0 0 0-2zm0 5h-14a1 1 0 0 0 0 2h14a1 1 0 0 0 0-2z"/></g></svg>