<svg height="512" viewBox="0 0 100 100" width="512" xmlns="http://www.w3.org/2000/svg"><g id="Layer_2" data-name="Layer 2"><path d="m50 50a22.5 22.5 0 1 0 -22.5-22.5 22.52 22.52 0 0 0 22.5 22.5zm0-40a17.5 17.5 0 1 1 -17.5 17.5 17.52 17.52 0 0 1 17.5-17.5zm-35 85a2.5 2.5 0 0 0 2.5-2.5v-10a32.41 32.41 0 0 1 14.83-27.26l15.43 30.88a2.51 2.51 0 0 0 4.48 0l15.43-30.89a31.58 31.58 0 0 1 5.33 4.29 32.28 32.28 0 0 1 9.52 23v10a2.5 2.5 0 0 0 5 0v-10a37.43 37.43 0 0 0 -19.68-33l-.2-.07a2.34 2.34 0 0 0 -.24-.09 1 1 0 0 0 -.24-.05h-.24-.49l-.24.05h-.22a2.18 2.18 0 0 0 -.23.09l-.22.1-.2.13-.2.14-.17.17a1.45 1.45 0 0 0 -.17.18 1.53 1.53 0 0 0 -.14.21 1.13 1.13 0 0 0 -.12.18l-5.9 11.61-1.15-7.55a2.49 2.49 0 0 0 -2.47-2.12h-10a2.49 2.49 0 0 0 -2.47 2.12l-1.15 7.55-5.78-11.58s0 0 0 0a1.18 1.18 0 0 0 -.13-.18 1.37 1.37 0 0 0 -.13-.2l-.22-.21-.12-.21a1.13 1.13 0 0 0 -.21-.15 1.22 1.22 0 0 0 -.19-.12l-.23-.11c-.07 0-.13-.06-.21-.08a2.1 2.1 0 0 0 -.24-.06h-.22-.49-.26l-.22.05a2.67 2.67 0 0 0 -.26.09l-.18.07a37.47 37.47 0 0 0 -19.67 33v10a2.5 2.5 0 0 0 2.38 2.52zm30.26-25.08 1.89-12.42h5.7l1.89 12.42-4.74 9.49zm28.49 5.08a2.5 2.5 0 0 1 0 5h-7.5a2.5 2.5 0 0 1 0-5z"/></g></svg>