<svg id="Capa_1" enable-background="new 0 0 512 512" viewBox="0 0 512 512" xmlns="http://www.w3.org/2000/svg"><g><g><g><g><path d="m83.677 234.52h344.645c11.379 0 20.604 9.225 20.604 20.604v78.821c0 11.379-9.225 20.604-20.604 20.604h-344.645c-11.379 0-20.604-9.225-20.604-20.604v-78.821c.001-11.379 9.225-20.604 20.604-20.604z" fill="#00f2a6"/></g><g><path d="m83.677 391.971h344.645c11.379 0 20.604 9.225 20.604 20.604v78.821c0 11.379-9.225 20.604-20.604 20.604h-344.645c-11.379 0-20.604-9.225-20.604-20.604v-78.821c.001-11.379 9.225-20.604 20.604-20.604z" fill="#2ed1e2"/></g><g><g><g><path d="m256 28.227c5.764 0 11.33.858 16.588 2.433 2.04-3.116 3.236-6.835 3.236-10.837 0-10.948-8.876-19.823-19.824-19.823s-19.824 8.875-19.824 19.824c0 4.002 1.196 7.721 3.236 10.837 5.258-1.576 10.824-2.434 16.588-2.434z" fill="#fedf30"/></g><g><path d="m229.408 170.825c-.279 1.556-.432 3.156-.432 4.793 0 14.925 12.099 27.024 27.024 27.024s27.024-12.099 27.024-27.024c0-1.637-.154-3.236-.432-4.793z" fill="#fed402"/></g><g><path d="m314.935 122.757v-36.626c0-32.549-26.386-58.935-58.935-58.935-32.549 0-58.935 26.386-58.935 58.935v36.626l-14.913 14.913c-1.805 1.805-2.819 4.253-2.819 6.805v17.756c0 5.315 4.309 9.624 9.624 9.624h134.085c5.315 0 9.624-4.309 9.624-9.624v-17.756c0-2.552-1.014-5-2.819-6.805z" fill="#fed402"/></g><g><path d="m329.848 137.67-14.913-14.913v-36.626c0-16.506-6.794-31.419-17.728-42.118v86.304c0 5.69-4.612 10.302-10.302 10.302h-106.757c-.527 1.205-.814 2.515-.814 3.856v17.756c0 5.315 4.309 9.624 9.624 9.624h134.085c5.315 0 9.624-4.309 9.624-9.624v-17.756c0-2.552-1.014-5-2.819-6.805z" fill="#fac600"/></g></g><g><g><circle cx="327.302" cy="87.664" fill="#fe73c5" r="50.235"/></g><g><path d="m338.223 38.634c7.824 8.857 12.58 20.487 12.58 33.234 0 27.744-22.491 50.235-50.235 50.235-3.752 0-7.403-.424-10.921-1.204 9.204 10.421 22.657 17 37.654 17 27.744 0 50.235-22.491 50.235-50.235.001-23.991-16.823-44.042-39.313-49.03z" fill="#fe4fb7"/></g></g></g></g><g><path d="m428.323 234.52h-11.614v77.637c0 5.69-4.612 10.302-10.302 10.302h-343.333v11.486c0 11.379 9.225 20.604 20.604 20.604h344.645c11.379 0 20.604-9.225 20.604-20.604v-78.821c-.001-11.379-9.225-20.604-20.604-20.604z" fill="#05e39c"/></g><g><path d="m428.323 391.971h-11.614v77.637c0 5.69-4.612 10.302-10.302 10.302h-343.333v11.486c0 11.379 9.225 20.604 20.604 20.604h344.645c11.379 0 20.604-9.225 20.604-20.604v-78.821c-.001-11.379-9.225-20.604-20.604-20.604z" fill="#02c7dd"/></g></g><g><g><g><path d="m406.521 282.63h-217.881c-4.142 0-7.5-3.358-7.5-7.5s3.358-7.5 7.5-7.5h217.881c4.143 0 7.5 3.358 7.5 7.5s-3.358 7.5-7.5 7.5z" fill="#fff"/></g><g><path d="m406.521 321.439h-217.881c-4.142 0-7.5-3.358-7.5-7.5s3.358-7.5 7.5-7.5h217.881c4.143 0 7.5 3.358 7.5 7.5s-3.358 7.5-7.5 7.5z" fill="#fff"/></g></g><g><g><path d="m406.521 440.082h-217.881c-4.142 0-7.5-3.358-7.5-7.5s3.358-7.5 7.5-7.5h217.881c4.143 0 7.5 3.358 7.5 7.5s-3.358 7.5-7.5 7.5z" fill="#fff"/></g><g><path d="m406.521 478.89h-217.881c-4.142 0-7.5-3.358-7.5-7.5s3.358-7.5 7.5-7.5h217.881c4.143 0 7.5 3.358 7.5 7.5s-3.358 7.5-7.5 7.5z" fill="#fff"/></g></g><g><g><g><path d="m146.765 133.796c-2.119 0-4.225-.893-5.708-2.631-20.469-23.986-20.469-63.014 0-87.001 2.688-3.151 7.423-3.526 10.574-.836 3.15 2.688 3.525 7.423.836 10.574-15.887 18.617-15.887 48.91 0 67.526 2.689 3.151 2.314 7.885-.836 10.574-1.414 1.204-3.145 1.794-4.866 1.794z" fill="#bbeef2"/></g><g><path d="m168.438 111.261c-2.119 0-4.225-.893-5.708-2.631-10.032-11.756-10.032-30.174 0-41.93 2.689-3.151 7.422-3.526 10.573-.837 3.151 2.688 3.526 7.422.837 10.573-5.193 6.087-5.193 16.371 0 22.457 2.689 3.151 2.314 7.885-.836 10.574-1.413 1.204-3.144 1.794-4.866 1.794z" fill="#a6e7f0"/></g></g><g><g><path d="m400.222 133.796c-1.722 0-3.452-.589-4.864-1.795-3.151-2.688-3.525-7.422-.837-10.573 15.886-18.617 15.886-48.91 0-67.527-2.688-3.151-2.314-7.885.837-10.573 3.15-2.69 7.885-2.314 10.573.837 20.468 23.986 20.468 63.014 0 87-1.484 1.737-3.59 2.631-5.709 2.631z" fill="#bbeef2"/></g></g></g><g><g><path d="m329.59 114.568c-4.143 0-7.5-3.358-7.5-7.5v-31.308h-2.489c-4.143 0-7.5-3.358-7.5-7.5s3.357-7.5 7.5-7.5h9.989c4.143 0 7.5 3.358 7.5 7.5v38.809c0 4.141-3.358 7.499-7.5 7.499z" fill="#fff"/></g></g></g><g><g><circle cx="130.427" cy="451.986" fill="#fff" r="32.448"/></g></g><g><g><circle cx="130.427" cy="294.535" fill="#fff" r="32.448"/></g></g><g fill="#f3f0f3"><path d="m137.168 262.792c4.185 5.464 6.677 12.293 6.677 19.708 0 17.921-14.528 32.448-32.448 32.448-2.312 0-4.565-.246-6.74-.706 5.93 7.743 15.265 12.74 25.771 12.74 17.921 0 32.448-14.528 32.448-32.448 0-15.608-11.023-28.639-25.708-31.742z"/><path d="m137.168 420.243c4.185 5.464 6.677 12.293 6.677 19.708 0 17.921-14.528 32.448-32.448 32.448-2.312 0-4.565-.246-6.74-.706 5.93 7.743 15.265 12.74 25.771 12.74 17.921 0 32.448-14.528 32.448-32.448 0-15.608-11.023-28.639-25.708-31.742z"/></g></g><g/><g/><g/><g/><g/><g/><g/><g/><g/><g/><g/><g/><g/><g/><g/></svg>