<?xml version="1.0" encoding="iso-8859-1"?>
<!-- Generator: Adobe Illustrator 26.5.1, SVG Export Plug-In . SVG Version: 6.00 Build 0)  -->
<svg version="1.1" id="Capa_1" xmlns="http://www.w3.org/2000/svg" xmlns:xlink="http://www.w3.org/1999/xlink" x="0px" y="0px"
	 viewBox="0 0 512 512" style="enable-background:new 0 0 512 512;" xml:space="preserve">
<g>
	<g>
		<path d="M171,462h30c6.075,0,11-4.925,11-11s-4.925-11-11-11h-30c-6.075,0-11,4.925-11,11S164.925,462,171,462z"/>
		<path d="M476.509,296.478c3.49-6.029,5.49-13.024,5.49-20.478c0-18.048-11.544-33.456-27.999-38.904
			c-2.85-0.943-5.846,2.212-8.956,1.904c-6.047-0.597-11.433,0.015-12.031,6.061c-0.6,6.045,3.816,11.432,9.861,12.031
			c9.603,0.952,17.125,9.257,17.125,18.908c0,10.477-8.523,19-19,19h-48.193l26.473-40.626c3.317-5.09,1.88-11.905-3.211-15.222
			c-5.09-3.316-11.905-1.879-15.221,3.211l-30.834,47.32l-75.557-51.824c-5.009-3.436-11.856-2.161-15.293,2.849
			s-2.16,11.857,2.85,15.293L338.871,295H221c-10.477,0-19-8.523-19-19c0-9.482,7.089-17.579,16.49-18.834
			c6.021-0.804,10.251-6.338,9.447-12.359s-6.332-7.613-12.359-6.807c-4.09,0.546-7.977-0.948-11.577,0.703
			c-14.252,6.534-24.001,20.963-24.001,37.297c0,7.454,2,14.449,5.49,20.478c-3.282,1.903-5.49,5.455-5.49,9.522v40
			c0,28.122,22.878,51,51,51h89v79.101c0,7.664-5.906,13.898-13.166,13.898H65.167C57.907,490,52,483.765,52,476.101V35.898
			C52,28.235,57.907,22,65.167,22H100v14c0,19.851,16.149,36,36,36h100c19.851,0,36-16.149,36-36V22h34.833
			c7.26,0,13.166,6.235,13.166,13.898V121c0,6.075,4.925,11,11,11s11-4.925,11-11V35.898C341.999,16.104,326.224,0,306.833,0H65.167
			C45.776,0,30,16.104,30,35.898v440.203C30,495.896,45.776,512,65.167,512h241.667c19.391,0,35.166-16.104,35.166-35.898V397h89
			c28.121,0,51-22.878,51-51v-40C481.999,301.933,479.792,298.381,476.509,296.478z M250,36c0,7.72-6.281,14-14,14H136
			c-7.72,0-14-6.28-14-14V22h128V36z M459.999,346c0,15.991-13.01,29-29,29h-200c-15.991,0-29-13.009-29-29v-29h258V346z"/>
	</g>
	<g>
		<path style="fill:#33CCCC;" d="M470.999,257h-280c-6.075,0-11-4.925-11-11v-20c0-61.206,49.794-111,111-111H371
			c61.205,0,110.999,49.794,110.999,111v20C481.999,252.075,477.074,257,470.999,257z M201.999,235h258v-9
			c0-49.075-39.925-89-88.999-89h-80.001c-49.075,0-89,39.925-89,89V235z"/>
	</g>
</g>
<g>
</g>
<g>
</g>
<g>
</g>
<g>
</g>
<g>
</g>
<g>
</g>
<g>
</g>
<g>
</g>
<g>
</g>
<g>
</g>
<g>
</g>
<g>
</g>
<g>
</g>
<g>
</g>
<g>
</g>
</svg>
