<?xml version="1.0" encoding="UTF-8"?>
<svg id="Layer_2" data-name="Layer 2" xmlns="http://www.w3.org/2000/svg" viewBox="0 0 879.82 195.29">
  <defs>
    <style>
      .cls-1 {
        fill: #0381f8;
        stroke-width: 0px;
      }
    </style>
  </defs>
  <g id="Layer_1-2" data-name="Layer 1">
    <g>
      <path class="cls-1" d="m550.07,42.65c-18-2.25-33.35,4.1-47.07,15.1-2.02,1.62-2.76,1.47-4.24-.42-6.71-8.61-15.74-13.48-26.47-14.55-16.05-1.6-32.19-.84-48.27-.44-8.23.21-14.51,7.06-15.99,15.38-5.39,30.37-10.73,60.76-16.2,91.12-.49,2.73-.19,3.75,2.92,3.64,6.86-.23,13.74-.29,20.6.02,3.26.15,4.19-1.02,4.7-3.98,4.16-24.15,8.48-48.27,12.75-72.4.75-4.24,2.54-5.98,6.71-6.02,6.49-.08,13-.22,19.47.17,7.96.48,13.83,4.53,17.52,11.63,2.95,5.66,3.34,11.67,2.27,17.82-2.87,16.54-5.76,33.08-8.83,49.59-.49,2.62.07,3.21,2.63,3.16,7.24-.14,14.49-.15,21.73,0,2.5.06,3.39-.71,3.83-3.2,2.99-17.28,6.21-34.52,9.24-51.8,2.26-12.91,10.03-21.09,21.96-25.63,9.79-3.72,19.83.21,24.81,9.43,3.09,5.72,3.72,11.83,2.63,18.13-2.88,16.67-5.74,33.34-8.84,49.97-.52,2.78.25,3.16,2.64,3.06,3.62-.14,7.24-.04,10.86-.04,3.62,0,7.25-.15,10.86.05,2.53.14,3.36-.72,3.78-3.22,2.27-13.36,4.78-26.69,7.18-40.03,1.85-10.28,3.94-20.5,2.42-31.1-2.74-19.07-16.56-33.07-35.61-35.46Z"/>
      <path class="cls-1" d="m394.85,42.04c-7.49.14-14.98.2-22.47-.03-2.76-.08-3.59.91-4.03,3.42-2.6,14.82-5.18,29.64-8.1,44.4-3.63,18.32-18.49,30.37-38.91,30.46-7.57.03-13.1-5.12-14.48-12.62-.8-4.36-.43-8.67.34-12.98,2.94-16.52,5.82-33.06,8.92-49.56.52-2.74-.25-3.11-2.66-3.08-7.61.11-15.23.11-22.84,0-2.2-.03-2.94.68-3.32,2.86-2.58,14.82-5.29,29.62-8.05,44.41-1.7,9.08-2.94,18.09-1.66,27.41,5.09,36.98,48.17,42.62,66.07,27.28,2.45-2.1,4.61-4.45,7.3-7.39-1.92,18.8-12.65,29.1-30.56,30.18-7.53.45-14.97-.34-22.27-2.12-2.4-.58-3.26-.13-3.55,2.41-.79,7.17-1.66,14.34-2.9,21.44-.51,2.89.58,3.73,2.98,4.27,10.93,2.46,21.93,3.32,33.07,1.65,18.88-2.83,33.08-12.49,42.61-28.97,5.04-8.71,8.22-18.12,10.04-27.95,5.7-30.81,11.24-61.65,16.93-92.46.44-2.37-.01-3.05-2.47-3Z"/>
      <path class="cls-1" d="m252.44,42.1c-10.23-.03-20.47.19-30.7-.04-33.15-.76-65.93,28.21-67.38,62.33-1.3,30.71,23.41,51.12,52.21,47.52,9.21-1.15,16.36-6.26,23.1-12.11.14-.17.28-.33.42-.5,0,.31.01.61.03.92-.51,3.06-.88,6.15-1.57,9.18-.51,2.24-.16,3.12,2.41,3.07,7.49-.15,14.98-.14,22.46,0,2.29.04,2.96-.83,3.27-2.94.73-5.04,1.73-10.05,2.61-15.07,4.11-23.26,8.36-46.5,12.29-69.79,2.21-13.12-5.97-22.52-19.16-22.57Zm-11.67,38.4c-.98,6.5-2.01,13.03-3.63,19.39-4.27,16.76-22.2,27.74-38.22,23.71-10.51-2.64-16.56-10.72-16.18-21.6.6-17.28,14.11-30.98,31.45-31.83,2.61-.13,5.23-.02,7.85-.02,0-.02,0-.05,0-.07,3.24,0,6.49-.1,9.72.02,5.88.23,9.87,4.68,9.01,10.39Z"/>
      <path class="cls-1" d="m672.55,44.51c-16-3.12-31.05.42-44.85,8.8-19.82,12.05-31.46,29.29-32.73,50.29-.01,24.74,15.67,43.06,37.64,46.52,31.14,4.9,63.48-14.22,74.07-43.81,10.25-28.63-4.74-56.07-34.14-61.8Zm8.15,50.93c-1.83,15.87-16.89,28.77-32.92,28.2-11.79-.42-19.36-5.09-22.58-13.91-2.17-5.93-1.33-11.73.73-17.47,5.33-14.88,22.06-24.18,37.51-20.86,11.98,2.58,18.66,11.88,17.25,24.05Z"/>
      <path class="cls-1" d="m104.46,124.38c-10.11.18-20.22.07-30.33.07-9.61,0-19.22,0-28.83,0-5.14,0-5.12,0-4.22-5.01,4.24-23.74,8.47-47.49,12.69-71.24,1.11-6.23,1.08-6.23-5.22-6.11-12.56.24-23.45,8.67-25.49,20.15C15.38,105.33,7.84,148.44.16,191.53c-.37,2.09-.27,2.89,2.12,2.85,7.61-.12,15.23-.11,22.84,0,2.08.03,2.77-.73,3.1-2.7,1.9-11.15,3.96-22.28,5.92-33.42,1.03-5.85,1-5.77,7.09-5.87,12.85-.21,25.73.79,38.54-.55,14.87-1.55,25.08-10.6,27.7-23.78.54-2.73.06-3.73-3.01-3.68Z"/>
      <path class="cls-1" d="m806.41,124.36c-19.98.18-39.96.03-59.93.15-2.9.02-3.5-.57-2.96-3.53,5.03-27.53,9.86-55.09,14.78-82.64,2.05-11.51,4.22-23,6.19-34.52.22-1.26,1.83-3.43-1.59-3.7-15.59-1.24-27.46,7.6-30.15,22.77-7.46,42.13-14.86,84.28-22.36,126.4-.45,2.55.08,3.2,2.66,3.17,10.74-.12,21.48-.05,34.45-.05,10.11-.37,22.5.78,34.82-.57,14.46-1.58,24.41-10.27,27.42-23.23.74-3.22.34-4.28-3.33-4.24Z"/>
      <path class="cls-1" d="m831.3,42.14c-15.22-.19-30.44-.21-45.66,0-15.07.21-26.98,10.61-29.3,24.93-.38,2.33.09,3.31,2.53,3,.61-.08,1.25-.01,1.87-.01,17.84,0,35.68-.02,53.52.01,6.07.01,8.34,2.63,7.69,8.65-.08.74-.17,1.48-.29,2.22-2.14,12.24-4.3,24.48-6.44,36.72-1.15,6.57-2.28,13.14-3.52,20.29,3.76-1.25,6.94-2.23,10.07-3.36,13.25-4.78,21.12-14.1,23.36-27.97,2.19-13.62,4.26-27.26,6.29-40.9,2.06-13.79-6.04-23.39-20.12-23.57Z"/>
      <path class="cls-1" d="m128.42,42.11c-14.85-.12-29.71-.11-44.57,0-15.33.11-26.83,9.79-29.9,24.77-.51,2.49.02,3.28,2.67,3.24,9.24-.14,18.47-.05,27.71-.05,8.86,0,17.73,0,26.59,0,7.35,0,9.71,2.72,8.52,9.95-1.01,6.14-2.17,12.25-3.24,18.37-2.11,12-4.17,24.02-6.34,36.01-.49,2.69-.07,3.73,2.86,2.5,2.52-1.06,5.2-1.75,7.76-2.72,12.21-4.63,19.73-13.48,22.03-26.16,2.55-14.07,4.45-28.26,6.41-42.42,1.98-14.26-6-23.36-20.51-23.47Z"/>
      <path class="cls-1" d="m878.76,136.18c-2.09-.73-3.01.76-3.88,2.47-1.46,2.89-2.55,6.01-4.89,8.99-.69-3.57-1.33-6.58-1.82-9.61-.25-1.59-1.07-2.01-2.55-1.98-1.56.03-1.76.97-1.93,2.18-.56,3.94-1.2,7.86-1.78,11.8-.13.89-.85,2.13.79,2.32,1.46.16,1.38-1.15,1.54-2.08.53-3.15,1.02-6.31,1.52-9.46.24.04.48.07.72.11.56,2.92,1.11,5.85,1.69,8.77.18.94,0,2.36,1.1,2.54,1.39.23,1.59-1.32,2.08-2.25,1.53-2.9,3.01-5.83,4.51-8.74.29,3.07-.14,5.88-.53,8.69-.13.9-.82,2.15.72,2.41,1.36.23,1.52-.95,1.67-1.96.54-3.56,1.19-7.12,1.56-10.7.12-1.13,1.42-2.83-.52-3.51Z"/>
      <path class="cls-1" d="m858.89,136.11c-2.49-.04-4.98-.02-7.47,0-.88,0-1.89.02-1.81,1.28.07,1.06,1.04.97,1.72.89,2.41-.29,2.56.79,2.13,2.8-.64,3.03-.95,6.13-1.44,9.51.01.48-.58,1.57.77,1.76,1.44.21,1.5-1.03,1.66-1.97.52-3.06,1.13-6.11,1.41-9.19.19-2.12.8-3.27,3.14-2.9.89.14,1.91.02,1.88-1.18-.04-1.32-1.2-.98-2-.99Z"/>
    </g>
  </g>
</svg>