<svg fill="none" height="48" viewBox="0 0 48 48" width="48" xmlns="http://www.w3.org/2000/svg"><g clip-rule="evenodd" fill="#000" fill-rule="evenodd"><path d="m32 40c.5523 0 1-.4477 1-1s-.4477-1-1-1-1 .4477-1 1 .4477 1 1 1zm0 3c2.2091 0 4-1.7909 4-4s-1.7909-4-4-4-4 1.7909-4 4 1.7909 4 4 4z"/><path d="m20 40c.5523 0 1-.4477 1-1s-.4477-1-1-1-1 .4477-1 1 .4477 1 1 1zm0 3c2.2091 0 4-1.7909 4-4s-1.7909-4-4-4-4 1.7909-4 4 1.7909 4 4 4z"/><path d="m5.75196 6.16786c.45953-.68929 1.39083-.87555 2.08013-.41602l2.33601 1.55733c.7461.49738 1.2728 1.26213 1.4715 2.1365l4.1155 18.10833c.2587 1.1382 1.2706 1.9459 2.4379 1.9459h15.6141c1.1673 0 2.1792-.8077 2.4379-1.9459l3.1818-14c.3555-1.5644-.8336-3.0541-2.4379-3.0541h-15.4889c-.8284 0-1.5-.67156-1.5-1.49998 0-.82843.6716-1.5 1.5-1.5h15.4889c3.5295 0 6.1455 3.27718 5.3633 6.71888l-3.1818 14c-.5692 2.5041-2.7953 4.2811-5.3633 4.2811h-15.6141c-2.568 0-4.7942-1.777-5.3633-4.2811l-4.1155-18.1083c-.02839-.12487-.10364-.23412-.21022-.30518l-2.33599-1.55733c-.6893-.45953-.87556-1.39083-.41603-2.08013z"/><path d="m19.9891 20.061c.5855-.5861 1.5352-.5866 2.1213-.0011l1.7692 1.7674 6.0095-6.0095c.5858-.5858 1.5355-.5858 2.1213 0s.5858 1.5355 0 2.1213l-7.0696 7.0697c-.5856.5855-1.5349.5858-2.1208.0005l-2.8299-2.827c-.586-.5855-.5865-1.5353-.001-2.1213z"/></g></svg>