<svg id="Layer_1" enable-background="new 0 0 28 28" viewBox="0 0 28 28" xmlns="http://www.w3.org/2000/svg"><g><path d="m14 7.6933594c-2.0825195 0-3.7768555 1.6938477-3.7768555 3.7763672 0 .5522461.4477539 1 1 1s1-.4477539 1-1c0-.9794922.796875-1.7763672 1.7768555-1.7763672s1.7768555.796875 1.7768555 1.7763672c0 .9799805-.796875 1.7768555-1.7768555 1.7768555-.5522461 0-1 .4477539-1 1v2.3969727c0 .5522461.4477539 1 1 1s1-.4477539 1-1v-1.53125c1.5991211-.4394531 2.7768555-1.90625 2.7768555-3.6425781 0-2.0825197-1.694336-3.7763673-3.7768555-3.7763673z"/><path d="m14.7114258 19.2573242c-.3798828-.3701172-1.050293-.3701172-1.4199219 0-.3803835.3783264-.3902731 1.0204525 0 1.409668.3957815.3967991 1.018712.4022408 1.4199219 0 .4205112-.4205113.3435144-1.0661545 0-1.409668z"/><path d="m14 2c-6.6166992 0-12 5.3833008-12 12s5.3833008 12 12 12 12-5.3833008 12-12-5.3833008-12-12-12zm0 22c-5.5141602 0-10-4.4858398-10-10s4.4858398-10 10-10 10 4.4858398 10 10-4.4858398 10-10 10z"/></g></svg>