<svg height="512" viewBox="0 0 32 32" width="512" xmlns="http://www.w3.org/2000/svg"><g id="shopping_bag_check"><path d="m17 7v-1c0-2.7568359-2.2431641-5-5-5s-5 2.2431641-5 5v1h-6v20c0 2.2099609 1.7900391 4 4 4h10.6801758c-.8100586-.5703125-1.5400391-1.2402344-2.1704102-2h-8.5097656c-1.1000977 0-2-.9003906-2-2v-18h4v2h2v-2h6v2h2v-2h4v2.0498047c.3300781-.0302734.6601563-.0498047 1-.0498047s.6699219.0195313 1 .0498047v-4.0498047zm-8 0v-1c0-1.6542969 1.3457031-3 3-3s3 1.3457031 3 3v1zm13 24c-4.9628906 0-9-4.0371094-9-9s4.0371094-9 9-9 9 4.0371094 9 9-4.0371094 9-9 9zm0-16c-3.859375 0-7 3.140625-7 7s3.140625 7 7 7 7-3.140625 7-7-3.140625-7-7-7zm-1 10.4140625-3.4140625-3.4140625 1.4140625-1.4140625 2 2 4-4 1.4140625 1.4140625z"/></g></svg>