<svg clip-rule="evenodd" fill-rule="evenodd" height="8.467mm" image-rendering="optimizeQuality" shape-rendering="geometricPrecision" text-rendering="geometricPrecision" viewBox="0 0 846.66 846.66" width="8.467mm" xmlns="http://www.w3.org/2000/svg"><g id="Layer_x0020_1"><path d="m604.23 621.2c-61.17-93.21-176.33-119.68-192.8-123.05h-42.64v268.86c0 13.56-13.57 24.37-28.38 18.18l-145.11-54.53c-8-3.01-12.93-10.61-12.93-18.68h-.04v-215.06c-167.41-21.09-160.38-303.95 20.01-303.95h209.09c16.54-3.38 132.62-30.05 193.59-124.22 10.77-16.61 36.65-8.87 36.68 10.86h.06v531.9c0 20.61-27.58 27.62-37.53 9.69zm-275.47-123.05h-106.41v200.02l106.41 39.99zm358.16-241.48c-23.99-10.35-8.19-46.94 15.79-36.58 109.65 47.37 109.65 203.57 0 250.95-23.98 10.35-39.78-26.22-15.79-36.59 77.56-33.51 77.53-144.24 0-177.78zm-253.88-27.85v233.49c32.98 8.63 109.24 33.8 168.7 93.14v-419.78c-59.46 59.34-135.72 84.52-168.7 93.15zm-40.03 229.31v-225.14h-190.67c-134.42 0-134.42 225.14 0 225.14z" fill-rule="nonzero"/></g></svg>