<svg height="512" viewBox="0 0 512 512" width="512" xmlns="http://www.w3.org/2000/svg"><g id="e"><path d="m280.16 410.08c0-34.7 13.51-67.33 38.05-91.87s57.16-38.05 91.87-38.05c28.49 0 55.58 9.12 77.95 25.96 1.24-18.12 2.01-38.39 2.04-61.08-.06-57.07-4.85-98.86-9.96-129.57-8.94-50.6-54.9-96.56-105.5-105.5-30.71-5.12-72.5-9.91-129.58-9.97-57.07.06-98.87 4.85-129.58 9.96-50.59 8.94-96.55 54.9-105.49 105.5-5.11 30.71-9.89 72.5-9.96 129.57.07 57.07 4.85 98.87 9.96 129.58 8.94 50.6 54.9 96.56 105.5 105.5 30.71 5.11 72.5 9.89 129.58 9.96 22.69-.03 42.96-.8 61.08-2.04-16.84-22.37-25.96-49.45-25.96-77.95zm-156.2-291.66h242.15c15.66 0 28.36 12.7 28.36 28.36s-12.7 28.36-28.36 28.36h-242.15c-15.66 0-28.36-12.7-28.36-28.36s12.7-28.36 28.36-28.36zm0 175.15c-15.66 0-28.36-12.7-28.36-28.36s12.7-28.36 28.36-28.36h142.15c15.66 0 28.36 12.7 28.36 28.36s-12.7 28.36-28.36 28.36z"/><path d="m410.08 308.16c-56.29 0-101.92 45.63-101.92 101.92s45.63 101.92 101.92 101.92 101.92-45.63 101.92-101.92-45.63-101.92-101.92-101.92zm19 152.49c0 10.49-8.51 19-19 19s-19-8.51-19-19v-50.13c0-10.49 8.51-19 19-19s19 8.51 19 19zm-.78-90.8c-.7 3.96-4.3 7.56-8.26 8.26-2.4.4-5.68.77-10.15.78-4.47 0-7.74-.38-10.15-.78-3.96-.7-7.56-4.3-8.26-8.26-.4-2.4-.77-5.68-.78-10.15 0-4.47.38-7.74.78-10.15.7-3.96 4.3-7.56 8.26-8.26 2.4-.4 5.68-.77 10.15-.78 4.47 0 7.74.38 10.15.78 3.96.7 7.56 4.3 8.26 8.26.4 2.4.77 5.68.78 10.15 0 4.47-.38 7.74-.78 10.15z"/></g></svg>