<svg id="Capa_1" enable-background="new 0 0 510 510" height="512" viewBox="0 0 510 510" width="512" xmlns="http://www.w3.org/2000/svg"><g><path d="m300 152.865v180.001h-60v90h86.459l108.541 54.269v-54.27h75v-270zm165 216.247h-75c-24.814 0-45-20.188-45-45 0-20.724 14.085-38.21 33.181-43.414-2.045-5.137-3.181-10.729-3.181-16.586 0-24.813 20.186-45 45-45h30v30h-30c-8.272 0-15 6.729-15 15s6.728 15 15 15h30v30c-7.259 0-52.693 0-60 0-8.272 0-15 6.728-15 15 0 8.271 6.728 15 15 15h75z"/><path d="m135 122.865c-16.542 0-30 13.458-30 30v15h60v-15c0-16.542-13.458-30-30-30z"/><path d="m270 32.865h-270v270.001h75v54.27l108.541-54.27h86.459zm-75 210.001h-30v-45.001h-60v45.001h-30v-90.001c0-33.083 26.916-60 60-60s60 26.917 60 60z"/></g></svg>