<svg id="Layer_1" viewBox="0 0 128 128" xmlns="http://www.w3.org/2000/svg" data-name="Layer 1"><path d="m119.48 79.65-32-35a2 2 0 0 0 -3.48 1.35v16h-42a2 2 0 0 0 -2 2v12.85l-27.29-29.85 27.29-29.85v12.85a2 2 0 0 0 2 2h56a2 2 0 0 0 0-4h-54v-16a2 2 0 0 0 -3.48-1.35l-32 35a2 2 0 0 0 0 2.7l32 35a2 2 0 0 0 3.48-1.35v-16h42a2 2 0 0 0 2-2v-12.85l27.29 29.85-27.29 29.85v-12.85a2 2 0 0 0 -2-2h-56a2 2 0 0 0 0 4h54v16a2 2 0 0 0 1.28 1.86 1.81 1.81 0 0 0 .72.14 2 2 0 0 0 1.48-.65l32-35a2 2 0 0 0 0-2.7z"/></svg>