<svg id="Layer_1" enable-background="new 0 0 512 512" height="512" viewBox="0 0 512 512" width="512" xmlns="http://www.w3.org/2000/svg" xmlns:xlink="http://www.w3.org/1999/xlink"><linearGradient id="lg1"><stop offset="0" stop-color="#f69a17"/><stop offset=".52" stop-color="#df384a"/><stop offset="1" stop-color="#ac0e85"/></linearGradient><linearGradient id="SVGID_1_" gradientTransform="matrix(1 0 0 -1 0 513.85)" gradientUnits="userSpaceOnUse" x1="-6.83" x2="503.9" xlink:href="#lg1" y1="257.853" y2="257.853"/><linearGradient id="SVGID_00000114040638193892562040000012299182094401378470_" gradientTransform="matrix(1 0 0 -1 0 513.85)" gradientUnits="userSpaceOnUse" x1="-6.83" x2="503.9" xlink:href="#lg1" y1="257.851" y2="257.851"/><g id="Layer_2_00000170973925759691181400000013007534386417122961_"><g id="up_down_arrow"><path d="m502 292.7c-13.3-13.3-34.8-13.3-48.1 0l-32.2 32.2v-210.3c0-19.2-15.5-34.7-34.7-34.7-19.2 0-34.7 15.5-34.7 34.7v210.3l-32.3-32.2c-13.3-13.3-34.8-13.3-48.1 0-13.3 13.3-13.3 34.8 0 48.1l74.5 74.5c22.4 22.4 58.7 22.4 81.1 0l74.5-74.5c13.3-13.3 13.3-34.8 0-48.1z" fill="url(#SVGID_1_)"/><path d="m165.6 96.7c-22.4-22.4-58.7-22.4-81.1 0l-74.5 74.5c-13.3 13.3-13.3 34.8 0 48.1 13.3 13.3 34.8 13.3 48.1 0l32.2-32.3v210.3c0 19.2 15.5 34.7 34.7 34.7 19.2 0 34.7-15.5 34.7-34.7v-210.3l32.3 32.3c13.3 13.3 34.8 13.3 48.1 0 13.3-13.3 13.3-34.8 0-48.1z" fill="url(#SVGID_00000114040638193892562040000012299182094401378470_)"/></g></g></svg>