<svg id="icon" height="512" viewBox="0 0 32 32" width="512" xmlns="http://www.w3.org/2000/svg"><path d="m30 27c0 .553-.448 1-1 1h-19.184c-.414 1.161-1.514 2-2.816 2s-2.402-.839-2.816-2h-1.184c-.552 0-1-.447-1-1s.448-1 1-1h1.184c.414-1.161 1.514-2 2.816-2s2.402.839 2.816 2h19.184c.552 0 1 .447 1 1zm-16-11.945 4.939-3.055-4.944-3.058zm16-10.055v14c0 1.654-1.346 3-3 3h-22c-1.654 0-3-1.346-3-3v-14c0-1.654 1.346-3 3-3h22c1.654 0 3 1.346 3 3zm-9.062 7c0-.698-.354-1.333-.948-1.701l-4.939-3.055c-.615-.381-1.392-.399-2.025-.046s-1.026 1.022-1.026 1.747v6.11c0 .725.394 1.395 1.026 1.747.303.169.638.252.973.252.366 0 .731-.1 1.052-.298l4.939-3.056c.593-.367.947-1.003.947-1.701z"/></svg>