<svg height="512" viewBox="0 0 64 64" width="512" xmlns="http://www.w3.org/2000/svg"><g id="Layer_26" data-name="Layer 26"><path d="m30.27 17.57a.78.78 0 0 0 0-.21 1 1 0 0 0 -.08-.14 1.22 1.22 0 0 0 -.19-.22s0 0 0 0-.09-.05-.14-.09a.54.54 0 0 0 -.12-.09l-8.34-4.17a1 1 0 0 0 -.76-.05 1 1 0 0 0 -.58.5l-8.3 16.65a0 0 0 0 0 0 0 1.66 1.66 0 0 0 -.06.21 1 1 0 0 0 0 .17s0 0 0 0a1.16 1.16 0 0 0 0 .18.9.9 0 0 0 0 .16 1.55 1.55 0 0 0 .12.22s0 .07.07.1a.88.88 0 0 0 .24.19h.06a.89.89 0 0 0 .43.11h4.16a1 1 0 0 0 .7-.29l.18-.18a1.31 1.31 0 0 0 .17-.24l4-8.11a3.77 3.77 0 0 0 1.94-.12 3.69 3.69 0 0 0 1.63-1.07l.53.26.21.06a1 1 0 0 0 .17 0h.15a.71.71 0 0 0 .2 0l.14-.08a2 2 0 0 0 .19-.12l3.01-2.78a.75.75 0 0 0 .07-.12 1.49 1.49 0 0 0 .12-.14s0 0 0 0 0-.13.05-.19a1.48 1.48 0 0 0 0-.19.47.47 0 0 0 .03-.21z" fill="#42a240"/><path d="m27.38 20.94c0-.05 0-.11.05-.17a1.52 1.52 0 0 0 0-.21.66.66 0 0 0 0-.14.86.86 0 0 0 -.05-.23.37.37 0 0 0 -.07-.12 1.07 1.07 0 0 0 -.13-.21s0 0 0 0l-.12-.07s-.08-.09-.14-.11l-1.31-.68a1 1 0 0 0 -.77 0 .94.94 0 0 0 -.57.5 1.81 1.81 0 0 1 -1 .9 1.72 1.72 0 0 1 -1.37-.1 1 1 0 0 0 -.76 0 1 1 0 0 0 -.58.5l-4.35 8.74-.07.06a1 1 0 0 0 0 1.42 1 1 0 0 0 1.42 0l.19-.2 9.46-9.45.08-.12c0-.05.08-.09.11-.14a.09.09 0 0 1 -.02-.17zm-5.46 1.42a3.72 3.72 0 0 0 1.29 0l-2.59 2.64z" fill="#e6e6e6"/><path d="m43.16 25.31-10.73-10.73a1 1 0 0 0 -1.41 0l-14.92 14.91a1 1 0 0 0 -.25.45s0 .09 0 .13 0 .06 0 .1 0 0 0 0a.83.83 0 0 0 .07.34.81.81 0 0 0 .19.29s0 0 0 0a.9.9 0 0 0 .26.17h.05a1 1 0 0 0 .36.07h21.49a.88.88 0 0 0 .28-.06h.1a1.07 1.07 0 0 0 .22-.15l.1-.07 4.17-4.17a1 1 0 0 0 .02-1.28z" fill="#71b263"/><g fill="#22b573"><path d="m45.15 3a1 1 0 0 0 0 2 13.92 13.92 0 0 1 13.85 13.92 1 1 0 0 0 1 1 1 1 0 0 0 1-1 15.91 15.91 0 0 0 -15.85-15.92z"/><path d="m45.15 7.17a1 1 0 0 0 0 2 9.75 9.75 0 0 1 9.69 9.75 1 1 0 0 0 1 1 1 1 0 0 0 1-1 11.74 11.74 0 0 0 -11.69-11.75z"/><path d="m45.15 11.35a1 1 0 0 0 0 2 5.56 5.56 0 0 1 5.52 5.57 1 1 0 0 0 1 1 1 1 0 0 0 1-1 7.55 7.55 0 0 0 -7.52-7.57z"/><path d="m45.12 15.52a3.37 3.37 0 1 0 3.37 3.37 3.37 3.37 0 0 0 -3.37-3.37z"/></g><path d="m36.11 28a1 1 0 0 0 -.3-.71 1.82 1.82 0 0 1 0-2.55 1 1 0 0 0 0-1.42l-1.41-1.4a1 1 0 0 0 -1.41 0 1.83 1.83 0 0 1 -2.54 0 1 1 0 0 0 -1.42 0l-7.56 7.57a1 1 0 0 0 -.3.71 1 1 0 0 0 1 1h10.74a1 1 0 0 0 .72-.31l2.18-2.19a1 1 0 0 0 .3-.7zm-6.28-4a3.91 3.91 0 0 0 3.78 0l.18.18a3.75 3.75 0 0 0 0 3.76l-1.3 1.26h-1.87a4.93 4.93 0 0 0 -.88-1.2 4.75 4.75 0 0 0 -2.62-1.33zm-1.75 5.2h-3.45a2.87 2.87 0 0 1 3.45 0z" fill="#e6e6e6"/><path d="m17.72 30.71v-.01l-.01.01z"/><path d="m38.72 41.28h7a1 1 0 0 0 1-1v-6.89a4.2 4.2 0 0 0 -4.19-4.19h-35.34a4.2 4.2 0 0 0 -4.19 4.19v23.42a4.2 4.2 0 0 0 4.19 4.19h35.35a4.2 4.2 0 0 0 4.19-4.19v-8.31a1 1 0 0 0 -.29-.71 1 1 0 0 0 -.71-.29h-7a.65.65 0 0 1 -.66-.66v-4.9a.65.65 0 0 1 .65-.66z" fill="#40596b"/><path d="m49.71 42.52v3.73a3.25 3.25 0 0 1 -3.25 3.25h-7.74a2.66 2.66 0 0 1 -2.64-2.35 3 3 0 0 1 0-.31v-4.9a3 3 0 0 1 0-.31 2.66 2.66 0 0 1 2.64-2.35h7.74a3.25 3.25 0 0 1 3.25 3.24z" fill="#acb3ba"/><path d="m41.39 44.39a2.76 2.76 0 0 1 -2.75 2.76h-2.56a3 3 0 0 1 0-.31v-4.9a3 3 0 0 1 0-.31h2.56a2.76 2.76 0 0 1 2.75 2.76z" fill="#e6e6e6"/></g></svg>