<svg xmlns="http://www.w3.org/2000/svg" width="220" height="220" viewBox="0 0 220 220">
  <g id="Group_2072" data-name="Group 2072" transform="translate(-815.836 -560.826)">
    <circle id="Ellipse_87" data-name="Ellipse 87" cx="110" cy="110" r="110" transform="translate(815.836 560.826)" fill="#fff"/>
    <g id="Group_1798" data-name="Group 1798" transform="translate(-9328.596)">
      <path id="Path_3527" data-name="Path 3527" d="M10359.432,670.826a104.88,104.88,0,1,1-2.518-22.962A105.017,105.017,0,0,1,10359.432,670.826Z" fill="#093756"/>
      <path id="Path_3528" data-name="Path 3528" d="M10286.908,600.754l70.006,47.11a105.12,105.12,0,0,1-88.736,127.07c-31.108-20.78-59.913-40.378-62.89-43.619l12.2-9.772a190.865,190.865,0,0,0,69.425-120.789Z" fill="#032b42"/>
      <path id="Path_3529" data-name="Path 3529" d="M10303.575,728.79v2.525a77.95,77.95,0,0,1-98.287,0V728.79a34.69,34.69,0,0,1,34.69-34.691l2.89-9.355a26.084,26.084,0,0,1-14.367-21.111,2.919,2.919,0,0,0-2.283-2.487,8.673,8.673,0,0,1-3.2-15.175,71.14,71.14,0,0,1-3.271-20.671,7.231,7.231,0,0,1,7.228-7.227s1.626-17.353,24.57-14.453c23.57,2.982,35.367-2.866,35.367-2.866s5.1,4.941,5.1,14.429a20.156,20.156,0,0,1-2.887,10.425.033.033,0,0,1,0-.019l0,.034.009-.015a51.179,51.179,0,0,1-2.316,21.252,8.673,8.673,0,0,1-4.162,14.286,2.923,2.923,0,0,0-2.284,2.487A26.077,26.077,0,0,1,10266,684.74l2.891,9.359A34.688,34.688,0,0,1,10303.575,728.79Z" fill="#fff"/>
    </g>
  </g>
</svg>
