<svg xmlns="http://www.w3.org/2000/svg" width="27.824" height="20" viewBox="0 0 27.824 20">
  <g id="Group_515" data-name="Group 515" transform="translate(-4240.083 -9653.681)">
    <path id="Path_1094" data-name="Path 1094" d="M4240.083,9671.94V9655.42c.054-.016.054-.066.068-.106a2.183,2.183,0,0,1,2.281-1.633H4265.6a2.176,2.176,0,0,1,2.3,2.3q0,7.7,0,15.4a2.735,2.735,0,0,1-.025.434,2.173,2.173,0,0,1-2.277,1.864h-20.319c-1.005,0-2.01,0-3.016,0a2.168,2.168,0,0,1-2.086-1.525C4240.159,9672.078,4240.17,9671.985,4240.083,9671.94Zm6.088-9.573c1.163,0,2.326.012,3.489,0a.858.858,0,0,0,.856-.867c0-.144,0-.288-.008-.432v-2.611c0-.153.013-.307.007-.459a.859.859,0,0,0-.855-.841c-1.163-.006-2.326,0-3.489.006h-.872c-.3,0-.6-.016-.894-.006a.852.852,0,0,0-.841.855q-.012,1.748,0,3.5a.856.856,0,0,0,.841.858c.3.01.6,0,.894-.006Zm15.645-5.208a2.608,2.608,0,1,0,2.613,2.6A2.606,2.606,0,0,0,4261.816,9657.159Zm-16.3,8.694c-.362,0-.724-.007-1.085,0a.865.865,0,0,0-.872.829c-.052.8.181,1.227.717,1.328a.5.5,0,0,0,.108.012c.751,0,1.5.011,2.253,0a.854.854,0,0,0,.831-.842c.007-.144,0-.29,0-.434a.869.869,0,0,0-.894-.892C4246.226,9665.849,4245.873,9665.854,4245.52,9665.854Zm5.652,0c-.362,0-.724-.007-1.086,0a.865.865,0,0,0-.872.829c-.051.8.182,1.227.718,1.328a.5.5,0,0,0,.108.012c.751,0,1.5.012,2.252,0a.854.854,0,0,0,.831-.842c.007-.145,0-.29,0-.434a.87.87,0,0,0-.9-.892C4251.877,9665.849,4251.524,9665.854,4251.172,9665.854Zm5.644,0v0c-.371,0-.742-.012-1.112,0a.862.862,0,0,0-.839.889c-.022.8.226,1.211.779,1.275a.506.506,0,0,0,.054,0c.751,0,1.5.011,2.253,0a.853.853,0,0,0,.823-.82c.009-.135,0-.271,0-.407a.876.876,0,0,0-.929-.94C4257.5,9665.851,4257.16,9665.854,4256.816,9665.854Zm5.655,2.174h1.085a.869.869,0,0,0,.871-.861c.006-.145.005-.29,0-.434a.863.863,0,0,0-.881-.876q-1.072-.013-2.145,0a.859.859,0,0,0-.884.871c0,.137,0,.271,0,.407a.869.869,0,0,0,.9.892C4261.765,9668.032,4262.118,9668.027,4262.471,9668.027Z" fill="#5e647f"/>
    <path id="Path_1095" data-name="Path 1095" d="M4261.816,9657.159a2.608,2.608,0,1,1-2.6,2.605A2.607,2.607,0,0,1,4261.816,9657.159Z" fill="#e85228"/>
    <path id="Path_1096" data-name="Path 1096" d="M4245.3,9657.168h.872c0,.316.015.633-.006.948-.019.28.088.354.358.352,1.328-.012,2.657-.006,3.985-.006v.872h-3.828c-.514,0-.5,0-.516.516-.008.271.075.361.353.359,1.33-.013,2.661-.007,3.991-.007v.872c-1.337,0-2.675,0-4.012-.006-.244,0-.344.07-.33.323.017.325,0,.651,0,.977h-.872Z" fill="#f2921a"/>
    <path id="Path_1097" data-name="Path 1097" d="M4245.3,9657.168v5.2c-.3,0-.6.016-.894.006a.856.856,0,0,1-.841-.858q-.012-1.748,0-3.5a.852.852,0,0,1,.841-.855C4244.7,9657.152,4245,9657.165,4245.3,9657.168Z" fill="#fed102"/>
    <path id="Path_1098" data-name="Path 1098" d="M4245.52,9665.854c.353,0,.706,0,1.059,0a.869.869,0,0,1,.894.892c0,.144.006.29,0,.434a.854.854,0,0,1-.831.842c-.751.014-1.5,0-2.253,0a.5.5,0,0,1-.108-.012c-.536-.1-.769-.532-.717-1.328a.865.865,0,0,1,.872-.829C4244.8,9665.847,4245.158,9665.854,4245.52,9665.854Z" fill="#b7b9bf"/>
    <path id="Path_1099" data-name="Path 1099" d="M4251.172,9665.854c.352,0,.705,0,1.058,0a.87.87,0,0,1,.9.892c0,.144,0,.289,0,.434a.854.854,0,0,1-.831.842c-.75.015-1.5,0-2.252,0a.5.5,0,0,1-.108-.012c-.536-.1-.769-.532-.718-1.328a.865.865,0,0,1,.872-.829C4250.448,9665.847,4250.81,9665.854,4251.172,9665.854Z" fill="#b7b9bf"/>
    <path id="Path_1100" data-name="Path 1100" d="M4256.816,9665.854c.344,0,.688,0,1.032,0a.876.876,0,0,1,.929.94c0,.136.006.272,0,.407a.853.853,0,0,1-.823.82c-.751.016-1.5,0-2.253,0a.506.506,0,0,1-.054,0c-.553-.064-.8-.472-.779-1.275a.862.862,0,0,1,.839-.889c.37-.015.741,0,1.112,0Z" fill="#b7b9bf"/>
    <path id="Path_1101" data-name="Path 1101" d="M4262.471,9668.027c-.353,0-.706,0-1.059,0a.869.869,0,0,1-.9-.892c0-.136,0-.271,0-.407a.859.859,0,0,1,.884-.871q1.073-.013,2.145,0a.863.863,0,0,1,.881.876c.005.144.006.289,0,.434a.869.869,0,0,1-.871.861h-1.085Z" fill="#b7b9bf"/>
    <path id="Path_1102" data-name="Path 1102" d="M4250.508,9658.462c-1.328,0-2.657-.006-3.985.006-.27,0-.377-.071-.358-.352.021-.315,0-.632.006-.948,1.163,0,2.326-.012,3.489-.006a.859.859,0,0,1,.855.841C4250.521,9658.155,4250.511,9658.309,4250.508,9658.462Z" fill="#fed102"/>
    <path id="Path_1103" data-name="Path 1103" d="M4246.171,9662.367c0-.325.012-.651,0-.977-.014-.253.086-.324.33-.323,1.337.01,2.675,0,4.012.006,0,.144.012.288.008.432a.858.858,0,0,1-.856.867C4248.5,9662.379,4247.334,9662.37,4246.171,9662.367Z" fill="#fed102"/>
    <path id="Path_1104" data-name="Path 1104" d="M4250.508,9660.2c-1.33,0-2.661-.006-3.991.007-.278,0-.361-.089-.353-.359.015-.516,0-.517.516-.516h3.828Z" fill="#fed102"/>
  </g>
</svg>
