<svg xmlns="http://www.w3.org/2000/svg" width="30.801" height="28" viewBox="0 0 30.801 28">
  <g id="Group_513" data-name="Group 513" transform="translate(-3868.88 -9653.395)">
    <path id="Path_1047" data-name="Path 1047" d="M3868.88,9654.467c.116-.1.123-.264.2-.388a1.437,1.437,0,0,1,1.2-.681c.09-.006.181,0,.271,0q13.753,0,27.506,0a1.438,1.438,0,0,1,1.57,1.108,1.6,1.6,0,0,1,.038.357q0,7.529,0,15.06c0,.04-.006.079-.009.119a1.2,1.2,0,0,1-.093-.217,4.933,4.933,0,0,0-.809-1.755c-.157-.228-.393-.4-.475-.679q0-4.734,0-9.47c0-.231-.044-.31-.3-.34a2.751,2.751,0,0,1-2.464-2.364c-.031-.271-.107-.4-.436-.4q-10.809.018-21.617,0c-.318,0-.415.108-.443.393a2.753,2.753,0,0,1-2.427,2.368c-.315.023-.342.137-.342.4q.012,4.525,0,9.05c0,.06,0,.119,0,.18-.01.141.052.188.192.2a2.787,2.787,0,0,1,2.582,2.448c.016.232.116.325.382.324,2.936-.012,5.873-.008,8.809,0,.124,0,.263-.05.37.063a8.128,8.128,0,0,0-.41,1.378c-.962,0-1.924-.009-2.886-.009-2.836,0-5.673-.021-8.509.012a1.75,1.75,0,0,1-1.915-1.088Z" fill="#099348"/>
    <path id="Path_1048" data-name="Path 1048" d="M3890.594,9681.394a4.868,4.868,0,0,1-4.87-4.21c-.023-.173-.133-.2-.257-.24a4.843,4.843,0,0,1-2.85-2.588,4.23,4.23,0,0,1-.435-2.084.684.684,0,0,0,.753-.576,2.183,2.183,0,0,0,.066-.262,4.177,4.177,0,0,1,3.4-3.317.834.834,0,0,0,.581-.327.267.267,0,0,0,.049-.254c-.034-.1-.13-.073-.205-.076-.13-.007-.26-.008-.39-.012a4.872,4.872,0,0,1,1.311-.027.142.142,0,0,0,.147.026,3.9,3.9,0,0,1,1.156.359c.3.177.488.117.641-.169.087-.051.109-.187.237-.184a1.811,1.811,0,0,1,.548.35c-.132.172-.354.335-.373.519-.023.221.282.3.434.459l.417.48a4.756,4.756,0,0,1,.785,1.562.388.388,0,0,1-.129.059,5.773,5.773,0,0,0-1.093.063c-.153.034-.231-.057-.292-.188a2.444,2.444,0,0,0-.534-.771l-.061,0,0,0-.063-.062,0,0-.062-.062h0a.255.255,0,0,0-.121-.2,3.5,3.5,0,0,0-5.42,4.255,1.791,1.791,0,0,0,.667.817l0,0,.063.069a1.8,1.8,0,0,0,1.079.71,2.884,2.884,0,0,0-.061.682c0,.09-.123.2.016.264a.362.362,0,0,0,.338-.052,1,1,0,0,0,.423-.758,3.779,3.779,0,0,1,.348-1.044,4.258,4.258,0,0,1,3.18-2.333.554.554,0,0,0,.515-.608.571.571,0,0,1,.314-.058,7.2,7.2,0,0,1,1.127.179l.715.252a9.485,9.485,0,0,1,1.147.772,11.03,11.03,0,0,1,1.019,1.21,1.681,1.681,0,0,0,.307.655c.063.231.054.489.249.672-.052.38.107.751.049,1.131a.8.8,0,0,0-.7.474,5.5,5.5,0,0,0-.141.579,4.216,4.216,0,0,1-2.016,2.668,4.94,4.94,0,0,1-1.43.494A.624.624,0,0,0,3890.594,9681.394Zm-2.531-2.51.123.126a.954.954,0,0,0,.379.362,3.488,3.488,0,0,0,2.268.6,3.286,3.286,0,0,0,2.527-1.342,3.424,3.424,0,0,0,.652-2.823,2.789,2.789,0,0,0-.835-1.612l-.06-.068-.049-.051a.137.137,0,0,0-.13-.062h0c-.011-.15-.128-.22-.233-.293a3.641,3.641,0,0,0-1.639-.687,3.417,3.417,0,0,0-3.3,1.35,3.359,3.359,0,0,0-.658,2.624,2.949,2.949,0,0,0,.954,1.881Z" fill="#fcca5c"/>
    <path id="Path_1049" data-name="Path 1049" d="M3898.287,9667.391c.082.278.318.451.475.679a4.933,4.933,0,0,1,.809,1.755,1.2,1.2,0,0,0,.093.217,1.4,1.4,0,0,1-1.425,1.564,2.773,2.773,0,0,0,.038-.722,3.605,3.605,0,0,0-.08-.892,5.251,5.251,0,0,0-1.057-2.281c.059-.09.165-.094.247-.139.247-.139.535-.065.784-.176Z" fill="#0f8944"/>
    <path id="Path_1050" data-name="Path 1050" d="M3890.594,9681.394a.624.624,0,0,1,.577-.7,4.94,4.94,0,0,0,1.43-.494,4.216,4.216,0,0,0,2.016-2.668,5.5,5.5,0,0,1,.141-.579.8.8,0,0,1,.7-.474,4.833,4.833,0,0,1-4.15,4.857c-.021-.027-.041-.025-.06,0l-.177.021c-.059-.09-.1-.061-.127.021Z" fill="#f6b748"/>
    <path id="Path_1051" data-name="Path 1051" d="M3886.435,9667.447c.13,0,.26,0,.39.012.075,0,.171-.027.205.076a.267.267,0,0,1-.049.254.834.834,0,0,1-.581.327,4.177,4.177,0,0,0-3.4,3.317,2.183,2.183,0,0,1-.066.262.684.684,0,0,1-.753.576c0-.221.005-.441.008-.662a8.128,8.128,0,0,1,.41-1.378,5.944,5.944,0,0,1,1.085-1.506c.053-.045.1-.091.159-.135a4.493,4.493,0,0,1,1.971-1.021c.075.006.152.021.207-.051l.013-.013.018,0c.13-.012.275.065.387-.062Z" fill="#fde078"/>
    <path id="Path_1052" data-name="Path 1052" d="M3898.277,9670.884a2.773,2.773,0,0,1-.038.722,4.945,4.945,0,0,1-2.076,3.335,1.7,1.7,0,0,1-.21.11,1.776,1.776,0,0,0-.191-.624,2.089,2.089,0,0,1,.225-.24,3.982,3.982,0,0,0,1.464-2.434C3897.578,9671.154,3897.724,9670.99,3898.277,9670.884Z" fill="#f6b546"/>
    <path id="Path_1053" data-name="Path 1053" d="M3895.762,9674.427a1.776,1.776,0,0,1,.191.624,1.963,1.963,0,0,1-.539.3c-.2-.183-.186-.44-.249-.672a2.267,2.267,0,0,0,.544-.252A.322.322,0,0,0,3895.762,9674.427Z" fill="#f19a22"/>
    <path id="Path_1054" data-name="Path 1054" d="M3890.949,9681.379c.029-.082.068-.111.127-.021A.1.1,0,0,1,3890.949,9681.379Z" fill="#fcca5c"/>
    <path id="Path_1055" data-name="Path 1055" d="M3891.253,9681.337c.019-.027.039-.029.06,0Z" fill="#fcca5c"/>
    <path id="Path_1056" data-name="Path 1056" d="M3883.685,9668.726a5.944,5.944,0,0,0-1.085,1.506c-.107-.112-.246-.062-.37-.062-2.936,0-5.873-.007-8.809,0-.266,0-.366-.092-.382-.324a2.787,2.787,0,0,0-2.582-2.448c-.14-.01-.2-.058-.192-.2,0-.061,0-.12,0-.18q0-4.526,0-9.05c0-.259.027-.372.342-.4a2.753,2.753,0,0,0,2.427-2.368c.028-.284.125-.394.443-.393q10.808.016,21.617,0c.329,0,.4.129.436.4a2.751,2.751,0,0,0,2.464,2.364c.259.03.3.108.3.34q-.011,4.736,0,9.47l-.116.006a1.232,1.232,0,0,0-.135-.158,5.2,5.2,0,0,0-2.268-1.145,3.689,3.689,0,0,0-1.561-.029,4.247,4.247,0,0,0-1.515,0l0,0c-.127.013-.263-.024-.379.062a3.918,3.918,0,0,0-1.515.593,2.717,2.717,0,0,0-.874.732c-.128,0-.15.133-.237.184-.025-.029-.046-.078-.077-.086a3.755,3.755,0,0,0-1.72-.1.142.142,0,0,1-.147-.026,6.242,6.242,0,0,0,2.108-4.367,6.565,6.565,0,0,0-1.459-4.812,5.23,5.23,0,0,0-3.588-2.018,4.915,4.915,0,0,0-3.956,1.295,6.524,6.524,0,0,0-2.084,6.085,6.116,6.116,0,0,0,2.392,4.123A4.471,4.471,0,0,0,3883.685,9668.726Zm-9.211-6.227a1.418,1.418,0,0,0,1.418,1.406,1.4,1.4,0,0,0,1.39-1.408,1.386,1.386,0,0,0-1.392-1.406A1.426,1.426,0,0,0,3874.474,9662.5Zm19.6.018a1.425,1.425,0,0,0-1.4-1.426,1.407,1.407,0,0,0-.038,2.813A1.416,1.416,0,0,0,3894.079,9662.517Z" fill="#49ad4d"/>
    <path id="Path_1057" data-name="Path 1057" d="M3883.685,9668.726a4.471,4.471,0,0,1-2.526-1,6.116,6.116,0,0,1-2.392-4.123,6.524,6.524,0,0,1,2.084-6.085,4.915,4.915,0,0,1,3.956-1.295,5.23,5.23,0,0,1,3.588,2.018,6.565,6.565,0,0,1,1.459,4.812,6.242,6.242,0,0,1-2.108,4.367,4.872,4.872,0,0,0-1.311.027h0c-.129.022-.269-.026-.387.063l-.018,0-.013.013c-.073,0-.15-.015-.207.051a4.493,4.493,0,0,0-1.971,1.021C3883.79,9668.635,3883.738,9668.681,3883.685,9668.726Zm.293-4.147a8.175,8.175,0,0,0-1.253.048.66.66,0,0,0-.549.654.68.68,0,0,0,.545.689,2.084,2.084,0,0,0,.6.035c.172,0,.266.031.309.23a.6.6,0,0,0,.662.445.584.584,0,0,0,.634-.439c.042-.236.19-.255.358-.279a2.09,2.09,0,0,0,.2-4.1,8.364,8.364,0,0,0-1.677-.062,1.617,1.617,0,0,1-.474-.059.674.674,0,0,1-.434-.767.642.642,0,0,1,.581-.556c.2-.015.4,0,.6-.01a13.08,13.08,0,0,0,1.739-.045.651.651,0,0,0,.56-.669.67.67,0,0,0-.561-.672,2.116,2.116,0,0,0-.537-.04c-.184.007-.313,0-.358-.245a.7.7,0,0,0-1.29,0c-.044.216-.155.272-.345.293a2.065,2.065,0,0,0-1.732,2.615,2.039,2.039,0,0,0,2.009,1.543,9.329,9.329,0,0,1,1.558.042.629.629,0,0,1,.539.737.616.616,0,0,1-.655.6C3884.674,9664.586,3884.343,9664.578,3883.978,9664.578Z" fill="#089347"/>
    <path id="Path_1058" data-name="Path 1058" d="M3893.068,9674.072l.049.051.06.068a2.789,2.789,0,0,1,.835,1.612,3.424,3.424,0,0,1-.652,2.823,3.286,3.286,0,0,1-2.527,1.342,3.488,3.488,0,0,1-2.268-.6.954.954,0,0,1-.379-.362.111.111,0,0,0-.123-.126l0,0a.392.392,0,0,0-.064-.224,3.2,3.2,0,0,1-.407-1.241,3.484,3.484,0,0,1,4.151-3.857,6.317,6.317,0,0,1,1.194.447h0C3892.964,9674.067,3893.015,9674.073,3893.068,9674.072Zm-1.814,2.405c0-.46,0-.921,0-1.381a.593.593,0,0,0-.537-.666c-.626-.06-.817.229-.831.588-.036.971-.03,1.942,0,2.913a.687.687,0,1,0,1.373-.071C3891.256,9677.4,3891.255,9676.939,3891.254,9676.478Zm2.526.227c0-.271.039-.5-.276-.528-.292-.028-.381.12-.406.384a2.5,2.5,0,0,1-.6,1.524.325.325,0,0,0,.007.5.475.475,0,0,0,.6-.1A3.234,3.234,0,0,0,3893.78,9676.7Z" fill="#f6b546"/>
    <path id="Path_1059" data-name="Path 1059" d="M3889.69,9669.983a2.444,2.444,0,0,1,.534.771c.061.132.139.223.292.188a5.773,5.773,0,0,1,1.093-.062.388.388,0,0,0,.129-.059,3.2,3.2,0,0,1,.239.963,7.2,7.2,0,0,0-1.127-.179.571.571,0,0,0-.314.058l-.065-.056c-.024-.106-.049-.212-.072-.319-.046-.224-.139-.316-.4-.232a5.6,5.6,0,0,0-1.236.52,9.665,9.665,0,0,0-1,.741c0-.507,0-.966,0-1.424a.638.638,0,0,0-.244-.55.725.725,0,0,0-.764-.06.635.635,0,0,0-.376.63q0,1.351,0,2.7c0,.078-.016.163.061.221a5.222,5.222,0,0,0-.666,1.68,1.8,1.8,0,0,1-1.079-.71l-.063-.069,0,0a.252.252,0,0,0-.018-.087,3.529,3.529,0,0,1,.789-4.63,3.6,3.6,0,0,1,2.977-.626,5.015,5.015,0,0,1,1.126.469h0l.062.062,0,0,.063.063,0,0C3889.648,9670.021,3889.668,9670.025,3889.69,9669.983Z" fill="#f6b546"/>
    <path id="Path_1060" data-name="Path 1060" d="M3895.709,9674.423a2.267,2.267,0,0,1-.544.252,1.681,1.681,0,0,1-.307-.655c.1-.007.155-.086.235-.121.288-.127.283-.288.112-.53a6.539,6.539,0,0,0-1.125-1.221l0-.059c0-.821,0-1.642,0-2.464a1.127,1.127,0,0,0-.038-.264.677.677,0,0,0-1.344.144c0,.5,0,1,0,1.5,0,.07.042.164-.1.216a5.611,5.611,0,0,0-1.03-2.333c-.1-.136.025-.186.091-.235a3.517,3.517,0,0,1,2.93-.683,6.172,6.172,0,0,1,1.237.506h0l.063.063,0,0c.02.044.041.043.063,0a3.332,3.332,0,0,1,.868,2.981,3.126,3.126,0,0,1-1.18,2.049.265.265,0,0,0-.073.406A.711.711,0,0,1,3895.709,9674.423Zm-.18-1.375c.226.043.345-.116.457-.27a3.414,3.414,0,0,0,.608-1.817.321.321,0,0,0-.337-.376.334.334,0,0,0-.371.342,3.085,3.085,0,0,1-.049.5,2.523,2.523,0,0,1-.569,1.071.337.337,0,0,0-.066.389A.279.279,0,0,0,3895.529,9673.048Z" fill="#f6b546"/>
    <path id="Path_1061" data-name="Path 1061" d="M3895.826,9668.478a6.172,6.172,0,0,0-1.237-.506,3.517,3.517,0,0,0-2.93.683c-.066.05-.191.1-.091.235a5.611,5.611,0,0,1,1.03,2.333c.137-.052.1-.146.1-.216,0-.5,0-1,0-1.5a.677.677,0,0,1,1.344-.144,1.127,1.127,0,0,1,.038.264c0,.822,0,1.643,0,2.464-.368-.17-.683-.434-1.057-.6-.326-.143-.321-.155-.323.187,0,.119,0,.239,0,.358l-.715-.252a3.2,3.2,0,0,0-.239-.963,4.756,4.756,0,0,0-.785-1.562c.5-.394.53-.6,0-.9l0-.131a.259.259,0,0,0,.242-.081,3.5,3.5,0,0,1,4.006-.238A1.324,1.324,0,0,1,3895.826,9668.478Z" fill="#f19921"/>
    <path id="Path_1062" data-name="Path 1062" d="M3889.511,9669.862a5.015,5.015,0,0,0-1.126-.469,3.6,3.6,0,0,0-2.977.626,3.529,3.529,0,0,0-.789,4.63.252.252,0,0,1,.018.087,1.791,1.791,0,0,1-.667-.817,3.5,3.5,0,0,1,5.42-4.255A.255.255,0,0,1,3889.511,9669.862Z" fill="#f19a22"/>
    <path id="Path_1063" data-name="Path 1063" d="M3892.939,9674.011a6.317,6.317,0,0,0-1.194-.447,3.484,3.484,0,0,0-4.151,3.857,3.2,3.2,0,0,0,.407,1.241.392.392,0,0,1,.064.224,2.949,2.949,0,0,1-.954-1.881,3.359,3.359,0,0,1,.658-2.624,3.417,3.417,0,0,1,3.3-1.35,3.641,3.641,0,0,1,1.639.687C3892.811,9673.791,3892.928,9673.86,3892.939,9674.011Z" fill="#f19a22"/>
    <path id="Path_1064" data-name="Path 1064" d="M3885.777,9675.514a5.222,5.222,0,0,1,.666-1.68,4.866,4.866,0,0,1,4.028-2.226l.065.056a.554.554,0,0,1-.515.608,4.258,4.258,0,0,0-3.18,2.333,3.779,3.779,0,0,0-.348,1.044,1,1,0,0,1-.423.758.362.362,0,0,1-.338.052c-.139-.062-.012-.174-.016-.264A2.884,2.884,0,0,1,3885.777,9675.514Z" fill="#fee078"/>
    <path id="Path_1065" data-name="Path 1065" d="M3889.927,9667.453a2.717,2.717,0,0,1,.874-.732,3.918,3.918,0,0,1,1.515-.593c.128-.012.27.061.379-.062l0,0c.109,0,.22-.006.328.007s.27-.071.319.077a.34.34,0,0,1-.183.376.861.861,0,0,1-.345.162,4.415,4.415,0,0,0-1.167.347,2.322,2.322,0,0,0-1.053.775l-.116-.011A1.811,1.811,0,0,0,3889.927,9667.453Z" fill="#fde078"/>
    <path id="Path_1066" data-name="Path 1066" d="M3894.08,9672.147a6.539,6.539,0,0,1,1.125,1.221c.171.242.176.4-.112.53-.08.035-.138.114-.235.121a11.03,11.03,0,0,0-1.019-1.21C3894.063,9672.641,3894.047,9672.385,3894.08,9672.147Z" fill="#f19921"/>
    <path id="Path_1067" data-name="Path 1067" d="M3894.08,9672.147c-.033.237-.017.493-.241.662a9.485,9.485,0,0,0-1.147-.772c0-.119,0-.239,0-.358,0-.342,0-.329.323-.187.374.163.689.427,1.057.6Z" fill="#e68825"/>
    <path id="Path_1068" data-name="Path 1068" d="M3890.475,9667.8l.116.011c.058.192.325.2.361.415l0,.131c-.2.086-.237.321-.418.421-.152-.154-.457-.238-.434-.459C3890.121,9668.138,3890.343,9667.975,3890.475,9667.8Z" fill="#f6b546"/>
    <path id="Path_1069" data-name="Path 1069" d="M3887.893,9667.446a3.755,3.755,0,0,1,1.72.1c.031.008.052.057.077.086-.153.286-.34.346-.641.169A3.9,3.9,0,0,0,3887.893,9667.446Z" fill="#099348"/>
    <path id="Path_1070" data-name="Path 1070" d="M3890.536,9668.78c.181-.1.223-.335.418-.421.529.3.5.508,0,.9Z" fill="#e68825"/>
    <path id="Path_1071" data-name="Path 1071" d="M3888.063,9678.884a.111.111,0,0,1,.123.126Z" fill="#f19a22"/>
    <path id="Path_1072" data-name="Path 1072" d="M3893.068,9674.072c-.053,0-.1,0-.13-.062A.137.137,0,0,1,3893.068,9674.072Z" fill="#f19a22"/>
    <path id="Path_1073" data-name="Path 1073" d="M3889.69,9669.983c-.022.042-.042.038-.061,0Z" fill="#f19a22"/>
    <path id="Path_1074" data-name="Path 1074" d="M3889.632,9669.983l-.063-.062Z" fill="#f19a22"/>
    <path id="Path_1075" data-name="Path 1075" d="M3893.177,9674.191l-.06-.068Z" fill="#f19a22"/>
    <path id="Path_1076" data-name="Path 1076" d="M3889.571,9669.923l-.062-.062Z" fill="#f19a22"/>
    <path id="Path_1077" data-name="Path 1077" d="M3884.635,9674.734l.063.069Z" fill="#f19a22"/>
    <path id="Path_1078" data-name="Path 1078" d="M3890.952,9668.229c-.036-.211-.3-.223-.361-.415a2.322,2.322,0,0,1,1.053-.775,4.415,4.415,0,0,1,1.167-.347.861.861,0,0,0,.345-.162.34.34,0,0,0,.183-.376c-.049-.148-.209-.064-.319-.077s-.219,0-.328-.007a4.247,4.247,0,0,1,1.515,0,3.843,3.843,0,0,1,.721.177,5.164,5.164,0,0,1,2.212,1.47,5.251,5.251,0,0,1,1.057,2.281,3.605,3.605,0,0,1,.08.892c-.553.106-.7.271-.826.869a3.982,3.982,0,0,1-1.464,2.434,2.089,2.089,0,0,0-.225.24.322.322,0,0,1-.053,0,.711.711,0,0,0-.147-.448.265.265,0,0,1,.073-.406,3.126,3.126,0,0,0,1.18-2.049,3.33,3.33,0,0,0-.869-2.981h-.062l0,0-.063-.063h0a1.324,1.324,0,0,0-.626-.568,3.5,3.5,0,0,0-4.006.238A.259.259,0,0,1,3890.952,9668.229Z" fill="#fcca5c"/>
    <path id="Path_1079" data-name="Path 1079" d="M3897.14,9667.711a5.164,5.164,0,0,0-2.212-1.47,3.843,3.843,0,0,0-.721-.177,3.689,3.689,0,0,1,1.561.029,5.2,5.2,0,0,1,2.268,1.145,1.232,1.232,0,0,1,.135.158c-.249.11-.537.037-.784.176C3897.3,9667.617,3897.2,9667.621,3897.14,9667.711Z" fill="#099348"/>
    <path id="Path_1080" data-name="Path 1080" d="M3886.053,9667.51c.118-.089.258-.04.387-.062C3886.328,9667.575,3886.183,9667.5,3886.053,9667.51Z" fill="#fcca5c"/>
    <path id="Path_1081" data-name="Path 1081" d="M3885.815,9667.57c.057-.065.134-.052.207-.051C3885.967,9667.592,3885.89,9667.576,3885.815,9667.57Z" fill="#fcca5c"/>
    <path id="Path_1082" data-name="Path 1082" d="M3874.474,9662.5a1.426,1.426,0,0,1,1.416-1.408,1.386,1.386,0,0,1,1.392,1.406,1.4,1.4,0,0,1-1.39,1.408A1.418,1.418,0,0,1,3874.474,9662.5Z" fill="#089347"/>
    <path id="Path_1083" data-name="Path 1083" d="M3894.079,9662.517a1.416,1.416,0,0,1-1.436,1.388,1.407,1.407,0,0,1,.038-2.813A1.425,1.425,0,0,1,3894.079,9662.517Z" fill="#089347"/>
    <path id="Path_1084" data-name="Path 1084" d="M3892.7,9666.066c-.109.122-.251.05-.379.062C3892.432,9666.042,3892.568,9666.079,3892.7,9666.066Z" fill="#fcca5c"/>
    <path id="Path_1085" data-name="Path 1085" d="M3883.978,9664.578c.365,0,.7.008,1.027,0a.616.616,0,0,0,.655-.6.629.629,0,0,0-.539-.737,9.329,9.329,0,0,0-1.558-.042,2.039,2.039,0,0,1-2.009-1.543,2.065,2.065,0,0,1,1.732-2.615c.19-.021.3-.077.345-.293a.7.7,0,0,1,1.29,0c.045.241.174.252.358.245a2.116,2.116,0,0,1,.537.04.67.67,0,0,1,.561.672.651.651,0,0,1-.56.669,13.08,13.08,0,0,1-1.739.045c-.2.008-.4,0-.6.01a.642.642,0,0,0-.581.556.674.674,0,0,0,.434.767,1.617,1.617,0,0,0,.474.059,8.364,8.364,0,0,1,1.677.063,2.09,2.09,0,0,1-.2,4.1c-.168.024-.316.043-.358.279a.584.584,0,0,1-.634.439.6.6,0,0,1-.662-.445c-.043-.2-.137-.233-.309-.23a2.084,2.084,0,0,1-.6-.035.68.68,0,0,1-.545-.689.66.66,0,0,1,.549-.654A8.175,8.175,0,0,1,3883.978,9664.578Z" fill="#89c063"/>
    <path id="Path_1086" data-name="Path 1086" d="M3891.255,9676.478c0,.462,0,.922,0,1.383a.687.687,0,1,1-1.373.071c-.025-.971-.031-1.942,0-2.913.014-.358.205-.647.831-.588a.593.593,0,0,1,.537.666C3891.256,9675.557,3891.254,9676.018,3891.255,9676.478Z" fill="#f19921"/>
    <path id="Path_1087" data-name="Path 1087" d="M3893.78,9676.7a3.234,3.234,0,0,1-.681,1.787.475.475,0,0,1-.6.1.325.325,0,0,1-.007-.5,2.5,2.5,0,0,0,.6-1.524c.025-.264.114-.412.406-.384C3893.819,9676.206,3893.777,9676.434,3893.78,9676.7Z" fill="#fcca5c"/>
    <path id="Path_1088" data-name="Path 1088" d="M3890.471,9671.608a4.866,4.866,0,0,0-4.028,2.226c-.077-.058-.061-.143-.061-.221q0-1.349,0-2.7a.635.635,0,0,1,.376-.63.725.725,0,0,1,.764.06.638.638,0,0,1,.244.55c0,.458,0,.917,0,1.424a9.665,9.665,0,0,1,1-.741,5.6,5.6,0,0,1,1.236-.52c.256-.084.349.009.4.232C3890.422,9671.4,3890.447,9671.5,3890.471,9671.608Z" fill="#f19921"/>
    <path id="Path_1089" data-name="Path 1089" d="M3895.529,9673.048a.279.279,0,0,1-.327-.156.337.337,0,0,1,.066-.389,2.523,2.523,0,0,0,.569-1.071,3.085,3.085,0,0,0,.049-.5.334.334,0,0,1,.371-.342.321.321,0,0,1,.337.376,3.414,3.414,0,0,1-.608,1.817C3895.874,9672.932,3895.755,9673.091,3895.529,9673.048Z" fill="#fcca5c"/>
    <path id="Path_1090" data-name="Path 1090" d="M3895.884,9668.537h.062C3895.925,9668.58,3895.9,9668.581,3895.884,9668.537Z" fill="#f19921"/>
    <path id="Path_1091" data-name="Path 1091" d="M3895.824,9668.477l.063.063Z" fill="#f19921"/>
  </g>
</svg>
