<svg xmlns="http://www.w3.org/2000/svg" style="color: #D8E0E0" width="34.539" height="31.328" viewBox="0 0 34.539 31.328">
  <g id="Group_815" data-name="Group 815" transform="translate(-3828.17 -4715.272)">
    <path id="Path_1306" data-name="Path 1306" d="M3840.6,4746.594c-2.209,0-4.417.006-6.625,0a6.919,6.919,0,0,1-2.644-.5,4.715,4.715,0,0,1-2.994-3.813,9.618,9.618,0,0,1,2.07-8.109,7.946,7.946,0,0,1,5.223-2.7,16.741,16.741,0,0,1,2.251-.133c2.32,0,4.644-.036,6.961.059a8.326,8.326,0,0,1,8.047,7.25,10.291,10.291,0,0,1,.014,3.63,4.963,4.963,0,0,1-4.667,4.233c-1.159.1-2.33.075-3.5.086-1.38.012-2.76,0-4.14,0Zm.021-2.407c2.082,0,4.164,0,6.246,0a9.59,9.59,0,0,0,1.236-.079,2.637,2.637,0,0,0,2.458-2.394c.062-.382.073-.772.1-1.159a6.375,6.375,0,0,0-6.485-6.833c-2.357.031-4.715,0-7.073.01a6.239,6.239,0,0,0-5.863,3.512,6.925,6.925,0,0,0-.487,4.8,2.437,2.437,0,0,0,2.02,1.983,7.631,7.631,0,0,0,1.528.156C3836.405,4744.2,3838.512,4744.187,3840.619,4744.187Z" fill="#575756"/>
    <path id="Path_1307" data-name="Path 1307" d="M3840.608,4728.918a6.823,6.823,0,1,1,6.851-6.723A6.809,6.809,0,0,1,3840.608,4728.918Zm-.02-2.413a4.412,4.412,0,1,0-4.369-4.431A4.413,4.413,0,0,0,3840.588,4726.5Z" fill="#575756"/>
    <path id="Path_1308" data-name="Path 1308" d="M3854.843,4730.99a8.005,8.005,0,0,1,3.255.395,7.006,7.006,0,0,1,4.6,6.856,9.163,9.163,0,0,1-.171,1.9,4.435,4.435,0,0,1-4.689,3.257c-.386-.032-.777-.009-1.165-.018a1.2,1.2,0,1,1-.044-2.4c.363-.019.728,0,1.091-.008a5.652,5.652,0,0,0,.824-.056,1.769,1.769,0,0,0,1.682-1.688,4.914,4.914,0,0,0-1.31-4.474,4.642,4.642,0,0,0-3.58-1.361c-.814.03-1.63.024-2.444.009a1.225,1.225,0,0,1-1.28-1.24,1.209,1.209,0,0,1,1.3-1.164C3853.485,4730.987,3854.049,4730.99,3854.843,4730.99Z" fill="#575756"/>
    <path id="Path_1309" data-name="Path 1309" d="M3852.632,4718.491a5.57,5.57,0,0,1,1.029,11.065,5.372,5.372,0,0,1-4.545-1.3,1.187,1.187,0,0,1-.2-1.759,1.219,1.219,0,0,1,1.776-.054,3.14,3.14,0,0,0,5.169-1.81,3,3,0,0,0-1.115-3.022,3.044,3.044,0,0,0-3.147-.494,2.65,2.65,0,0,1-.643.187,1.16,1.16,0,0,1-1.229-.843,1.183,1.183,0,0,1,.59-1.406A4.874,4.874,0,0,1,3852.632,4718.491Z" fill="#575756"/>
  </g>
</svg>
