<svg xmlns="http://www.w3.org/2000/svg" width="22.254" height="25.351" viewBox="0 0 22.254 25.351">
  <g id="Group_646" data-name="Group 646" transform="translate(-1036.575 -9717.381)">
    <path id="Path_1309" data-name="Path 1309" d="M1046.513,9742.731c-.376-.032-.752-.065-1.128-.1a20.8,20.8,0,0,1-5.15-1,7.733,7.733,0,0,1-2.7-1.451,2.773,2.773,0,0,1-.856-1.276,2.283,2.283,0,0,1,.693-2.383,6.488,6.488,0,0,1,2.352-1.417,17.9,17.9,0,0,1,3.549-.938c.055-.009.108-.026.181-.046-.045-.079-.078-.143-.116-.2-.852-1.331-1.721-2.652-2.555-4a8.156,8.156,0,1,1,14.9-5.976,7.907,7.907,0,0,1-1.063,5.976c-.837,1.343-1.7,2.665-2.555,4-.039.061-.071.124-.116.2.494.1.97.188,1.44.3a11.976,11.976,0,0,1,3.834,1.457,3.349,3.349,0,0,1,1.473,1.673,2.164,2.164,0,0,1-.33,2.08,4.68,4.68,0,0,1-1.788,1.408,14.361,14.361,0,0,1-4.477,1.33c-1,.146-2.013.212-3.021.316-.081.008-.161.025-.241.04Zm1.183-4.726c.072-.107.123-.18.171-.255,1.776-2.784,3.545-5.572,5.332-8.35a6.515,6.515,0,0,0,.431-6.825,6.3,6.3,0,0,0-5.248-3.629,6.413,6.413,0,0,0-6.078,2.729,6.7,6.7,0,0,0-.269,7.467q1.89,2.956,3.781,5.91C1046.436,9736.025,1047.054,9737,1047.7,9738.006Zm0,3.277c.929-.061,1.859-.1,2.785-.184a16.777,16.777,0,0,0,4.706-1.048,4.673,4.673,0,0,0,1.873-1.157.8.8,0,0,0,0-1.227,3.9,3.9,0,0,0-1.283-.907,15.049,15.049,0,0,0-4.607-1.225.281.281,0,0,0-.2.124c-.186.271-.358.553-.535.83q-1.021,1.6-2.042,3.209a.773.773,0,0,1-.824.415.828.828,0,0,1-.564-.44c-.839-1.32-1.682-2.637-2.518-3.959-.088-.138-.162-.214-.35-.172-.345.076-.7.1-1.047.168a11.794,11.794,0,0,0-3.761,1.222,4.735,4.735,0,0,0-1.005.783.751.751,0,0,0,0,1.145,3.072,3.072,0,0,0,.53.477,8.364,8.364,0,0,0,2.565,1.12A24.9,24.9,0,0,0,1047.692,9741.283Z" fill="#575756"/>
    <path id="Path_1310" data-name="Path 1310" d="M1051.409,9725.613a3.709,3.709,0,1,1-3.72-3.7A3.72,3.72,0,0,1,1051.409,9725.613Zm-1.485,0a2.223,2.223,0,1,0-2.214,2.227A2.244,2.244,0,0,0,1049.924,9725.615Z" fill="#575756"/>
  </g>
</svg>
