<svg xmlns="http://www.w3.org/2000/svg" width="34" height="27.424" viewBox="0 0 34 27.424">
  <g id="Group_1736" data-name="Group 1736" transform="translate(-6814.337 -505.163)">
    <path id="Path_3446" data-name="Path 3446" d="M6820.377,532.587a1.655,1.655,0,1,1,0-3.311h21.92a1.651,1.651,0,0,1,1.172.485,1.656,1.656,0,0,1-1.172,2.826Z" fill="#575756"/>
    <path id="Path_3447" data-name="Path 3447" d="M6815.992,523.819a1.655,1.655,0,1,1,0-3.311h1.726l.07-.454a13.843,13.843,0,0,1,11.44-11.439l.453-.071v-1.726a1.667,1.667,0,0,1,.485-1.17,1.656,1.656,0,0,1,2.827,1.17v1.726l.453.071a13.844,13.844,0,0,1,11.44,11.439l.07.454h1.725a1.644,1.644,0,0,1,1.171.485,1.655,1.655,0,0,1-1.17,2.826Zm15.346-12.056a10.325,10.325,0,0,0-10.144,8.091l-.147.654h20.579l-.146-.654A10.323,10.323,0,0,0,6831.338,511.763Z" fill="#575756"/>
  </g>
</svg>
