<svg xmlns="http://www.w3.org/2000/svg" width="54.999" height="55" viewBox="0 0 54.999 55">
  <g id="Group_110" data-name="Group 110" transform="translate(-3148.723 -265.851)">
    <path id="Path_203" data-name="Path 203" d="M3201.851,288.92c-1.878-.209-3.744-.416-5.615-.592-.309-.03-.375-.09-.507-.461-.56-1.483-1.159-2.947-1.836-4.38a.591.591,0,0,1,.1-.811c1.3-1.583,2.589-3.182,3.817-4.714l.763-.95-5.935-6.018-.773.575-5.062,4.1.23.279-.788-.193c-.824-.369-1.661-.717-2.5-1.063-.713-.3-1.429-.592-2.129-.9a.769.769,0,0,1-.339-.387c-.1-.68-.162-1.363-.228-2.045l-.609-5.513H3172l-.316,2.938c-.166,1.525-.332,3.039-.48,4.562-.025.286-.062.361-.394.486-.82.311-1.629.652-2.437.993-.713.3-1.427.6-2.152.883l-.191.376-.021,0-.289-.413c-.55-.4-1.078-.829-1.606-1.263l-4.3-3.47-6,6,4.742,5.842c.168.2.191.283.035.628-.657,1.461-1.284,2.943-1.855,4.457-.134.364-.22.433-.583.467-1.583.144-3.167.319-4.764.5l-2.665.29v8.464l2.082.223c1.8.192,3.572.383,5.347.544.35.031.444.111.594.487.56,1.514,1.189,3,1.855,4.456.145.33.117.419-.056.629-1.317,1.6-2.613,3.219-4.089,5.056l-.554.7,5.948,6.045,2.023-1.63c1.265-1.018,2.539-2.043,3.8-3.081l.548-.068c1.512.688,3.051,1.325,4.593,1.916.32.12.357.2.384.5.152,1.548.8,7.487.8,7.487h8.426l.171-1.106q.338-3.15.645-6.321c.034-.351.067-.438.345-.548.947-.36,1.879-.75,2.814-1.143l1.915-.793.127-.362.014,0,.227.4c.551.4,1.079.837,1.611,1.272l4.283,3.464,6.017-6-1.7-2.107c-.982-1.219-1.979-2.454-2.984-3.673-.184-.228-.191-.308-.051-.617.66-1.445,1.3-2.91,1.837-4.394.159-.434.274-.528.682-.563,1.821-.168,3.645-.366,5.477-.564l1.873-.2v-8.464Zm-8.675,9.088c-.546,1.5-1.194,2.961-1.76,4.2a3.1,3.1,0,0,0,.4,3.406c.875,1.053,1.721,2.106,2.557,3.148l.614.765-2.6,2.588-2.6-2.107c-.5-.408-1-.813-1.518-1.182a3.054,3.054,0,0,0-1.819-.573,3.086,3.086,0,0,0-1.124.2c-.655.265-2.41,1-2.41,1-.758.315-1.516.631-2.286.924a3.121,3.121,0,0,0-2.053,2.792l-.5,5.005H3174.4l-.087-.79c-.157-1.429-.314-2.851-.452-4.282a3.08,3.08,0,0,0-2.1-2.739c-1.537-.581-3.034-1.213-4.433-1.844a3.279,3.279,0,0,0-1.382-.316,3.013,3.013,0,0,0-2,.766c-1.221,1-3.9,3.159-3.9,3.159l-2.569-2.648c1.041-1.286,2.081-2.574,3.131-3.85a3.112,3.112,0,0,0,.429-3.42c-.717-1.562-1.3-2.968-1.789-4.3a3.228,3.228,0,0,0-2.852-2.218c-1.668-.155-3.327-.328-5-.512v-3.655s3.869-.417,4.994-.523a3.163,3.163,0,0,0,2.855-2.205c.486-1.3,1.078-2.714,1.778-4.286a3.079,3.079,0,0,0-.412-3.436l-3.2-3.944,2.588-2.586,2.792,2.251c.436.355.881.717,1.355,1.052a3.206,3.206,0,0,0,1.872.576,3.325,3.325,0,0,0,1.188-.219c.726-.286,1.462-.59,2.432-1.007.7-.295,1.4-.588,2.113-.857a3.064,3.064,0,0,0,2.11-2.754c.146-1.456.539-5.056.539-5.056h3.648l.378,3.565c.058.567.118,1.127.2,1.7a3.372,3.372,0,0,0,1.884,2.445l2.635,1.11c.672.277,1.341.554,2,.851a3.248,3.248,0,0,0,1.349.315,3.2,3.2,0,0,0,2-.758c1.24-1.025,2.478-2.028,3.719-3.025l.192-.155,1.274,1.289,1.359,1.283c-1.013,1.254-2.053,2.542-3.1,3.825a3.216,3.216,0,0,0-.471,3.643c.593,1.251,1.173,2.62,1.765,4.194a3.08,3.08,0,0,0,2.749,2.184c1.422.131,2.832.286,4.249.442l.823.09v3.666l-.154.016c-1.593.167-3.175.335-4.759.485A3.24,3.24,0,0,0,3193.176,298.008Z" fill="#fff"/>
    <path id="Path_204" data-name="Path 204" d="M3176.219,281.9a11.453,11.453,0,0,0-.032,22.9h0a11.453,11.453,0,1,0,.03-22.9Zm0,2.319.035.359a8.744,8.744,0,0,1,8.74,8.807,8.793,8.793,0,0,1-8.8,8.742,8.775,8.775,0,0,1,.021-17.549v-.359Z" fill="#fff"/>
  </g>
</svg>
