<svg xmlns="http://www.w3.org/2000/svg" width="42.852" height="60" viewBox="0 0 42.852 60">
  <g id="unlock" transform="translate(-8476.359 98.255)">
    <path id="Path_3548" data-name="Path 3548" d="M8487.069-72.54a2.143,2.143,0,0,1-2.144-2.143V-85.4a12.857,12.857,0,0,1,12.857-12.858A12.857,12.857,0,0,1,8510.64-85.4V-75.25a2.142,2.142,0,0,1-2.143,2.143,2.144,2.144,0,0,1-2.144-2.143V-85.4a8.571,8.571,0,0,0-8.57-8.572,8.571,8.571,0,0,0-8.571,8.572v10.714A2.144,2.144,0,0,1,8487.069-72.54Z" fill="#575756"/>
    <path id="Path_3549" data-name="Path 3549" d="M8499.928-61.824a2.146,2.146,0,0,1-2.143,2.144,2.147,2.147,0,0,1-2.145-2.144,2.141,2.141,0,0,1,2.145-2.144A2.14,2.14,0,0,1,8499.928-61.824Z" fill="#575756"/>
    <path id="Path_3550" data-name="Path 3550" d="M8512.78-76.829h-30a6.425,6.425,0,0,0-6.421,6.431v25.713a6.425,6.425,0,0,0,6.421,6.43h30a6.433,6.433,0,0,0,6.431-6.43V-70.4A6.433,6.433,0,0,0,8512.78-76.829Zm-12.853,21.047v6.809a2.14,2.14,0,0,1-2.143,2.144,2.141,2.141,0,0,1-2.145-2.144v-6.809a6.431,6.431,0,0,1-4.287-6.082,6.435,6.435,0,0,1,6.451-6.411,6.433,6.433,0,0,1,6.41,6.451A6.435,6.435,0,0,1,8499.928-55.782Z" fill="#575756"/>
  </g>
</svg>
