<svg xmlns="http://www.w3.org/2000/svg" width="30" height="37.767" viewBox="0 0 30 37.767">
  <g id="Group_1740" data-name="Group 1740" transform="translate(-6816.336 -670.466)">
    <path id="Path_3449" data-name="Path 3449" d="M6831.318,708.225c-2.662,0-5.324.008-7.986,0a8.351,8.351,0,0,1-3.188-.6,5.688,5.688,0,0,1-3.609-4.6,11.6,11.6,0,0,1,2.5-9.775,9.578,9.578,0,0,1,6.3-3.257,20.306,20.306,0,0,1,2.713-.16c2.8,0,5.6-.043,8.392.07a10.039,10.039,0,0,1,9.7,8.741,12.407,12.407,0,0,1,.016,4.376,5.983,5.983,0,0,1-5.626,5.1c-1.4.121-2.809.09-4.214.1-1.664.015-3.327,0-4.991,0Zm.025-2.9c2.51,0,5.02.005,7.53-.005a11.576,11.576,0,0,0,1.49-.1,3.178,3.178,0,0,0,2.964-2.885c.074-.46.087-.931.119-1.4a7.685,7.685,0,0,0-7.818-8.236c-2.842.037-5.684,0-8.526.011a7.524,7.524,0,0,0-7.068,4.234,8.347,8.347,0,0,0-.588,5.787,2.94,2.94,0,0,0,2.435,2.391,9.186,9.186,0,0,0,1.842.188C6826.263,705.335,6828.8,705.324,6831.343,705.324Z" fill="#575756"/>
    <path id="Path_3450" data-name="Path 3450" d="M6831.331,686.917a8.226,8.226,0,1,1,8.258-8.1A8.207,8.207,0,0,1,6831.331,686.917Zm-.025-2.908a5.319,5.319,0,1,0-5.267-5.342A5.321,5.321,0,0,0,6831.306,684.009Z" fill="#575756"/>
  </g>
</svg>
