<svg id="Layer_1" enable-background="new 0 0 512 512" height="512" viewBox="0 0 512 512" width="512" xmlns="http://www.w3.org/2000/svg"><path d="m512 154.75c0-24.813-20.187-45-45-45h-80v-32.277c0-26.039-21.184-47.223-47.222-47.223h-167.555c-26.039 0-47.223 21.184-47.223 47.223v32.277h-80c-24.813 0-45 20.187-45 45v70.997c0 13.23 4.308 29.729 20 45.913v165.09c0 24.813 20.187 45 45 45h382c24.813 0 45-20.187 45-45v-165.09c15.685-16.175 20-32.669 20-45.913zm-357-77.277c0-9.497 7.726-17.223 17.223-17.223h167.556c9.496 0 17.222 7.726 17.222 17.223v32.277h-202.001zm-125 77.277c0-8.271 6.729-15 15-15h422c8.271 0 15 6.729 15 15v70.997c0 36.908-70.808 67.027-174 74.918v-13.915c0-8.284-6.716-15-15-15h-74c-8.284 0-15 6.716-15 15v13.91c-103.099-7.901-174-38.099-174-74.913zm248 147v19.5c0 10.752-8.748 19.5-19.5 19.5h-5c-10.752 0-19.5-8.748-19.5-19.5v-19.5zm169 150h-382c-8.271 0-15-6.729-15-15v-143.075c44.664 22.887 91.602 31.712 154.936 37.138 4.469 22.732 24.542 39.937 48.564 39.937h5c24.024 0 44.098-17.207 48.565-39.941 52.317-3.789 99.546-13.392 134.031-27.346 7.755-3.138 14.692-6.416 20.904-9.791v143.078c0 8.271-6.729 15-15 15z"/></svg>