<svg id="icon" height="512" viewBox="0 0 32 32" width="512" xmlns="http://www.w3.org/2000/svg"><path d="m29.461 8.296c.338.485.539 1.071.539 1.704v16c0 1.65-1.35 3-3 3h-22c-1.65 0-3-1.35-3-3v-16c0-.633.201-1.219.539-1.704l4.036 6.368c.558.836 1.491 1.336 2.496 1.336h3.114c.414 1.161 1.514 2 2.816 2h2c1.302 0 2.402-.839 2.816-2h3.114c1.005 0 1.938-.5 2.509-1.355l4.023-6.348zm-14.461 5.704c-.551 0-1 .449-1 1s.449 1 1 1h2c.551 0 1-.449 1-1s-.449-1-1-1zm-10.831-6.867c.266-.078.541-.133.831-.133h5v-1c0-1.65 1.35-3 3-3h6c1.65 0 3 1.35 3 3v1h5c.29 0 .565.055.831.133l-4.069 6.422c-.186.279-.497.445-.832.445h-3.114c-.414-1.161-1.514-2-2.816-2h-2c-1.302 0-2.402.839-2.816 2h-3.114c-.335 0-.646-.167-.819-.426zm7.831-.133h8v-1c0-.55-.45-1-1-1h-6c-.55 0-1 .45-1 1z"/></svg>