<svg id="Capa_1" enable-background="new 0 0 512 512" height="512" viewBox="0 0 512 512" width="512" xmlns="http://www.w3.org/2000/svg"><g><g><path d="m216 432h80c11.046 0 20-8.954 20-20s-8.954-20-20-20h-80c-11.046 0-20 8.954-20 20s8.954 20 20 20zm276-312c11.046 0 20-8.954 20-20v-80c0-11.046-8.954-20-20-20h-156c-11.046 0-20 8.954-20 20v80c0 11.046 8.954 20 20 20h60v40h-60c-11.046 0-20 8.954-20 20s8.954 20 20 20h100v112h-360v-112h40v60c0 11.046 8.954 20 20 20h120c11.046 0 20-8.954 20-20v-200c0-33.084-26.916-60-60-60h-120c-33.084 0-60 26.916-60 60v40c0 11.046 8.954 20 20 20h60v40h-60c-11.046 0-20 8.954-20 20v132h-16c-11.046 0-20 8.954-20 20v160c0 11.046 8.954 20 20 20h472c11.046 0 20-8.954 20-20v-160c0-11.046-8.954-20-20-20h-16v-132c0-11.046-8.954-20-20-20h-20v-40zm-276-80c11.028 0 20 8.972 20 20v180h-80v-180c0-7.011-1.22-13.74-3.44-20zm-140 40v-20c0-11.028 8.972-20 20-20s20 8.972 20 20v20zm396 272v120h-432v-120zm-116-272v-40h116v40z"/></g></g></svg>