<?xml version="1.0"?>
<svg xmlns="http://www.w3.org/2000/svg" id="icons" viewBox="0 0 48 48" width="512" height="512"><path d="M40,20H34V11c0-2.77-2.18-6-5-6H8a5,5,0,0,0-5,5V31a1,1,0,0,0,.62.92,1,1,0,0,0,.93-.09l4.82-3.21A3.66,3.66,0,0,1,11.42,28H14v9a5,5,0,0,0,5,5H36.58a3.66,3.66,0,0,1,2.05.62l4.82,3.21A1,1,0,0,0,45,45V25A5,5,0,0,0,40,20ZM8.26,27,5,29.13V10A3,3,0,0,1,8,7H29c1.55,0,3,2.25,3,4V23a3,3,0,0,1-3,3H11.42A5.65,5.65,0,0,0,8.26,27ZM43,43.13,39.74,41a5.65,5.65,0,0,0-3.16-1H19a3,3,0,0,1-3-3V28H37a1,1,0,0,0,0-2H33a4.92,4.92,0,0,0,1-3V22h6a3,3,0,0,1,3,3Z"/><path d="M11,14H26a1,1,0,0,0,0-2H11a1,1,0,0,0,0,2Z"/><path d="M11,18H26a1,1,0,0,0,0-2H11a1,1,0,0,0,0,2Z"/><path d="M20,21a1,1,0,0,0-1-1H11a1,1,0,0,0,0,2h8A1,1,0,0,0,20,21Z"/><path d="M37,30H22a1,1,0,0,0,0,2H37a1,1,0,0,0,0-2Z"/><path d="M29,34H22a1,1,0,0,0,0,2h7a1,1,0,0,0,0-2Z"/></svg>
