<svg fill="none" height="24" viewBox="0 0 24 24" width="24" xmlns="http://www.w3.org/2000/svg"><path clip-rule="evenodd" d="m9.81934.197831c.70786-.1300248 1.43676-.197831 2.18066-.197831 6.6274 0 12 5.37258 12 12 0 6.6274-5.3726 12-12 12-.7439 0-1.4728-.0678-2.18066-.1978-.5432-.0998-.90266-.621-.80289-1.1642.09978-.5432.62102-.9027 1.16425-.8029.5892.1082 1.1972.1649 1.8193.1649 5.5228 0 10-4.4772 10-10 0-5.52285-4.4772-10-10-10-.6221 0-1.2301.05669-1.8193.16492-.54323.09978-1.06447-.25968-1.16425-.80288-.09977-.543198.25969-1.064432.80289-1.164209zm-2.45373 1.773049c.27654.47806.11318 1.08979-.36488 1.36633-1.3642.78914-2.52525 1.8917-3.38413 3.20896-.30164.46264-.92121.59315-1.38384.2915-.46264-.30164-.59314-.92121-.2915-1.38384 1.02982-1.57945 2.42146-2.90114 4.05801-3.84783.47806-.27655 1.08979-.11318 1.36634.36488zm10.32129 6.30237c.4014.37936.4192 1.01227.0399 1.41365l-6.4331 6.8063c-.6387.6757-1.69874.6757-2.3374 0l-2.68305-2.8387c-.37937-.4014-.36152-1.0343.03985-1.4137.40138-.3793 1.03429-.3615 1.41365.0399l2.39825 2.5374 6.1482-6.505c.3794-.40137 1.0123-.41922 1.4137-.03985zm-7.2771 6.84615-.0005-.0005zm-8.8981-6.59344c.53795.12502.8727.66246.74768 1.20041-.16953.72943-.25938 1.49043-.25938 2.27363s.08985 1.5442.25938 2.2736c.12502.538-.20973 1.0754-.74768 1.2004-.537944.1251-1.075386-.2097-1.200407-.7476-.203781-.8769-.311293-1.7897-.311293-2.7264s.107512-1.8495.311293-2.72637c.125021-.53795.662463-.87269 1.200407-.74767zm.72106 8.63634c.46263-.3016 1.0822-.1711 1.38384.2915.85888 1.3173 2.01993 2.4198 3.38413 3.209.47806.2765.64142.8883.36488 1.3663-.27655.4781-.88828.6414-1.36634.3649-1.63655-.9467-3.02819-2.2684-4.05801-3.8478-.30164-.4627-.17114-1.0822.2915-1.3839z" fill="rgb(0,0,0)" fill-rule="evenodd"/></svg>