<?xml version="1.0" encoding="iso-8859-1"?>
<!-- Generator: Adobe Illustrator 26.5.3, SVG Export Plug-In . SVG Version: 6.00 Build 0)  -->
<svg version="1.1" id="Capa_1" xmlns="http://www.w3.org/2000/svg" xmlns:xlink="http://www.w3.org/1999/xlink" x="0px" y="0px"
	 viewBox="0 0 512 512" style="enable-background:new 0 0 512 512;" xml:space="preserve">
<g>
	<g>
		<path d="M355.781,327.07v63.149C355.781,445.239,311.02,490,256,490s-99.781-44.761-99.781-99.781V327.07h-22v63.149
			C134.219,457.369,188.85,512,256,512s121.781-54.631,121.781-121.781V327.07H355.781z"/>
	</g>
	<g>
		<path style="fill:#33CCCC;" d="M263.631,424.765c-2.059,1.984-4.77,3.078-7.631,3.078s-5.572-1.093-7.631-3.078
			c-4.374-4.216-11.338-4.088-15.554,0.286s-4.088,11.338,0.286,15.554c6.181,5.957,14.312,9.238,22.898,9.238
			s16.718-3.281,22.898-9.238c4.374-4.216,4.502-11.179,0.286-15.554C274.969,420.677,268.007,420.549,263.631,424.765z"/>
		<path style="fill:#33CCCC;" d="M364.246,42.59c-7.36,0-14.651,0.805-21.769,2.382C323.325,17.792,291.703,0,256,0
			s-67.325,17.792-86.477,44.971c-7.118-1.577-14.409-2.382-21.769-2.382c-55.269,0-100.233,44.964-100.233,100.233
			c0,47.426,33.109,87.262,77.427,97.614v83.633c0,6.075,4.925,11,11,11h240.105c6.075,0,11-4.925,11-11v-83.633
			c44.317-10.352,77.427-50.188,77.427-97.614C464.479,87.554,419.515,42.59,364.246,42.59z M365.053,313.07H146.947v-39.322
			h218.105V313.07z M364.246,221.057c-6.075,0-11,4.925-11,11s4.925,11,11,11c0.27,0,0.538-0.008,0.807-0.01v8.702H146.947v-8.702
			c0.269,0.002,0.537,0.01,0.807,0.01c6.075,0,11-4.925,11-11s-4.925-11-11-11c-43.138,0-78.233-35.095-78.233-78.233
			s35.096-78.233,78.233-78.233c3.548,0,7.073,0.249,10.557,0.718c-5.174,12.458-8.037,26.109-8.037,40.417c0,6.075,4.925,11,11,11
			s11-4.925,11-11C172.274,59.559,209.834,22,256,22s83.726,37.559,83.726,83.726c0,6.075,4.925,11,11,11s11-4.925,11-11
			c0-14.308-2.863-27.959-8.037-40.417c3.485-0.469,7.009-0.718,10.557-0.718c43.138,0,78.233,35.095,78.233,78.233
			S407.384,221.057,364.246,221.057z"/>
	</g>
</g>
<g>
</g>
<g>
</g>
<g>
</g>
<g>
</g>
<g>
</g>
<g>
</g>
<g>
</g>
<g>
</g>
<g>
</g>
<g>
</g>
<g>
</g>
<g>
</g>
<g>
</g>
<g>
</g>
<g>
</g>
</svg>
