<svg id="icons" height="512" viewBox="0 0 60 60" width="512" xmlns="http://www.w3.org/2000/svg"><path d="m59 30a28.987 28.987 0 1 1 -8.49-20.51l1.84-1.84a1.39 1.39 0 0 1 2.37.9l.43 6.95a1.383 1.383 0 0 1 -1.46 1.47l-6.95-.43a1.394 1.394 0 0 1 -.91-2.37l1.84-1.83a24.982 24.982 0 1 0 7.33 17.66 2 2 0 0 1 4 0z" fill="#6ac579"/><circle cx="30" cy="30" fill="#e9f2f2" r="17"/><g fill="#37404f"><path d="m34 33a1 1 0 0 1 -.446-.1l-4-2a1 1 0 0 1 -.554-.9v-8a1 1 0 0 1 2 0v7.382l3.447 1.723a1 1 0 0 1 -.447 1.895z"/><path d="m30 19a1 1 0 0 1 -1-1v-1a1 1 0 0 1 2 0v1a1 1 0 0 1 -1 1z"/><path d="m21.515 22.515a1 1 0 0 1 -.707-.293l-.707-.707a1 1 0 0 1 1.414-1.415l.707.707a1 1 0 0 1 -.707 1.707z"/><path d="m18 31h-1a1 1 0 0 1 0-2h1a1 1 0 0 1 0 2z"/><path d="m20.808 40.192a1 1 0 0 1 -.707-1.707l.707-.707a1 1 0 0 1 1.414 1.414l-.707.707a1 1 0 0 1 -.707.293z"/><path d="m30 44a1 1 0 0 1 -1-1v-1a1 1 0 0 1 2 0v1a1 1 0 0 1 -1 1z"/><path d="m39.192 40.192a1 1 0 0 1 -.707-.293l-.707-.707a1 1 0 0 1 1.414-1.414l.707.707a1 1 0 0 1 -.707 1.707z"/><path d="m43 31h-1a1 1 0 0 1 0-2h1a1 1 0 0 1 0 2z"/><path d="m38.485 22.515a1 1 0 0 1 -.707-1.707l.707-.707a1 1 0 0 1 1.415 1.414l-.707.707a1 1 0 0 1 -.708.293z"/></g><path d="m30 48a18 18 0 1 1 18-18 18.021 18.021 0 0 1 -18 18zm0-34a16 16 0 1 0 16 16 16.019 16.019 0 0 0 -16-16z" fill="#2970e2"/></svg>