<svg enable-background="new 0 0 64 64" viewBox="0 0 64 64" xmlns="http://www.w3.org/2000/svg"><g id="Layer_1"/><g id="TV"/><g id="Parking_Area"/><g id="Bathup"/><g id="Do_not_disturb"/><g id="Bar"/><g id="Bed"/><g id="Bell_Boy"/><g id="Stationary_Bike"/><g id="Payment"/><g id="Menu_Book"/><g id="Smartlock"/><g id="Spa"/><g id="Lugagge_Cart"/><g id="Lift"/><g id="Desk_Bell"><path d="m60.415 59.586c-1.745-1.745-3.079-3.902-3.857-6.239l-.66-1.98c-.273-.816-1.037-1.367-1.898-1.367h-20v-3h20 3c1.104 0 2-.896 2-2s-.896-2-2-2h-1v-1c0-12.56-9.699-22.89-22-23.91v-2.09h3c1.104 0 2-.896 2-2s-.896-2-2-2h-10c-1.104 0-2 .896-2 2s.896 2 2 2h3v2.092c-.241.02-.478.033-.725.061-12.129 1.37-21.275 11.622-21.275 23.847v1h-1c-1.104 0-2 .896-2 2s.896 2 2 2h3 20v3h-20c-.861 0-1.625.551-1.897 1.367l-.66 1.98c-.779 2.337-2.112 4.494-3.856 6.238-.572.572-.743 1.432-.434 2.179.309.749 1.038 1.236 1.847 1.236h54c.809 0 1.538-.487 1.848-1.234.309-.748.138-1.608-.433-2.18zm-8.415-17.586v1h-3v-1c0-8.202-4.506-15.344-11.166-19.127 8.19 2.504 14.166 10.129 14.166 19.127zm.284 17c-1.126-1.517-2.016-3.203-2.617-5h2.891l.204.612c.513 1.539 1.218 3.016 2.09 4.388z"/><g><path d="m32 1c-1.104 0-2 .896-2 2v4c0 1.104.896 2 2 2s2-.896 2-2v-4c0-1.104-.896-2-2-2z"/><path d="m17.732 6.287c-.552-.956-1.775-1.286-2.732-.732-.957.552-1.284 1.775-.732 2.732l2 3.464c.371.642 1.042 1 1.734 1 .339 0 .683-.086.998-.269.957-.552 1.284-1.775.732-2.732z"/><path d="m8.752 19.268-3.464-2c-.956-.553-2.18-.225-2.731.732-.552.957-.225 2.18.732 2.732l3.464 2c.314.182.658.268.997.268.691 0 1.364-.359 1.734-1 .553-.957.225-2.18-.732-2.732z"/><path d="m49 5.555c-.956-.554-2.18-.225-2.732.732l-2 3.464c-.552.957-.225 2.18.732 2.732.315.182.659.269.998.269.691 0 1.364-.359 1.734-1l2-3.464c.552-.957.224-2.181-.732-2.733z"/><path d="m61.443 18c-.553-.957-1.775-1.285-2.732-.732l-3.464 2c-.957.552-1.284 1.775-.732 2.732.371.642 1.042 1 1.734 1 .339 0 .683-.086.998-.269l3.464-2c.957-.552 1.285-1.775.732-2.731z"/></g></g><g id="Laundry"/><g id="Food_Services"/><g id="Food_Tray"/><g id="Double_Bed"/><g id="Hotel"/></svg>