<svg id="Layer_1" height="512" viewBox="0 0 512 512" width="512" xmlns="http://www.w3.org/2000/svg" data-name="Layer 1"><path d="m181.2 32a32 32 0 0 1 -32 32h-85.2v85.2a32 32 0 0 1 -64 0v-117.2a32 32 0 0 1 32-32h117.2a32 32 0 0 1 32 32zm-32 416h-85.2v-85.2a32 32 0 0 0 -64 0v117.2a32 32 0 0 0 32 32h117.2a32 32 0 1 0 0-64zm330.8-117.2a32 32 0 0 0 -32 32v85.2h-85.2a32 32 0 1 0 0 64h117.2a32 32 0 0 0 32-32v-117.2a32 32 0 0 0 -32-32zm0-330.8h-117.2a32 32 0 0 0 0 64h85.2v85.2a32 32 0 1 0 64 0v-117.2a32 32 0 0 0 -32-32z"/></svg>