<?xml version="1.0" encoding="UTF-8"?>
<!-- Generator: Adobe Illustrator 27.2.0, SVG Export Plug-In . SVG Version: 6.00 Build 0)  -->
<svg xmlns="http://www.w3.org/2000/svg" xmlns:xlink="http://www.w3.org/1999/xlink" version="1.1" id="Capa_1" x="0px" y="0px" viewBox="0 0 511.974 511.974" style="enable-background:new 0 0 511.974 511.974;" xml:space="preserve" width="512" height="512">
<g>
	<path style="fill:#33CCCC;" d="M435.776,119.892c-28.793-28.212-65.372-46.18-105.114-52.052   c7.929-19.586-7.639-42.387-28.875-41.955c-21.196-0.429-36.768,22.297-28.906,41.873   c-93.265,12.108-162.841,93.055-161.333,188.509c-0.001,6.074,4.923,10.999,10.999,10.999c6.075,0,11-4.925,11-11   c0-96.086,72.328-168.544,168.241-168.544c94.341,0,168.241,73.809,168.241,168.034c0,6.075,4.925,11,11,11c6.075,0,11-4.925,11-11   C492.028,203.685,472.051,155.434,435.776,119.892z M301.787,47.885c4.918,0,8.919,4.001,8.919,8.918   c-0.448,11.815-17.39,11.812-17.837,0C292.869,51.886,296.87,47.885,301.787,47.885z"/>
	<path style="fill:#33CCCC;" d="M62.763,187.316H36.868c-14.579-0.541-14.568-21.464,0-22h25.895   C77.342,165.857,77.331,186.781,62.763,187.316z"/>
	<path style="fill:#33CCCC;" d="M62.763,227.153H23.927c-14.579-0.541-14.568-21.464,0-22h38.836   C77.342,205.694,77.331,226.618,62.763,227.153z"/>
	<path style="fill:#33CCCC;" d="M62.763,266.99H10.974c-14.579-0.541-14.568-21.464,0-22h51.789   C77.342,245.531,77.331,266.454,62.763,266.99z"/>
	<path d="M118.716,486.095H25.673c-9.094,0-17.293-4.708-21.933-12.596c-4.985-8.476-4.988-19.307-0.006-28.265l26.533-46.86   c35.548-67.713,96.396-74.747,160.841-62.603c14.228,2.14,27.669,4.158,37.296,3.271c4.708-0.436,21.918-2.343,38.563-4.188   c17.557-1.945,34.14-3.783,39.057-4.237c7.682-0.709,15.213,1.659,21.207,6.668c4.78,3.996,8.13,9.269,9.724,15.195l82.378-19.875   c0.064-0.015,0.128-0.03,0.192-0.044c42.825-9.47,55.485,45.154,19.309,58.307c-0.036,0.013-0.072,0.026-0.108,0.038   c-35.623,13.596-100.405,41.311-140.318,56.033c-37.93,14.221-50.574,16.23-90.191,14.341l-51.903-2.475l-7.09,11.268   C141.215,482.8,134.943,486.095,118.716,486.095z M140.735,352.823c-33.548,0-66.462,10.782-91.193,56.157   c-0.028,0.052-0.057,0.104-0.086,0.156L22.92,455.999c-1.778,3.197-0.616,5.667-0.217,6.346c1.029,1.75,2.509,1.781,2.969,1.75   h93.043c5.57,0,7.483-0.395,8.108-0.726c0.622-0.33,1.894-2.017,3.78-5.013l10.51-16.704c2.113-3.358,5.868-5.326,9.834-5.129   l58.317,2.781c36.505,1.74,46.395,0.165,81.419-12.966c28.806-10.801,64.995-25.614,94.073-37.516   c21.971-8.993,39.336-16.101,46.643-18.662c6.863-2.503,7.284-8.029,6.448-10.905c-1.4-4.822-6.425-6.778-13.461-5.239   l-91.541,22.086c-3.527,4.811-9.229,9.472-18.169,13.342c-25.63,11.097-52.98,20.432-75.035,25.61   c-5.92,1.391-11.835-2.28-13.224-8.194c-1.389-5.915,2.28-11.835,8.194-13.223c20.841-4.894,46.837-13.781,71.324-24.382   c10.472-4.534,10.156-8.166,10.038-9.534c-0.19-2.205-1.204-4.178-2.853-5.557c-1.467-1.226-3.268-1.814-5.075-1.642   c-9.712,0.901-68.28,7.569-77.618,8.424c-12.289,1.137-27.009-1.078-42.593-3.421C172.529,355.225,156.558,352.823,140.735,352.823   z"/>
	<path d="M481.056,306.827H122.519c-17.048,0-30.918-13.87-30.918-30.918V255.99c0-6.075,4.925-11,11-11h398.373   c6.075,0,11,4.925,11,11v19.919C511.974,292.957,498.104,306.827,481.056,306.827z M113.601,266.99v8.919   c0,4.917,4.001,8.918,8.918,8.918h358.537c4.917,0,8.918-4.001,8.918-8.918v-8.919H113.601z"/>
</g>















</svg>
