<svg id="&#x421;&#x43B;&#x43E;&#x439;_1" enable-background="new 0 0 4000 4000" viewBox="0 0 4000 4000" xmlns="http://www.w3.org/2000/svg"><g><path d="m2000 790c-667.197 0-1210 542.803-1210 1210s542.803 1210 1210 1210 1210-542.803 1210-1210-542.803-1210-1210-1210zm983.501 1100h-435.757c-12.192-300.244-74.39-598.877-182.241-809.209 332.685 132.773 577.017 440.43 617.998 809.209zm-983.501 1100c-126.221 0-305.938-339.238-327.798-880h655.596c-21.86 540.762-201.577 880-327.798 880zm-327.798-1100c21.86-540.762 201.577-880 327.798-880s305.938 339.238 327.798 880zm-37.705-809.209c-107.852 210.332-170.049 508.965-182.241 809.209h-435.757c40.981-368.779 285.313-676.436 617.998-809.209zm-617.998 1029.209h435.757c12.192 300.244 74.39 598.877 182.241 809.209-332.685-132.773-577.017-440.43-617.998-809.209zm1349.004 809.209c107.852-210.332 170.049-508.965 182.241-809.209h435.757c-40.981 368.779-285.313 676.436-617.998 809.209z" fill="#1e2959"/></g></svg>