<svg id="Icon" height="512" viewBox="0 0 64 64" width="512" xmlns="http://www.w3.org/2000/svg" xmlns:xlink="http://www.w3.org/1999/xlink"><linearGradient id="linear-gradient" gradientUnits="userSpaceOnUse" x1="2.188" x2="61.85" y1="41" y2="41"><stop offset="0" stop-color="#d32e2e"/><stop offset="1" stop-color="#f47c20"/></linearGradient><linearGradient id="linear-gradient-2" xlink:href="#linear-gradient" y1="27.173" y2="27.173"/><linearGradient id="linear-gradient-3" xlink:href="#linear-gradient" y1="28.679" y2="28.679"/><g fill="url(#linear-gradient)"><path d="m23.06738 20c-11.5791 0-21 9.42041-21 21s9.4209 21 21 21 21-9.42041 21-21-9.4209-21-21-21zm0 40c-10.47656 0-19-8.52344-19-19s8.52344-19 19-19 19 8.52344 19 19-8.52344 19-19 19z"/><path d="m23.06738 25c-8.82227 0-16 7.17773-16 16s7.17773 16 16 16 16-7.17773 16-16-7.17773-16-16-16zm0 30c-7.71973 0-14-6.28027-14-14s6.28027-14 14-14 14 6.28027 14 14-6.28027 14-14 14z"/><path d="m23.06738 34.17041c1.60645 0 2.91406 1.30762 2.91406 2.91504 0 .55225.44727 1 1 1s1-.44775 1-1c0-2.36725-1.68237-4.34821-3.91406-4.81165v-1.2738c0-.55225-.44727-1-1-1s-1 .44775-1 1v1.2738c-2.23199.46344-3.91504 2.4444-3.91504 4.81165 0 2.70996 2.20508 4.91455 4.91504 4.91455 1.60645 0 2.91406 1.30762 2.91406 2.91455 0 1.60742-1.30762 2.91504-2.91406 2.91504-1.60742 0-2.91504-1.30762-2.91504-2.91504 0-.55225-.44727-1-1-1s-1 .44775-1 1c0 2.36725 1.68304 4.34821 3.91504 4.81165v1.2738c0 .55225.44727 1 1 1s1-.44775 1-1v-1.2738c2.23169-.46344 3.91406-2.4444 3.91406-4.81165 0-2.70996-2.2041-4.91455-4.91406-4.91455-1.60742 0-2.91504-1.30762-2.91504-2.91455 0-1.60742 1.30762-2.91504 2.91504-2.91504z"/></g><path d="m61.87402 28.60742c-.2959-5.20166-2.44434-14.34082-4.12207-14.52246-.50781-.05615-.9873.29053-1.08789.79932-.44629 2.24365-1.43359 3.82959-2.93652 4.71338-2.06738 1.21533-4.66016.87305-5.85449.61768-.77734-13.03027-13.22168-18.09473-13.34961-18.14551-.36523-.14453-.7832-.05908-1.06445.21484-.28223.27441-.37598.68994-.24121 1.05957.09472.26221 2.28418 6.4834-2.37109 11.53223-.7793.84326-1.41797 1.70508-1.90137 2.56201-.27148.48145-.10059 1.09131.37988 1.3623.48145.27002 1.09082.10059 1.3623-.37988.40724-.72217.95509-1.4585 1.62892-2.18848 3.73633-4.05225 3.73145-8.72266 3.30762-11.39795 3.3418 1.875 10.05566 6.80127 10.28125 16.18945.01074.42383.28711.79541.68945.92676.18652.06055 4.58203 1.4585 8.13379-.62158 1.31836-.77197 2.33397-1.90576 3.03809-3.38672 1.43848 4.32568 3.72852 14.00146.56445 21.77783-2.24707 5.52441-6.8584 9.10693-13.70605 10.64893-.53906.12109-.87695.65625-.75586 1.19531.11895.54287.67061.87776 1.19531.75586 14.81836-3.33643 17.32031-14.73682 16.80957-23.71289z" fill="url(#linear-gradient-2)"/><path d="m39.08789 9.95605c-.27637-.23682-.66211-.3042-1.00195-.17578-.34082.12842-.58496.43262-.6377.79346-.3291 2.28613-2.05273 5.35156-4.61133 8.2002-.36914.41064-.33496 1.04297.07617 1.41211.41016.36865 1.04297.33691 1.41211-.07617 1.12988-1.25781 3.55566-4.20215 4.64063-7.37842 2.0752 2.69189 3.32715 7.12842 3.01172 11.11426-.0332.42529.20703.8252.59766.99561 3.00098 1.30664 8.8584 2.45459 12.99707.58203 1.75488 8.24463-.40332 17.74316-9.44336 20.25488-.53223.14795-.84375.69873-.69629 1.23096.1464.537.71371.84477 1.23145.6958 10.33008-2.87012 13.12207-14.22021 10.54199-23.94873-.08301-.31299-.3125-.56641-.61621-.68018-.30176-.11328-.64258-.07324-.91113.1084-3.06445 2.07373-8.41895 1.39551-11.66504.18115.19141-5.15381-1.82129-10.65479-4.92578-13.30957z" fill="url(#linear-gradient-3)"/></svg>