<?xml version="1.0" encoding="iso-8859-1"?>
<!-- Generator: Adobe Illustrator 27.2.0, SVG Export Plug-In . SVG Version: 6.00 Build 0)  -->
<svg version="1.1" id="Capa_1" xmlns="http://www.w3.org/2000/svg" xmlns:xlink="http://www.w3.org/1999/xlink" x="0px" y="0px"
	 viewBox="0 0 509.936 509.936" style="enable-background:new 0 0 509.936 509.936;" xml:space="preserve">
<g id="Ring_Bell_00000078767614308640492270000009775052066026340012_">
	<g>
		<polygon style="fill:#85B3F7;" points="408.506,320.309 408.506,374.212 101.494,374.212 101.494,319.418 		"/>
	</g>
	<g>
		<path style="fill:#FFCC43;" d="M442.29,315.984C430.836,73.097,79.341,74.089,67.71,315.988L442.29,315.984z"/>
	</g>
	<g>
		<path style="fill:#FF9000;" d="M216.47,316.125H68.71c0-82.89,55.8-152.91,131.63-175.4
			C165.21,195.057,173.072,268.079,216.47,316.125z"/>
	</g>
	<g>
		<path style="fill:#FF9000;" d="M10,437.98c33.687,0,60.996-27.309,60.996-60.996h368.008c0,33.687,27.309,60.996,60.996,60.996H10
			z"/>
	</g>
</g>
<g id="Ring_Bell">
	<g>
		<path style="fill:#FFFFFF;" d="M148.355,264.995c-7.501,0.141-12.577-8.54-8.641-15.019
			c17.573-30.306,47.565-52.831,82.287-61.801c12.926-2.848,17.726,15.564,5.003,19.363c-29.574,7.641-55.083,26.765-69.988,52.471
			C155.161,263.207,151.804,264.995,148.355,264.995z"/>
	</g>
	<g>
		<path style="fill:#FFCC43;" d="M408.506,112.503c-8.742,0.093-13.388-10.851-7.071-17.071c0,0,30.498-30.498,30.498-30.498
			c9.704-9.016,23.17,4.417,14.142,14.143c0,0-30.498,30.498-30.498,30.498C413.624,111.527,411.065,112.503,408.506,112.503z"/>
	</g>
	<g>
		<path style="fill:#FFCC43;" d="M500,203.996h-30.498c-5.522,0-10-4.478-10-10s4.478-10,10-10H500
			C513.242,184.483,513.254,203.505,500,203.996z"/>
	</g>
	<g>
		<path style="fill:#FFCC43;" d="M101.494,112.503c-2.56,0-5.118-0.977-7.071-2.929L63.925,79.077
			c-9.017-9.702,4.416-23.167,14.143-14.142c0,0,30.497,30.498,30.497,30.498C114.875,101.643,110.243,112.601,101.494,112.503z"/>
	</g>
	<g>
		<path style="fill:#FFCC43;" d="M40.498,203.996H10c-5.523,0-10-4.478-10-10s4.477-10,10-10h30.498
			C53.74,184.483,53.752,203.505,40.498,203.996z"/>
	</g>
	<path style="fill:#002678;" d="M500,427.98c-28.119,0-50.996-22.876-50.996-50.995c0-5.522-4.478-10-10-10h-20.498v-40.996h50.996
		c13.247-0.489,13.25-19.51,0-20c0,0-20.756,0-20.756,0c-5.079-98.49-84.73-177.709-183.746-182.735V82.005h20.498
		c5.522,0,10-4.478,10-10s-4.478-10-10-10h-60.996c-5.523,0-10,4.478-10,10s4.477,10,10,10H245v41.249
		c-99.015,5.026-178.667,84.245-183.746,182.735H40.498c-13.247,0.489-13.25,19.511,0,20c0,0,50.995,0,50.995,0v40.996
		c0,0-20.498,0-20.498,0c-5.523,0-10,4.478-10,10c0,28.119-22.877,50.995-50.996,50.995c-13.134,0.432-13.352,19.476,0,20
		c0,0,490,0,490,0C513.01,447.594,513.467,428.549,500,427.98z M255,143c92.569,0,168.477,72.239,173.706,162.988H81.294
		C86.523,215.239,162.431,143,255,143z M111.494,325.989h287.012v40.996H111.494V325.989z M59.347,427.98
		c11.078-10.724,18.684-25.011,20.947-40.995h349.412c2.263,15.984,9.868,30.271,20.946,40.995H59.347z"/>
</g>
<g>
</g>
<g>
</g>
<g>
</g>
<g>
</g>
<g>
</g>
<g>
</g>
<g>
</g>
<g>
</g>
<g>
</g>
<g>
</g>
<g>
</g>
<g>
</g>
<g>
</g>
<g>
</g>
<g>
</g>
</svg>
