<svg fill="none" height="24" viewBox="0 0 24 24" width="24" xmlns="http://www.w3.org/2000/svg"><g clip-rule="evenodd" fill="#000" fill-rule="evenodd"><path d="m12 3c-4.97056 0-9 4.02944-9 9 0 4.0284 2.64735 7.441 6.29965 8.5881l-.5993 1.9081c-4.46191-1.4014-7.70035-5.5693-7.70035-10.4962 0-6.07513 4.92487-11 11-11 6.0751 0 11 4.92487 11 11h-2c0-4.97056-4.0294-9-9-9z"/><path d="m11 11v-3h2v4c0 .5523-.4477 1-1 1h-4v-2z"/><path d="m12 16c0-.5523.4477-1 1-1h9c.5523 0 1 .4477 1 1v.7192l-1.2298.3075-4.2702.9489-4.254-.9453-1.246-.356zm0 2.7543v3.2457c0 .5523.4477 1 1 1h9c.5523 0 1-.4477 1-1v-3.2192l-.7575.1893c-.0085.0022-.017.0042-.0256.0061l-4.5 1c-.1428.0317-.291.0317-.4338 0l-4.5-1c-.0194-.0043-.0387-.0092-.0578-.0147z"/><path d="m17 14c-.5523 0-1 .4477-1 1h3c0-.5523-.4477-1-1-1zm-3 1c0-1.6569 1.3431-3 3-3h1c1.6569 0 3 1.3431 3 3v1c0 .5523-.4477 1-1 1h-5c-.5523 0-1-.4477-1-1z"/></g></svg>