<?xml version="1.0" encoding="iso-8859-1"?>
<!-- Generator: Adobe Illustrator 19.0.0, SVG Export Plug-In . SVG Version: 6.00 Build 0)  -->
<svg version="1.1" id="Capa_1" xmlns="http://www.w3.org/2000/svg" xmlns:xlink="http://www.w3.org/1999/xlink" x="0px" y="0px"
	 viewBox="0 0 512.001 512.001" style="enable-background:new 0 0 512.001 512.001;" xml:space="preserve">
<g>
	<g>
		<path d="M346.351,30.098c-20.997,0-38.693,14.4-43.736,33.842l-169.53,56.51H45.176C20.266,120.451,0,140.717,0,165.627v90.352
			c0,24.91,20.266,45.176,45.176,45.176h0.594l15.447,144.438c2.123,19.77,26.419,42.147,55.152,34.92
			c23.749-5.932,38.403-29.783,33.162-53.555l-3.279-35.499c0.315,0.02,0.628,0.048,0.947,0.048h18.446
			c24.91,0,45.176-20.266,45.176-45.176v-19.264l91.793,30.598c5.042,19.443,22.738,33.842,43.736,33.842
			c24.91,0,45.176-20.266,45.176-45.176V75.275C391.527,50.364,371.261,30.098,346.351,30.098z M109.047,451.301
			c-7.697,1.935-15.626-2.478-18.013-10.128L76.06,301.156h31.608c12.804,138.648,11.942,130.214,12.353,131.866
			C122.034,441.087,117.122,449.284,109.047,451.301z M120.47,271.038c-13.355,0-65.695,0-75.294,0
			c-8.303,0-15.059-6.755-15.059-15.059v-90.352c0-8.303,6.755-15.059,15.059-15.059h75.294V271.038z M180.705,346.332
			c0,8.303-6.755,15.059-15.059,15.059H147.2c-1.272,0-2.501,0.175-3.68,0.472l-5.453-59.046l42.638,14.212V346.332z
			 M301.175,325.439l-150.587-50.196v-128.88l150.587-50.196V325.439z M361.41,346.332c0,8.303-6.755,15.059-15.059,15.059
			c-8.303,0-15.059-6.755-15.059-15.059V75.275c0-8.303,6.755-15.059,15.059-15.059c8.303,0,15.059,6.755,15.059,15.059V346.332z"/>
	</g>
</g>
<g>
	<g>
		<path d="M496.938,180.686h-60.235c-8.316,0-15.059,6.742-15.059,15.059c0,8.316,6.742,15.059,15.059,15.059h60.235
			c8.316,0,15.059-6.742,15.059-15.059C511.997,187.428,505.255,180.686,496.938,180.686z"/>
	</g>
</g>
<g>
	<g>
		<path d="M510.408,98.658c-3.719-7.439-12.766-10.454-20.204-6.734l-60.235,30.117c-7.439,3.72-10.454,12.765-6.734,20.204
			c3.722,7.443,12.769,10.453,20.204,6.734l60.235-30.117C511.113,115.142,514.127,106.097,510.408,98.658z"/>
	</g>
</g>
<g>
	<g>
		<path d="M503.673,272.628l-60.235-30.117c-7.438-3.72-16.484-0.705-20.204,6.734c-3.719,7.439-0.704,16.483,6.734,20.204
			l60.235,30.117c7.44,3.721,16.485,0.703,20.204-6.734C514.126,285.393,511.112,276.348,503.673,272.628z"/>
	</g>
</g>
<g>
</g>
<g>
</g>
<g>
</g>
<g>
</g>
<g>
</g>
<g>
</g>
<g>
</g>
<g>
</g>
<g>
</g>
<g>
</g>
<g>
</g>
<g>
</g>
<g>
</g>
<g>
</g>
<g>
</g>
</svg>
