<svg id="Layer_1" enable-background="new 0 0 500 500" height="512" viewBox="0 0 500 500" width="512" xmlns="http://www.w3.org/2000/svg"><path d="m263.465 21.646c11.491-7.252 26.547-5.088 35.529 5.108 7.052 8.005 18.078 11.243 28.339 8.321 13.068-3.721 26.905 2.598 32.65 14.911 4.511 9.668 14.178 15.88 24.846 15.968 13.587.111 25.083 10.072 27.127 23.506 1.605 10.547 9.13 19.232 19.341 22.321 13.006 3.935 21.229 16.731 19.406 30.196-1.432 10.572 3.342 21.025 12.269 26.866 11.37 7.44 15.656 22.034 10.113 34.44-4.352 9.74-2.717 21.115 4.203 29.234 8.814 10.342 8.814 25.552 0 35.894-6.92 8.12-8.555 19.494-4.203 29.234 5.543 12.406 1.258 27.001-10.113 34.44-8.927 5.841-13.701 16.294-12.269 26.866 1.824 13.465-6.4 26.261-19.406 30.196-10.211 3.089-17.737 11.774-19.341 22.321-2.044 13.433-13.54 23.394-27.127 23.506-10.668.087-20.335 6.3-24.846 15.968-5.746 12.313-19.582 18.632-32.65 14.911-10.26-2.922-21.286.316-28.339 8.321-8.982 10.196-24.038 12.361-35.529 5.108-9.022-5.694-20.513-5.694-29.535 0-11.491 7.252-26.547 5.087-35.529-5.108-7.052-8.005-18.078-11.243-28.339-8.321-13.068 3.721-26.905-2.598-32.65-14.911-4.511-9.668-14.178-15.88-24.846-15.968-13.587-.111-25.083-10.072-27.127-23.506-1.605-10.547-9.13-19.232-19.341-22.321-13.006-3.935-21.229-16.731-19.406-30.196 1.432-10.572-3.342-21.025-12.269-26.866-11.37-7.44-15.656-22.034-10.113-34.44 4.352-9.74 2.717-21.115-4.203-29.234-8.814-10.342-8.814-25.553 0-35.894 6.92-8.12 8.555-19.494 4.203-29.234-5.543-12.406-1.258-27.001 10.113-34.44 8.927-5.841 13.701-16.294 12.269-26.866-1.824-13.465 6.4-26.261 19.406-30.196 10.211-3.089 17.737-11.774 19.341-22.321 2.044-13.433 13.54-23.394 27.127-23.506 10.668-.087 20.335-6.3 24.846-15.968 5.746-12.313 19.582-18.632 32.65-14.911 10.26 2.922 21.287-.316 28.339-8.321 8.982-10.196 24.038-12.36 35.529-5.108 9.022 5.694 20.513 5.694 29.535 0z" fill="#e91b24"/><g fill="#fff"><path d="m199.16 153.95v73.15h-24.42l-18.288-60.241h-1.076v60.241h-14.845v-73.15h25.065l17.642 60.242h1.076v-60.242z"/><path d="m229.925 166.859v17.104h26.033v12.694h-26.033v17.535h32.487v12.909h-47.332v-73.15h47.333v12.909h-32.488z"/><path d="m268.758 153.95h15.599l9.036 60.457h1.613l13.124-60.457h17.212l13.124 60.457h1.613l9.036-60.457h15.599l-13.984 73.15h-22.483l-11.511-55.616-11.51 55.616h-22.483z"/><path d="m111.649 339.411c-4.447-2.652-7.656-6.724-9.628-12.21-1.973-5.486-2.958-12.603-2.958-21.353 0-8.821.985-16.011 2.958-21.569 1.972-5.557 5.181-9.717 9.628-12.479 4.446-2.76 10.362-4.142 17.75-4.142 7.385 0 13.302 1.382 17.75 4.142 4.446 2.762 7.654 6.922 9.628 12.479 1.972 5.559 2.958 12.748 2.958 21.569 0 8.605-.951 15.635-2.851 21.084-1.901 5.451-5.074 9.558-9.52 12.317-4.448 2.762-10.435 4.142-17.965 4.142-7.388.001-13.304-1.326-17.75-3.98zm26.84-11.348c2.187-1.614 3.728-4.195 4.625-7.746.896-3.55 1.345-8.372 1.345-14.468s-.467-10.954-1.398-14.577c-.933-3.62-2.493-6.31-4.679-8.067-2.188-1.757-5.182-2.636-8.982-2.636-3.802 0-6.796.879-8.982 2.636-2.188 1.758-3.749 4.447-4.68 8.067-.933 3.623-1.398 8.481-1.398 14.577 0 5.666.393 10.256 1.183 13.769.789 3.515 2.276 6.204 4.464 8.068 2.187 1.866 5.325 2.797 9.413 2.797 3.871-.001 6.9-.807 9.089-2.42z"/><path d="m187.272 281.859v21.515h26.033v12.909h-26.033v25.817h-14.845v-73.15h46.687v12.909z"/><path d="m244.394 281.859v21.515h26.033v12.909h-26.033v25.817h-14.845v-73.15h46.687v12.909z"/><path d="m301.515 281.859v17.104h26.033v12.693h-26.033v17.534h32.487v12.909h-47.332v-73.15h47.332v12.909h-32.487z"/><path d="m346.264 268.95h28.399c17.212 0 25.817 8.033 25.817 24.097 0 9.539-3.587 16.566-10.758 21.085l10.436 27.969h-16.244l-8.498-24.527h-14.308v24.527h-14.845v-73.151zm28.614 35.93c3.37 0 5.952-1.058 7.745-3.173 1.792-2.115 2.689-4.966 2.689-8.553 0-3.585-.933-6.4-2.797-8.444-1.865-2.044-4.482-3.066-7.853-3.066h-13.555v23.236z"/></g></svg>