<svg id="Layer_1" enable-background="new 0 0 512.253 512.253" height="512" viewBox="0 0 512.253 512.253" width="512" xmlns="http://www.w3.org/2000/svg"><g><path d="m279.536 334.108-34.279 34.28 84.771 84.772c34.285-35.426 55.028-85.013 53.551-137.97z"/><path d="m133.107 427.199-48.203-48.207c-14.738-14.73-14.756-38.596.003-53.345l93.083-93.086 18.917-104.042c-107.575-2.942-196.901 84.029-196.73 191.669-1.957 124.775 123.533 219.539 242.878 184.823l-69.419-69.418c-13.548 5.33-29.584 2.545-40.529-8.394z"/><path d="m336.51 62.054c8.284 0 15-6.716 15-15v-32.133c-.793-19.902-29.215-19.887-30 0v32.133c0 8.284 6.716 15 15 15z"/><path d="m497.177 160.587h-32.134c-19.902.793-19.887 29.215 0 30h32.134c19.902-.792 19.887-29.214 0-30z"/><path d="m438.007 95.306 22.718-22.722c5.857-5.858 5.856-15.356-.002-21.213s-15.356-5.856-21.213.002l-22.718 22.722c-5.857 5.858-5.856 15.356.002 21.213 5.859 5.858 15.357 5.856 21.213-.002z"/><path d="m106.114 357.776 48.203 48.207c3.009 3.007 7.91 3.008 10.923-.002l85.791-85.793-59.12-59.12-85.793 85.796c-3.033 3.03-3.011 7.906-.004 10.912z"/><path d="m322.179 97.616 92.303 92.304c10.431-53.78-38.564-102.737-92.303-92.304z"/><path d="m260.451 78.315c-8.556-8.556-23.2-3.981-25.365 7.923l-27.012 148.566 69.218 69.219 148.567-27.012c11.905-2.164 16.479-16.809 7.923-25.365z"/><path d="m197.057 416.587 76.913 76.912c11.922-5.654 23.159-12.509 33.574-20.396l-83.501-83.502z"/></g></svg>