<svg fill="none" height="512" viewBox="0 0 24 24" width="512" xmlns="http://www.w3.org/2000/svg" xmlns:xlink="http://www.w3.org/1999/xlink"><linearGradient id="lg1"><stop offset="0" stop-color="#fd4a85"/><stop offset="1" stop-color="#ff9d8c"/></linearGradient><linearGradient id="paint0_linear_111_394" gradientUnits="userSpaceOnUse" x1="12" x2="12" xlink:href="#lg1" y1="2" y2="22"/><linearGradient id="paint1_linear_111_394" gradientUnits="userSpaceOnUse" x1="7" x2="7" xlink:href="#lg1" y1="10.5" y2="13.5"/><linearGradient id="paint2_linear_111_394" gradientUnits="userSpaceOnUse" x1="12" x2="12" xlink:href="#lg1" y1="10.5" y2="13.5"/><linearGradient id="paint3_linear_111_394" gradientUnits="userSpaceOnUse" x1="17" x2="17" xlink:href="#lg1" y1="10.5" y2="13.5"/><clipPath id="clip0_111_394"><path d="m0 0h24v24h-24z"/></clipPath><g clip-path="url(#clip0_111_394)"><path d="m12 2c-5.52 0-10 4.48-10 10s4.48 10 10 10 10-4.48 10-10-4.48-10-10-10zm0 18c-4.42 0-8-3.58-8-8s3.58-8 8-8 8 3.58 8 8-3.58 8-8 8z" fill="url(#paint0_linear_111_394)"/><path d="m7 13.5c.82843 0 1.5-.6716 1.5-1.5s-.67157-1.5-1.5-1.5-1.5.6716-1.5 1.5.67157 1.5 1.5 1.5z" fill="url(#paint1_linear_111_394)"/><path d="m12 13.5c.8284 0 1.5-.6716 1.5-1.5s-.6716-1.5-1.5-1.5-1.5.6716-1.5 1.5.6716 1.5 1.5 1.5z" fill="url(#paint2_linear_111_394)"/><path d="m17 13.5c.8284 0 1.5-.6716 1.5-1.5s-.6716-1.5-1.5-1.5-1.5.6716-1.5 1.5.6716 1.5 1.5 1.5z" fill="url(#paint3_linear_111_394)"/></g></svg>