<svg id="Layer_1" height="512" viewBox="0 0 24 24" width="512" xmlns="http://www.w3.org/2000/svg" data-name="Layer 1"><path d="m7 11h-3c-2.206 0-4-1.794-4-4v-3c0-2.206 1.794-4 4-4h3c2.206 0 4 1.794 4 4v3c0 2.206-1.794 4-4 4zm-3-8c-.551 0-1 .449-1 1v3c0 .551.449 1 1 1h3c.551 0 1-.449 1-1v-3c0-.551-.449-1-1-1zm16 8h-3c-2.206 0-4-1.794-4-4v-3c0-2.206 1.794-4 4-4h3c2.206 0 4 1.794 4 4v3c0 2.206-1.794 4-4 4zm-3-8c-.552 0-1 .449-1 1v3c0 .551.448 1 1 1h3c.552 0 1-.449 1-1v-3c0-.551-.448-1-1-1zm-10 21h-3c-2.206 0-4-1.794-4-4v-3c0-2.206 1.794-4 4-4h3c2.206 0 4 1.794 4 4v3c0 2.206-1.794 4-4 4zm-3-8c-.551 0-1 .449-1 1v3c0 .551.449 1 1 1h3c.551 0 1-.449 1-1v-3c0-.551-.449-1-1-1zm13-.5v-1c0-.828-.672-1.5-1.5-1.5h-1c-.828 0-1.5.672-1.5 1.5v1c0 .828.672 1.5 1.5 1.5h1c.828 0 1.5-.672 1.5-1.5zm3 3c0-.828-.672-1.5-1.5-1.5-.828 0-1.5.672-1.5 1.5 0 .828.672 1.5 1.5 1.5.828 0 1.5-.672 1.5-1.5zm-3 4v-1c0-.828-.672-1.5-1.5-1.5h-1c-.828 0-1.5.672-1.5 1.5v1c0 .828.672 1.5 1.5 1.5h1c.828 0 1.5-.672 1.5-1.5zm7-7v-1c0-.828-.672-1.5-1.5-1.5h-1c-.828 0-1.5.672-1.5 1.5v1c0 .828.672 1.5 1.5 1.5h1c.828 0 1.5-.672 1.5-1.5z"/></svg>