<?xml version="1.0" encoding="utf-8"?>
<!-- Generator: Adobe Illustrator 27.9.0, SVG Export Plug-In . SVG Version: 6.00 Build 0)  -->
<svg version="1.1" id="Layer_1" xmlns="http://www.w3.org/2000/svg" xmlns:xlink="http://www.w3.org/1999/xlink" x="0px" y="0px"
	 viewBox="0 0 512 512" style="enable-background:new 0 0 512 512;" xml:space="preserve">
<path d="M335.1,490.9c-3,0-6.3,0-8.8-0.1c-0.1,0-0.1,0-0.1-0.1c-1.3-10.8-8.5-19.7-18.3-23.5c0,0-0.1-0.1-0.1-0.1l0-155.5
	c0-0.1,0.1-0.2,0.2-0.1c12.8,12.4,35.3,3.1,35.3-14.9l0-127.5c0-29.1-24.4-51.5-53-50.6c-0.1,0-0.2-0.1-0.1-0.2
	c9.6-9.2,15.6-22,15.6-36.3V63.8c0-0.1,0.1-0.1,0.1-0.1H328c9.4,0,9.8-15,0-15h-22.8c-0.1,0-0.1,0-0.1-0.1
	c-3.7-24-24.6-42.4-49.7-42.4c-26.1,0-47.6,19.9-50,45.2c-1.1,10.1-0.3,20.5-0.3,30.6c0,14.3,6,27.2,15.6,36.3
	c0.1,0.1,0,0.2-0.1,0.2c-28-0.2-52,22.1-52,50.6v127.5c0,18.2,22.9,27.4,35.6,14.7c0.1-0.1,0.2,0,0.2,0.1l0.1,79c0,9.8,15,9.8,15,0
	l-0.1-94c0-0.1,0.1-0.1,0.1-0.1h73.1c0.1,0,0.1,0.1,0.1,0.1v168.9c0,0.1-0.1,0.1-0.1,0.1h-29.6c-0.1,0-0.1-0.1-0.1-0.1v-134
	c0-9.4-15-9.8-15,0v134c0,0.1-0.1,0.1-0.1,0.1h-28.1c-0.1,0-0.1-0.1-0.1-0.1l0-35c0-9.8-15-9.8-15,0l0,36.4c0,0.1,0,0.1-0.1,0.1
	c-10.6,3.4-18.5,12.7-19.8,24c0,0.1-0.1,0.1-0.1,0.1h-8.5c-9.4,0-9.8,15,0,15h159c4.1,0,7.5-3.3,7.5-7.5v0
	C342.6,494.2,339.2,490.9,335.1,490.9z M247.8,490.8h-47.7c-0.1,0-0.2-0.1-0.1-0.2c1.5-5.9,7-10.3,13.4-10.3h34.5
	c0.1,0,0.1,0.1,0.1,0.1v10.2C248,490.7,247.9,490.8,247.8,490.8z M328.4,296.6c0,7.3-11.7,7.6-11.7,0v-108c0-0.1,0.1-0.1,0.1-0.1
	h11.4c0.1,0,0.1,0.1,0.1,0.1V296.6z M255.3,21.8h0.3c16.5,0,30.3,11.4,34.2,26.7c0,0.1,0,0.2-0.1,0.2h-68.4c-0.1,0-0.1-0.1-0.1-0.2
	C225,33.2,238.9,21.8,255.3,21.8z M220.1,81.9V63.8c0-0.1,0.1-0.1,0.1-0.1h70.5c0.1,0,0.1,0.1,0.1,0.1v18.1
	c0,19.5-15.8,35.4-35.4,35.4h0C235.9,117.3,220.1,101.4,220.1,81.9z M255.4,143.2c-5.9,0-8.1-6.4-7.4-11.4c0-0.1,0.1-0.1,0.1-0.1
	c4.9,0.7,9.7,0.7,14.6,0c0.1,0,0.1,0,0.1,0.1C263.7,136.9,261.4,143.2,255.4,143.2z M195.3,296.6c0,7.3-11.7,7.6-11.7,0v-108
	c0-0.1,0.1-0.1,0.1-0.1h11.4c0.1,0,0.1,0.1,0.1,0.1V296.6z M211.9,281.1L211.9,281.1c-0.5,0-1,0.1-1.5,0.2c-0.1,0-0.2,0-0.2-0.1
	V181.1c0-4.2-3.4-7.6-7.6-7.6h-18.9c-0.1,0-0.1-0.1-0.1-0.1c-0.5-20.7,13.3-39.7,35.4-39.7h13.8c0.1,0,0.1,0.1,0.1,0.1
	c-0.5,12.9,9.1,24.5,22.5,24.5c13.4,0,22.8-11.7,22.4-24.5c0-0.1,0.1-0.1,0.1-0.1h15.2c21.9,0,36.2,18.9,35.2,39.7
	c0,0.1-0.1,0.1-0.1,0.1h-18.9c-4.2,0-7.6,3.4-7.6,7.6v100.2c-0.4-0.1-0.9-0.1-1.4-0.1H211.9z M263,490.7v-10.2
	c0-0.1,0.1-0.1,0.1-0.1h34.5c6.4,0,11.8,4.4,13.4,10.3c0,0.1,0,0.2-0.1,0.2h-47.7C263,490.8,263,490.7,263,490.7z"/>
</svg>
