<svg fill="none" height="24" viewBox="0 0 24 24" width="24" xmlns="http://www.w3.org/2000/svg"><path clip-rule="evenodd" d="m8.00002 7.00003c-.61775 0-1.21996.06209-1.80107.18005-.54125.10987-1.06908-.23983-1.17895-.78108s.23983-1.06908.78108-1.17895c.71133-.14439 1.44682-.22002 2.19894-.22002 6.07518 0 10.99998 4.92487 10.99998 10.99997 0 .7521-.0756 1.4876-.22 2.1989-.1099.5413-.6377.891-1.1789.7811-.5413-.1099-.891-.6377-.7811-1.1789.1179-.5811.18-1.1833.18-1.8011 0-4.9705-4.0294-8.99997-8.99998-8.99997zm-.97947 4.99997c-.29105 0-.57553.0247-.85165.072-.54435.0933-1.06125-.2724-1.15452-.8167-.09328-.5444.27239-1.0613.81674-1.1545.38723-.0664.7847-.10083 1.18943-.10083 3.86595 0 6.99995 3.13403 6.99995 7.00003 0 .3964-.033.7858-.0967 1.1655-.0914.5446-.607.9121-1.1517.8207s-.9121-.607-.8207-1.1517c.0454-.2707.0691-.5495.0691-.8345 0-2.7615-2.23853-5-4.99995-5zm-2.02054 5c0-1.1046.89543-2 2-2s2 .8954 2 2-.89543 2-2 2-2-.8954-2-2z" fill="#212121" fill-rule="evenodd"/></svg>