<svg id="Capa_1" enable-background="new 0 0 512.005 512.005" height="512" viewBox="0 0 512.005 512.005" width="512" xmlns="http://www.w3.org/2000/svg"><g id="Scooter"><g><path d="m432 316.002c-44.112 0-80 35.888-80 80s35.888 80 80 80 80-35.888 80-80-35.888-80-80-80zm0 120c-22.056 0-40-17.944-40-40s17.944-40 40-40 40 17.944 40 40-17.944 40-40 40z"/><path d="m483.398 287.58c9.969 4.75 21.906.518 26.657-9.454s.518-21.907-9.454-26.657c-21.543-10.263-44.624-15.466-68.602-15.466-1.287 0-2.571.021-3.854.052l-8.078-40.677c2.81.405 5.678.625 8.598.625h40c11.046 0 20-8.954 20-20v-80c0-11.046-8.954-20-20-20h-40c-11.184 0-21.657 3.084-30.629 8.434l-.024-.121c-5.56-27.995-30.31-48.313-58.852-48.313h-47.16c-11.046 0-20 8.954-20 20s8.954 20 20 20h47.162c9.514 0 17.765 6.773 19.617 16.104 3.626 18.258 27.442 138.189 29.778 149.952-48.808 13.864-89.383 50.559-107.139 99.841-3.087 8.567-10.502 14.103-18.89 14.103h-22.528v-100c0-33.084-26.916-60-60-60h-40c-77.196 0-140 62.804-140 140 0 26.099 16.756 48.348 40.072 56.584-.048 1.136-.072 2.275-.072 3.416 0 44.112 35.888 80 80 80s80-35.888 80-80h62.528c25.069 0 47.783-16.293 56.521-40.544 17.124-47.525 62.516-79.456 112.951-79.456 17.979-.001 35.271 3.895 51.398 11.577zm-74.731-151.578c0-11.028 8.972-20 20-20h20v40h-20c-9.63 0-17.689-6.842-19.579-15.92l-.025-.125c-.257-1.279-.396-2.601-.396-3.955zm-288.667 300c-22.056 0-40-17.944-40-40h80c0 22.057-17.944 40-40 40zm-60-80c-11.028 0-20-8.972-20-20 0-55.14 44.859-100 100-100h40c11.028 0 20 8.972 20 20v100z"/></g><g><path d="m140 76.002h-120c-11.046 0-20-8.954-20-20s8.954-20 20-20h120c11.046 0 20 8.954 20 20s-8.954 20-20 20z"/></g><g><path d="m140 156.002h-80c-11.046 0-20-8.954-20-20s8.954-20 20-20h80c11.046 0 20 8.954 20 20s-8.954 20-20 20z"/></g></g></svg>