<svg id="Layer_1" enable-background="new 0 0 512 512" height="512" viewBox="0 0 512 512" width="512" xmlns="http://www.w3.org/2000/svg"><path d="m419.71 363.13h-362.08c-2.02 0-3.85-1.22-4.62-3.09s-.35-4.02 1.08-5.45l51.11-51.11v-114.95c0-21.87 17.79-39.66 39.66-39.66h274.85c21.87 0 39.66 17.79 39.66 39.66v134.94c0 21.87-17.79 39.66-39.66 39.66zm-350.01-10h350.01c16.35 0 29.66-13.31 29.66-29.66v-134.94c0-16.35-13.31-29.66-29.66-29.66h-274.85c-16.35 0-29.66 13.31-29.66 29.66v117.02c0 1.33-.53 2.6-1.46 3.54z" fill="rgb(0,0,0)"/></svg>