<svg id="Layer_1" enable-background="new 0 0 512 512" height="512" viewBox="0 0 512 512" width="512" xmlns="http://www.w3.org/2000/svg"><path d="m126.88 344.06c-.64 0-1.29-.12-1.91-.38-1.87-.77-3.09-2.6-3.09-4.62v-49.38c-32.13-1.64-57.77-28.3-57.77-60.83 0-33.59 27.33-60.92 60.92-60.92h261.96c33.59 0 60.92 27.33 60.92 60.92s-27.33 60.91-60.92 60.91h-203.74l-52.84 52.84c-.95.96-2.23 1.46-3.53 1.46zm-1.86-166.12c-28.07 0-50.92 22.84-50.92 50.92 0 28.07 22.84 50.91 50.92 50.91h1.86c2.76 0 5 2.24 5 5v42.23l45.76-45.76c.94-.94 2.21-1.46 3.54-1.46h205.8c28.07 0 50.92-22.84 50.92-50.91s-22.84-50.92-50.92-50.92h-261.96z" fill="rgb(0,0,0)"/></svg>