<svg height="512" viewBox="0 0 24 24" width="512" xmlns="http://www.w3.org/2000/svg"><g id="Layer_2" data-name="Layer 2"><path d="m14.5 12.75a3.22 3.22 0 0 1 -2.5-1.15 3.27 3.27 0 0 1 -2.5 1.15 3.22 3.22 0 0 1 -2.5-1.15 2.91 2.91 0 0 1 -.3.31 3.22 3.22 0 0 1 -2.51.82 3.35 3.35 0 0 1 -2.94-3.37v-.71a4.76 4.76 0 0 1 .24-1.5l1.57-4.7a1.75 1.75 0 0 1 1.66-1.2h14.56a1.75 1.75 0 0 1 1.66 1.2l1.57 4.7a4.76 4.76 0 0 1 .24 1.5v.71a3.35 3.35 0 0 1 -2.92 3.37 3.2 3.2 0 0 1 -2.51-.82c-.11-.1-.22-.22-.32-.33a3.28 3.28 0 0 1 -2.5 1.17zm-9.78-10a.26.26 0 0 0 -.24.17l-1.56 4.7a3.27 3.27 0 0 0 -.17 1v.71a1.84 1.84 0 0 0 1.57 1.88 1.75 1.75 0 0 0 1.93-1.71.75.75 0 0 1 1.5 0 1.67 1.67 0 0 0 1.75 1.75 1.76 1.76 0 0 0 1.75-1.75.75.75 0 0 1 1.5 0 1.67 1.67 0 0 0 1.75 1.75 1.76 1.76 0 0 0 1.75-1.75.75.75 0 0 1 1.5 0 1.75 1.75 0 0 0 1.93 1.74 1.84 1.84 0 0 0 1.57-1.88v-.71a3.27 3.27 0 0 0 -.17-1l-1.56-4.7a.26.26 0 0 0 -.24-.17z"/><path d="m20 22.75h-16a1.76 1.76 0 0 1 -1.75-1.75v-9.52a.75.75 0 0 1 1.5 0v9.52a.25.25 0 0 0 .25.25h16a.25.25 0 0 0 .25-.25v-9.53a.75.75 0 1 1 1.5 0v9.53a1.76 1.76 0 0 1 -1.75 1.75z"/><path d="m15.5 22.75h-7a.76.76 0 0 1 -.75-.75v-5a1.76 1.76 0 0 1 1.75-1.75h5a1.76 1.76 0 0 1 1.75 1.75v5a.76.76 0 0 1 -.75.75zm-6.25-1.5h5.5v-4.25a.25.25 0 0 0 -.25-.25h-5a.25.25 0 0 0 -.25.25z"/></g></svg>