<svg enable-background="new 0 0 512 512" height="512" viewBox="0 0 512 512" width="512" xmlns="http://www.w3.org/2000/svg"><g id="_x35_0_x2C__Street_Food_x2C__food_art_x2C__food_stand_x2C__food_stall_x2C__fast_food"><g><path d="m471 441h-50c-5.522 0-10-4.478-10-10s4.478-10 10-10h40v-110h-410v110h230c5.522 0 10 4.478 10 10s-4.478 10-10 10h-240c-5.522 0-10-4.478-10-10v-130c0-5.522 4.478-10 10-10h430c5.522 0 10 4.478 10 10v130c0 5.522-4.478 10-10 10z"/><path d="m91 511h-50c-5.522 0-10-4.478-10-10v-70c0-5.522 4.478-10 10-10h50c5.522 0 10 4.478 10 10v70c0 5.522-4.478 10-10 10zm-40-20h30v-50h-30z"/><path d="m351 511c-44.112 0-80-35.888-80-80s35.888-80 80-80 80 35.888 80 80-35.888 80-80 80zm0-140c-33.084 0-60 26.916-60 60s26.916 60 60 60 60-26.916 60-60-26.916-60-60-60z"/><path d="m351 471c-22.056 0-40-17.944-40-40s17.944-40 40-40 40 17.944 40 40-17.944 40-40 40zm0-60c-11.028 0-20 8.972-20 20s8.972 20 20 20 20-8.972 20-20-8.972-20-20-20z"/><path d="m481 311h-450c-16.542 0-30-13.458-30-30s13.458-30 30-30h450c16.542 0 30 13.458 30 30s-13.458 30-30 30zm-450-40c-5.514 0-10 4.486-10 10s4.486 10 10 10h450c5.514 0 10-4.486 10-10s-4.486-10-10-10z"/><path d="m501 101h-490c-3.635 0-6.984-1.973-8.746-5.152-1.763-3.18-1.66-7.065.266-10.147l50-80c1.828-2.925 5.032-4.701 8.48-4.701h390c3.448 0 6.652 1.776 8.48 4.7l50 80c1.926 3.082 2.028 6.968.266 10.147-1.762 3.18-5.111 5.153-8.746 5.153zm-471.957-20h453.914l-37.5-60h-378.914z"/><path d="m72.25 161c-38.729 0-70.273-30.867-71.22-69.458-.163-3.041 1.049-5.947 3.253-7.951 4.087-3.717 10.417-3.42 14.131.668 1.657 1.821 2.556 4.139 2.604 6.543.549 27.679 23.532 50.198 51.232 50.198s50.683-22.519 51.232-50.198c.11-5.522 4.679-9.864 10.196-9.8 5.522.109 9.909 4.675 9.8 10.196-.766 38.567-32.213 69.802-71.228 69.802z"/><path d="m194.75 161c-38.738 0-70.458-30.955-71.228-69.802-.11-5.583 4.381-10.198 10.002-10.198 5.431 0 9.886 4.348 9.994 9.802.549 27.679 23.532 50.198 51.232 50.198s50.683-22.519 51.232-50.198c.107-5.402 4.52-9.882 10.196-9.8 5.522.109 9.909 4.675 9.8 10.196-.766 38.567-32.213 69.802-71.228 69.802z"/><path d="m317.25 161c-38.738 0-70.458-30.955-71.228-69.802-.11-5.583 4.381-10.198 10.002-10.198 5.431 0 9.886 4.348 9.994 9.802.549 27.679 23.532 50.198 51.232 50.198s50.683-22.519 51.232-50.198c.107-5.402 4.52-9.882 10.196-9.8 5.522.109 9.909 4.675 9.8 10.196-.372 18.728-7.946 36.274-21.327 49.407-13.4 13.152-31.122 20.395-49.901 20.395z"/><path d="m439.75 161c-38.738 0-70.458-30.955-71.228-69.802-.11-5.583 4.381-10.198 10.002-10.198 5.431 0 9.886 4.348 9.994 9.802.549 27.679 23.532 50.198 51.232 50.198s50.683-22.519 51.232-50.198c.051-2.52 1.05-5.006 2.932-6.888 3.905-3.905 10.23-3.91 14.138-.005.062.1 3.242 2.88 2.916 7.752-1.008 38.462-32.457 69.339-71.218 69.339z"/><path d="m471 271c-5.522 0-10-4.478-10-10v-118.56c0-5.522 4.478-10 10-10s10 4.478 10 10v118.56c0 5.522-4.478 10-10 10z"/><path d="m41 271c-5.522 0-10-4.478-10-10v-118.56c0-5.522 4.478-10 10-10s10 4.478 10 10v118.56c0 5.522-4.478 10-10 10z"/><path d="m431 271h-150c-5.522 0-10-4.478-10-10v-40c0-5.522 4.478-10 10-10h150c5.522 0 10 4.478 10 10v40c0 5.522-4.478 10-10 10zm-140-20h130v-20h-130z"/><path d="m141 271h-60c-5.522 0-10-4.478-10-10v-70c0-5.522 4.478-10 10-10h60c5.522 0 10 4.478 10 10v70c0 5.522-4.478 10-10 10zm-50-20h40v-50h-40z"/><path d="m241 271h-60c-5.522 0-10-4.478-10-10v-70c0-5.522 4.478-10 10-10h60c5.522 0 10 4.478 10 10v70c0 5.522-4.478 10-10 10zm-50-20h40v-50h-40z"/></g></g></svg>