<svg fill="none" height="24" viewBox="0 0 24 24" width="24" xmlns="http://www.w3.org/2000/svg" xmlns:xlink="http://www.w3.org/1999/xlink"><linearGradient id="paint0_linear_1_7470" gradientUnits="userSpaceOnUse" x1="0" x2="0" y1="3" y2="21"><stop offset="0" stop-color="#e100ff"/><stop offset="1" stop-color="#7f00ff"/></linearGradient><clipPath id="clip0_1_7470"><path d="m0 0h24v24h-24z"/></clipPath><g clip-path="url(#clip0_1_7470)" clip-rule="evenodd" fill="url(#paint0_linear_1_7470)" fill-rule="evenodd"><path d="m16.9999 15c0-.5523.4478-1 1-1h4c.4767 0 .8871.3365.9806.8039l1 5c.1083.5415-.2429 1.0684-.7844 1.1767-.5416.1083-1.0684-.2429-1.1767-.7845l-.8393-4.1961h-2.1802v4c0 .5523-.4477 1-1 1-.5522 0-1-.4477-1-1z"/><path d="m23.1414 7.01005c.5467.07811.9266.58464.8485 1.13137l-1 6.99998c-.0781.5468-.5846.9267-1.1314.8486-.5467-.0782-.9266-.5847-.8485-1.1314l1-7.00002c.0781-.54674.5846-.92663 1.1314-.84853z"/><path d="m1.01937 14.8039c.09348-.4674.5039-.8039.98058-.8039h4c.55228 0 1 .4477 1 1v5c0 .5523-.44772 1-1 1-.55229 0-1-.4477-1-1v-4h-2.1802l-.83922 4.1961c-.10831.5416-.63514.8928-1.176697.7845-.54156-.1083-.8927769-.6352-.784465-1.1767z"/><path d="m.858527 7.01005c.546733-.0781 1.053263.30179 1.131373.84853l1 7.00002c.0781.5467-.3018 1.0532-.84853 1.1314-.54673.0781-1.05327-.3018-1.13137-.8486l-1.00000077-6.99998c-.07810483-.54673.30179377-1.05326.84852777-1.13137z"/><path d="m3.99995 10c0-.55228.44771-1 1-1h13.99995c.5523 0 1 .44772 1 1 0 .5523-.4477 1-1 1h-13.99995c-.55229 0-1-.4477-1-1z"/><path d="m11.9999 9c.5523 0 1 .44772 1 1v10c0 .5523-.4477 1-1 1-.5522 0-1-.4477-1-1v-10c0-.55228.4478-1 1-1z"/><path d="m8.99995 20c0-.5523.44771-1 1-1h3.99995c.5523 0 1 .4477 1 1s-.4477 1-1 1h-3.99995c-.55229 0-1-.4477-1-1z"/><path d="m8.99995 10.0009c0 .0014-.00001.0027-.00001.004-.00263.55-.44934.9951-.99999.9951-.55229 0-1-.4477-1-1h1c-1 0-1-.0005-1-.00102v-.00112l.00001-.00253.00004-.00617.0002-.01676c.00021-.01311.0006-.03008.00128-.05064.00137-.04109.00395-.09673.00882-.16488.00971-.13596.02865-.32366.06575-.54628.07342-.44049.22211-1.0431.52947-1.65781.30932-.61863.78899-1.26768 1.52723-1.75984.74449-.49633 1.69225-.79295 2.86715-.79295 1.175 0 2.1228.29662 2.8672.79295.7383.49216 1.218 1.14121 1.5273 1.75984.3073.61471.456 1.21732.5294 1.65781.0371.22262.0561.41032.0658.54628.0049.06815.0074.12379.0088.16488.0007.02056.0011.03753.0013.05064l.0002.01676v.00617.00253.00112c0 .00052 0 .00102-1 .00102h1c0 .5523-.4477 1-1 1-.5506 0-.9973-.4451-.9999-.9951l-.0005-.01651c-.0006-.0175-.0019-.04779-.0048-.08902-.0059-.08279-.0182-.20759-.0436-.35997-.0516-.30951-.1529-.7069-.3456-1.09219-.1907-.38137-.461-.73232-.8478-.99016-.3805-.25367-.9327-.45705-1.7578-.45705-.825 0-1.3772.20338-1.7578.45705-.38672.25784-.65704.60879-.84772.99016-.19265.38529-.29395.78268-.34554 1.09219-.02539.15238-.03771.27718-.04362.35997-.00295.04123-.00427.07152-.00485.08902l-.00043.01651v-.0017z"/><path d="m11.9999 3c.5523 0 1 .44772 1 1v2c0 .55228-.4477 1-1 1-.5522 0-1-.44772-1-1v-2c0-.55228.4478-1 1-1z"/></g></svg>