<svg id="Bahan_copy_6" viewBox="0 0 64 64" xmlns="http://www.w3.org/2000/svg" xmlns:xlink="http://www.w3.org/1999/xlink" data-name="Bahan copy 6"><linearGradient id="linear-gradient" gradientUnits="userSpaceOnUse" x1="7.09" x2="56.91" y1="32" y2="32"><stop offset="0" stop-color="#ffa68d"/><stop offset="1" stop-color="#fd3a84"/></linearGradient><path d="m56.43 21.47-6.46-12.72a4.99858 4.99858 0 0 0 -4.99-4.75c-4.98868.00163-26.92581-.00118-32.34 0-6.28217.06958-7.66009 8.85328-1.68985 10.83l-3.37015 6.62a4.38715 4.38715 0 0 0 -.49 2.01v32.13a4.41717 4.41717 0 0 0 4.41 4.41h41a4.44919 4.44919 0 0 0 4.41-4.41v-32.13a4.55286 4.55286 0 0 0 -.48-1.99zm-1.52 1.99v32.13a2.32519 2.32519 0 0 1 -.17932.91784l-4.74042-7.74157v-14.76041a1.00018 1.00018 0 0 0 -2 .00006v14.72846l-4.92026 7.08978v-32.36416a2.54013 2.54013 0 0 1 .27-1.09c1.17863-2.32069 4.51226-8.91654 5.65-11.15.14657.51379 6.36265 11.96482 5.92 12.24zm-18.83 8.82v6.28a2.04215 2.04215 0 0 1 -2.04 2.04h-4.26v5.47a1.00011 1.00011 0 0 1 -2-.00005v-18.01995a2.04856 2.04856 0 0 1 2.04-2.04 6.28938 6.28938 0 0 1 6.26 6.27zm-18.85 5.06c-1.12162-1.04764-3.29789-2.32063-3.14989-4.12l-.00011-6.21a1 1 0 0 1 2 0v6.21a1.08066 1.08066 0 0 0 .38.82l2.08 1.79a1.08826 1.08826 0 0 0 1.4 0l2.08-1.79a1.08086 1.08086 0 0 0 .38-.82v-6.21a1.00011 1.00011 0 0 1 2 0v6.21a3.05682 3.05682 0 0 1 -1.07 2.33c-.678.49583-2.26254 2.175-3.09 2.37v8.15a1.00012 1.00012 0 0 1 -2-.00005v-8.14995a2.92309 2.92309 0 0 1 -1.01-.58zm1.01-5.67v-4.66a1.00011 1.00011 0 0 1 2 0v4.66a1.00011 1.00011 0 0 1 -2 0zm29.74-22.87-2.18 4.29h-2.69a3.71526 3.71526 0 0 0 -6.08-4.15989.99917.99917 0 0 0 1.50007 1.31989 1.72983 1.72983 0 0 1 1.28993-.58 1.71018 1.71018 0 0 1 -.00008 3.42h-2.36992a3.545 3.545 0 1 1 0-7.09h7.53a3.00663 3.00663 0 0 1 3 2.8zm-37.85 3.25a3.5653 3.5653 0 0 1 2.51014-6.04991l20.54986-.00009a5.56761 5.56761 0 0 0 .00009 7.09l-20.71009-.01a3.50053 3.50053 0 0 1 -2.35-1.03zm33.86414 45.95 4.94367-7.123 4.28869 7.00385c.25898.22946-9.08342.07915-9.23236.11915zm-14.17414-29.99a4.29449 4.29449 0 0 1 3.02 1.25 4.23318 4.23318 0 0 1 1.24 3.02l-.04 6.32h-4.25z" fill="url(#linear-gradient)"/></svg>