<svg id="Layer_1" enable-background="new 0 0 512.004 512.004" height="512" viewBox="0 0 512.004 512.004" width="512" xmlns="http://www.w3.org/2000/svg"><path d="m497.002 273.138h-17.648c-6.803-102.312-82.642-186.03-181.237-204.877 15.912-30.512-7.548-68.718-42.116-68.257-34.562-.463-58.033 37.751-42.115 68.257-98.595 18.847-174.434 102.565-181.237 204.877h-17.647c-19.872.734-19.874 29.266 0 30h75.198c-15.263 16.191-24.26 36.808-25.72 58.908l-60.085 60.085c-5.858 5.857-5.858 15.355 0 21.213l64.267 64.267c2.929 2.929 6.768 4.394 10.606 4.394s7.678-1.465 10.606-4.394l60.546-60.546 139.37-15.485c2.822-.313 5.497-1.422 7.714-3.195l110.487-88.388c11.099-8.873 16.119-23.195 13.321-36.858h75.689c8.284 0 15-6.716 15-15s-6.715-15.001-14.999-15.001zm-241-243.134c9.447 0 17.133 7.687 17.133 17.134-.861 22.698-33.409 22.692-34.267 0 .001-9.448 7.687-17.134 17.134-17.134zm133.253 286.563-107.096 85.675-140.28 15.587c-3.385.376-6.542 1.894-8.95 4.302l-53.66 53.66-43.053-43.054s53.66-53.66 53.66-53.66c2.813-2.812 4.394-6.645 4.394-10.623 0-36.06 29.186-65.316 65.317-65.316h48.216c22.732.851 22.676 33.44 0 34.267h-48.199c-19.839.716-19.904 29.257 0 30h112.467c3.406 0 6.71-1.159 9.37-3.287 0 0 55.245-44.194 55.245-44.194 13.531-10.824 30.525-16.785 47.859-16.785 6.946-.092 10.295 9.091 4.71 13.428zm-137.53-13.429h57.916l-42.834 34.267h-15.068c4.25-10.702 4.244-23.569-.014-34.267zm-189.016-30c24.662-236.914 362.009-236.741 386.585 0z"/></svg>