<?xml version="1.0" encoding="iso-8859-1"?>
<!-- Generator: Adobe Illustrator 27.2.0, SVG Export Plug-In . SVG Version: 6.00 Build 0)  -->
<svg version="1.1" id="Capa_1" xmlns="http://www.w3.org/2000/svg" xmlns:xlink="http://www.w3.org/1999/xlink" x="0px" y="0px"
	 viewBox="0 0 510.004 510.004" style="enable-background:new 0 0 510.004 510.004;" xml:space="preserve">
<g>
	<g>
		<g>
			<g>
				<path style="fill:#6864F7;" d="M349.487,347.139c-0.001-0.001-96.548-35.988-96.548-35.988l-58.88,147.507l-58.882-147.507
					c0,0-96.547,35.987-96.548,35.988c-15.716,5.859-28.573,24.375-28.573,41.148V500h246.116L376.59,378.131
					C372.796,364.616,362.06,351.827,349.487,347.139z"/>
			</g>
		</g>
		<g>
			<path style="fill:#D2DCFD;" d="M378.059,378.112c-67.315,0-121.887,54.568-121.887,121.888h243.776
				C499.948,432.68,445.373,378.112,378.059,378.112z"/>
		</g>
		<g>
			<path style="fill:#93B2F4;" d="M409.986,382.346C334.21,360.736,254.957,420.906,256.172,500h74.111
				C341.276,451.454,370.319,409.766,409.986,382.346z"/>
		</g>
		<g>
			<g>
				<path style="fill:#FFC0BB;" d="M135.177,242.721v68.431l58.881,21.816l58.881-21.816v-68.429h-0.001
					c18.048-16.18,29.424-39.658,29.424-65.747V10H149.906c-24.385,0-44.151,19.768-44.151,44.152v122.824
					C105.755,203.064,117.13,226.541,135.177,242.721z"/>
			</g>
		</g>
		<g>
			<g>
				<path style="fill:#FD7DA0;" d="M193.993,272.403c-22.604,0-43.247-8.541-58.883-22.561c0.001,0.001,0.001,0.001,0.002,0.002
					v56.664c31.981,29.855,85.79,29.848,117.763,0.001v-56.664c0,0,0,0,0,0C237.239,263.863,216.596,272.403,193.993,272.403z"/>
			</g>
		</g>
		<g>
			<polygon style="fill:#FFFFFF;" points="252.939,311.151 194.059,458.658 135.177,311.151 194.058,332.967 			"/>
		</g>
		<g>
			<path style="fill:#FDCB50;" d="M105.755,54.152v33.761h176.608V10H149.906C125.521,10,105.755,29.768,105.755,54.152z"/>
		</g>
		<g>
			<rect x="105.755" y="87.913" style="fill:#FD7DA0;" width="176.608" height="49.727"/>
		</g>
	</g>
	<g>
		<path style="fill:#052A75;" d="M105.759,426.869H71.058c-5.522,0-10,4.478-10,10c0,5.522,4.477,10,10,10h34.701
			C119.015,446.346,119.029,427.398,105.759,426.869z"/>
		<path style="fill:#052A75;" d="M388.059,368.489v-23.353c0-5.522-4.478-10-10-10c-5.523,0-10,4.478-10,10v1.855
			c-4.605-4.026-9.724-7.227-15.077-9.223l-0.009,0.024c-0.954-0.383-2.263-0.871-4.142-1.571l-85.893-32.015v-57.168
			c18.149-17.845,29.424-42.66,29.424-70.062V10c0-5.523-4.477-10-10-10H149.906c-29.858,0-54.15,24.293-54.15,54.152v122.824
			c0,27.401,11.274,52.216,29.422,70.061v57.169l-85.892,32.015c-1.879,0.7-3.187,1.188-4.141,1.57l-0.009-0.023
			c-19.671,7.334-35.08,29.524-35.08,50.519c0,0,0,111.713,0,111.713c0,5.522,4.477,10,10,10c122.114-0.022,367.852,0.016,489.892,0
			c5.522,0,10-4.477,10-10C509.948,430.641,456.129,373.617,388.059,368.489z M345.984,356.505c0.004,0.001,0.007,0.002,0.01,0.004
			c5.772,2.152,11.282,6.826,15.361,12.657C299.743,376.987,251.258,427.483,246.549,490h-42.49v-29.421l54.544-136.645
			C282.58,332.872,345.432,356.299,345.984,356.505z M194.059,431.685l-41.25-103.336l37.774,13.995c2.242,0.83,4.707,0.83,6.949,0
			l37.774-13.995L194.059,431.685z M149.906,20h122.457v60.799H115.755V54.152C115.755,35.32,131.075,20,149.906,20z
			 M115.755,176.977v-76.178h156.607c0,0,0,76.178,0,76.178C268.061,280.86,120.037,280.821,115.755,176.977z M194.058,275.279
			c17.781,0,34.475-4.746,48.881-13.036v41.949l-48.881,18.111l-48.881-18.111v-41.949
			C159.583,270.534,176.277,275.279,194.058,275.279z M20.056,388.287c0-12.546,10.312-27.396,22.066-31.778
			c0.004-0.001,0.007-0.003,0.011-0.004c0.552-0.206,63.403-23.633,87.38-32.57l54.546,136.645V490H20.056V388.287z M266.616,490
			c16.206-135.251,206.805-135.04,222.889,0H266.616z"/>
	</g>
</g>
<g>
</g>
<g>
</g>
<g>
</g>
<g>
</g>
<g>
</g>
<g>
</g>
<g>
</g>
<g>
</g>
<g>
</g>
<g>
</g>
<g>
</g>
<g>
</g>
<g>
</g>
<g>
</g>
<g>
</g>
</svg>
