<svg id="b" height="32" viewBox="0 0 32 32" width="32" xmlns="http://www.w3.org/2000/svg" data-name="Layer 1"><circle cx="8.608" cy="19.498" fill="#0b0040" r="1"/><path d="m12.175 27h-6.175c-2.761 0-5-2.239-5-5v-12c0-2.761 2.239-5 5-5h20c2.761 0 5 2.239 5 5v4.319c0 .552-.448 1-1 1-.552 0-1-.448-1-1v-4.319c0-1.657-1.343-3-3-3h-20c-1.657 0-3 1.343-3 3v12c0 1.657 1.343 3 3 3h6.175c.552 0 1 .448 1 1 0 .552-.448 1-1 1z" fill="#0b0040"/><path d="m22 7h-12v-3c0-1.654 1.346-3 3-3h6c1.654 0 3 1.346 3 3zm-10-2h8v-1c0-.551-.448-1-1-1h-6c-.552 0-1 .449-1 1z" fill="#0b0040"/><path d="m23 31c-4.411 0-8-3.589-8-8s3.589-8 8-8 8 3.589 8 8-3.589 8-8 8zm0-14c-3.309 0-6 2.691-6 6s2.691 6 6 6 6-2.691 6-6-2.691-6-6-6z" fill="#3f73db"/><g fill="#0b0040"><rect height="7" rx="1" width="2" x="7.608" y="8.852"/><path d="m24.392 12.352v-2.5c0-.552-.448-1-1-1s-1 .448-1 1v2.5z"/><path d="m2 11.352h28v2h-28z"/><path d="m21.165 24.953c-.402-.378-.422-1.011-.044-1.413l.722-.769c.101-.107.156-.248.156-.395v-2.877c0-.552.448-1 1-1 .552 0 1 .448 1 1v3.229c0 .43-.164.843-.458 1.156l-.964 1.025c-.378.402-1.011.422-1.413.044z"/></g></svg>