<svg xmlns="http://www.w3.org/2000/svg" width="30" height="30" viewBox="0 0 30 30">
  <path id="Path_1733" data-name="Path 1733" d="M9799.423,4297.581h-7.957v-7.956a3.522,3.522,0,0,0-3.521-3.522h0a3.522,3.522,0,0,0-3.522,3.522v7.956h-7.956a3.522,3.522,0,0,0-3.521,3.522h0a3.522,3.522,0,0,0,3.521,3.522h7.956v7.956a3.522,3.522,0,0,0,3.522,3.522h0a3.522,3.522,0,0,0,3.521-3.522v-7.956h7.957a3.522,3.522,0,0,0,3.521-3.522h0A3.522,3.522,0,0,0,9799.423,4297.581Z" transform="translate(-9772.944 -4286.103)" fill="#222240"/>
</svg>
