<svg xmlns="http://www.w3.org/2000/svg" width="49.955" height="54.519" viewBox="0 0 49.955 54.519">
  <g id="Group_32" data-name="Group 32" transform="translate(-4034.118 -1868.487)">
    <path id="Path_64" data-name="Path 64" d="M4059.083,1886.214c-7,0-14.006.01-21.009-.015a5.54,5.54,0,0,1-2.106-.366,2.95,2.95,0,0,1-1.848-2.794,3.124,3.124,0,0,1,1.774-3.056c3.042-1.617,6.1-3.211,9.146-4.818,3.716-1.958,7.441-3.9,11.142-5.888a5.68,5.68,0,0,1,5.721-.034q10.044,5.329,20.124,10.595a3.33,3.33,0,0,1,2.039,3.109,2.985,2.985,0,0,1-1.779,2.845,5.207,5.207,0,0,1-2.1.405C4073.156,1886.225,4066.12,1886.214,4059.083,1886.214Z" fill="#aaa"/>
    <path id="Path_65" data-name="Path 65" d="M4059.07,1922.994q-10.358,0-20.716-.005c-2.728-.006-4.412-1.751-4.22-4.31a3.9,3.9,0,0,1,3.8-3.572c.229-.021.46-.013.69-.013q20.469,0,40.939,0c2.388,0,3.951,1.122,4.406,3.129a3.845,3.845,0,0,1-3.5,4.728c-1.738.09-3.484.04-5.226.041Q4067.159,1923,4059.07,1922.994Z" fill="#aaa"/>
    <path id="Path_66" data-name="Path 66" d="M4047.221,1900.631c0,1.71.022,3.419,0,5.128a3.935,3.935,0,1,1-7.865.192c-.088-3.516-.082-7.036,0-10.552a3.939,3.939,0,1,1,7.87.2C4047.24,1897.278,4047.222,1898.955,4047.221,1900.631Z" fill="#aaa"/>
    <path id="Path_67" data-name="Path 67" d="M4063.008,1900.7c0,1.676.02,3.353-.005,5.03a3.937,3.937,0,0,1-3.947,4.146,3.985,3.985,0,0,1-3.934-4.1q-.077-5.127,0-10.257a3.864,3.864,0,0,1,3.157-3.968,3.8,3.8,0,0,1,4.369,2.2,5.365,5.365,0,0,1,.346,1.915C4063.04,1897.348,4063.009,1899.025,4063.008,1900.7Z" fill="#aaa"/>
    <path id="Path_68" data-name="Path 68" d="M4078.794,1900.752c0,1.677.024,3.354,0,5.03a3.935,3.935,0,1,1-7.867.146q-.123-5.273,0-10.551a3.935,3.935,0,1,1,7.867.149C4078.818,1897.267,4078.794,1899.01,4078.794,1900.752Z" fill="#aaa"/>
  </g>
</svg>
