<svg xmlns="http://www.w3.org/2000/svg" width="36.362" height="25" viewBox="0 0 36.362 25">
  <g id="Group_623" data-name="Group 623" transform="translate(-1011.705 -8978.408)">
    <path id="Path_1245" data-name="Path 1245" d="M1029.915,8978.408h13.8a4,4,0,0,1,4.351,4.336q0,8.178,0,16.354a4,4,0,0,1-4.324,4.308h-27.713a4,4,0,0,1-4.323-4.309q0-8.206,0-16.412a3.993,3.993,0,0,1,4.3-4.277Q1022.959,8978.406,1029.915,8978.408Zm-15.933,8.544v.621q0,5.761,0,11.524c0,1.4.638,2.033,2.051,2.033h27.707c1.414,0,2.05-.631,2.05-2.034q0-5.763,0-11.525v-.619Zm31.808-2.319c0-.642,0-1.243,0-1.845,0-1.489-.611-2.1-2.094-2.1h-27.645a4.953,4.953,0,0,0-.511.01,1.628,1.628,0,0,0-1.523,1.439c-.066.82-.015,1.65-.015,2.5Z" fill="#aaa"/>
    <path id="Path_1246" data-name="Path 1246" d="M1019.016,8997.858a4.969,4.969,0,0,1-1.3-.521,2.555,2.555,0,0,1-.015-2.647,1.312,1.312,0,0,1,.574-.336c1.787-.453,2.535.131,2.527,1.947-.005,1.045-.389,1.422-1.449,1.426h-.283Z" fill="#aaa"/>
  </g>
</svg>
