<svg xmlns="http://www.w3.org/2000/svg" width="220" height="220" viewBox="0 0 220 220">
  <g id="Group_2070" data-name="Group 2070" transform="translate(-1158.054 -560.826)">
    <circle id="Ellipse_88" data-name="Ellipse 88" cx="110" cy="110" r="110" transform="translate(1158.054 560.826)" fill="#fff"/>
    <g id="Group_1799" data-name="Group 1799" transform="translate(-9328.596)">
      <path id="Path_3530" data-name="Path 3530" d="M10701.649,670.467a104.885,104.885,0,1,1-2.519-22.962A105.018,105.018,0,0,1,10701.649,670.467Z" fill="#d1374a"/>
      <path id="Path_3531" data-name="Path 3531" d="M10629.125,600.4l70.006,47.11a105.116,105.116,0,0,1-88.736,127.07c-31.108-20.78-59.911-40.378-62.889-43.619l12.194-9.772a190.86,190.86,0,0,0,69.425-120.789Z" fill="#af253c"/>
      <path id="Path_3532" data-name="Path 3532" d="M10645.792,728.431v2.525a77.948,77.948,0,0,1-98.286,0v-2.525a34.69,34.69,0,0,1,34.69-34.691l2.89-9.355a26.086,26.086,0,0,1-14.368-21.111,2.919,2.919,0,0,0-2.283-2.487,8.673,8.673,0,0,1-3.2-15.175,71.109,71.109,0,0,1-3.271-20.671,7.231,7.231,0,0,1,7.229-7.227s1.626-17.353,24.569-14.453c23.57,2.982,35.367-2.866,35.367-2.866s5.106,4.94,5.106,14.429a20.158,20.158,0,0,1-2.889,10.425.034.034,0,0,1,0-.019l0,.034.009-.015a51.216,51.216,0,0,1-2.314,21.252,8.675,8.675,0,0,1-4.163,14.286,2.923,2.923,0,0,0-2.285,2.487,26.077,26.077,0,0,1-14.366,21.107l2.892,9.359A34.688,34.688,0,0,1,10645.792,728.431Z" fill="#fff"/>
    </g>
  </g>
</svg>
