<svg xmlns="http://www.w3.org/2000/svg" width="363.052" height="120.99" viewBox="0 0 363.052 120.99">
  <g id="Group_563" data-name="Group 563" transform="translate(-7830.775 -3118.696)">
    <path id="Path_1107" data-name="Path 1107" d="M8073.191,3206.579a91.491,91.491,0,0,0-7.814,15,4.836,4.836,0,0,1-1.033,1.682,1.1,1.1,0,0,1-1.337.322c-.523-.3-.335-.811-.164-1.253a76.934,76.934,0,0,1,6.365-12.76,95.759,95.759,0,0,1,8.736-11.948,8.6,8.6,0,0,1,1.8-1.732,1.18,1.18,0,0,1,1.5-.013,1.254,1.254,0,0,1,.447,1.511,9.046,9.046,0,0,1-.757,1.51,53.155,53.155,0,0,0-6.194,14.5,1.779,1.779,0,0,0-.056.872c.661-1,1.268-1.9,1.86-2.815a145.424,145.424,0,0,1,11-14.856,5.912,5.912,0,0,1,1.63-1.477,1.384,1.384,0,0,1,1.653.034,1.241,1.241,0,0,1,.262,1.551,28.822,28.822,0,0,1-2.218,4.151,81.569,81.569,0,0,0-7.043,15.2,9.313,9.313,0,0,0-.7,4.894,1.323,1.323,0,0,1-.233.981,1.186,1.186,0,0,1-1.131.686c-.527-.04-.764-.425-.926-.84a5.272,5.272,0,0,1,.017-3.051,43.432,43.432,0,0,1,3.579-9.556c1.429-3.046,4.85-9.131,4.756-9.216a82.3,82.3,0,0,0-6.048,7.724c-1.491,2.162-2.867,4.4-4.255,6.625a14.448,14.448,0,0,1-1.387,1.9,3.926,3.926,0,0,1-.473.464,1.841,1.841,0,0,1-2.082.509c-.8-.406-.818-1.217-.759-2a22.356,22.356,0,0,1,1.7-6.444c1-2.56,3.568-7.6,3.542-7.621A54.294,54.294,0,0,0,8073.191,3206.579Z" transform="translate(48.675 15.987)" fill="#fff"/>
    <path id="Path_1108" data-name="Path 1108" d="M8130.418,3205.477c.877.006,1.819-.006,2.274.885a2.565,2.565,0,0,1-.374,2.709,5.529,5.529,0,0,1-4.1,2.311c-.443.056-.863-.023-.949-.569a.849.849,0,0,1,.738-1.014c.427-.115.863-.195,1.286-.322a2.552,2.552,0,0,0,1.371-.943.965.965,0,0,0,.1-1.045.76.76,0,0,0-.83-.354,4.767,4.767,0,0,0-3.738,2.308,2.3,2.3,0,0,0-.032,2.13,9.764,9.764,0,0,0,.969,1.73,5.44,5.44,0,0,1,.974,2.361,3.4,3.4,0,0,1-3.137,3.533,3.328,3.328,0,0,1-3.62-1.7,4.127,4.127,0,0,1,.374-4.454,1.87,1.87,0,0,1,.539-.488.688.688,0,0,1,.886-.008c.254.238.066.509-.056.742a3.9,3.9,0,0,0-.43,2.138,2.063,2.063,0,0,0,1.424,1.879,1.477,1.477,0,0,0,1.589-.249,1.522,1.522,0,0,0,.465-1.608,5.543,5.543,0,0,0-.933-1.823,6.189,6.189,0,0,1-1.2-2.812,3.617,3.617,0,0,1,1.188-3.122A7.419,7.419,0,0,1,8130.418,3205.477Z" transform="translate(60.892 18.216)" fill="#fff"/>
    <path id="Path_1109" data-name="Path 1109" d="M8100.306,3215.175c-.39.594-.736,1.216-1.085,1.837a2.757,2.757,0,0,1-.738.906.839.839,0,0,1-1.391-.633,2.41,2.41,0,0,1,.228-1.145,50.71,50.71,0,0,1,4.228-8.069,3.311,3.311,0,0,1,.515-.623c.294-.28.635-.51,1.05-.247a.9.9,0,0,1,.34,1.166,9.622,9.622,0,0,1-.935,1.579c-.1.169-.474.689-.386.782.12.122,2.251-1.99,3.369-2.795a5.716,5.716,0,0,1,1.662-.93.915.915,0,0,1,.973.128.97.97,0,0,1,.151,1.038,3.278,3.278,0,0,1-.707,1.107,14.939,14.939,0,0,0-3.424,6.012,4.524,4.524,0,0,0,.424,3.55c.265.432.39.875-.121,1.226a1,1,0,0,1-1.34-.165,3.586,3.586,0,0,1-1.013-2.456,9.057,9.057,0,0,1,.994-4.617,6.883,6.883,0,0,0,.627-1.358A19.775,19.775,0,0,0,8100.306,3215.175Z" transform="translate(55.9 18.52)" fill="#fff"/>
    <path id="Path_1110" data-name="Path 1110" d="M8085.125,3215.081a6.074,6.074,0,0,1,.535-2.471,12.724,12.724,0,0,1,4.906-5.637,3.447,3.447,0,0,1,2.079-.637,1.34,1.34,0,0,1,1.386,1.39,3.411,3.411,0,0,1-.41,1.623,9.912,9.912,0,0,1-5.846,5.078c-.642.231-.763.559-.419,1.147a1.951,1.951,0,0,0,2.161.716,8.354,8.354,0,0,0,4.194-2.72c.4-.4.762-.834,1.154-1.24.27-.281.592-.491.968-.2s.24.675.031.989a13.542,13.542,0,0,1-4.461,4.1,6.406,6.406,0,0,1-3.175,1.064C8086.132,3218.326,8085.092,3217.284,8085.125,3215.081Zm2.542-2.02a7.585,7.585,0,0,0,4.354-3.725c.136-.25.274-.575,0-.819-.245-.219-.532-.047-.754.083A8.959,8.959,0,0,0,8087.667,3213.061Z" transform="translate(53.389 18.395)" fill="#fff"/>
    <path id="Path_1111" data-name="Path 1111" d="M8114.963,3215.327a16.637,16.637,0,0,1-1.687,2.012,3.788,3.788,0,0,1-.942.7,1.855,1.855,0,0,1-2.777-1.326,5.038,5.038,0,0,1,.212-2.755,14.238,14.238,0,0,1,3.522-5.877,3.318,3.318,0,0,1,1.2-.837.7.7,0,0,1,.866.2.688.688,0,0,1,.04.883c-.364.494-.742.977-1.115,1.463a15.235,15.235,0,0,0-2.861,4.835c-.142.494-.288,1.115.269,1.438.58.338,1.041-.251,1.4-.658a16.474,16.474,0,0,0,3.115-5.382,5.825,5.825,0,0,1,1.078-1.91c.344-.385.776-.679,1.294-.367.5.3.493.777.323,1.3a23.265,23.265,0,0,1-1.434,3.058,5.518,5.518,0,0,0-.7,2.3,2.708,2.708,0,0,0,1.478,2.809.92.92,0,0,1,.6,1.124c-.146.537-.593.66-1.1.653a2.724,2.724,0,0,1-2.406-1.969C8115.176,3216.52,8115.105,3215.98,8114.963,3215.327Z" transform="translate(58.495 18.573)" fill="#fff"/>
    <g id="Group_562" data-name="Group 562" transform="translate(7830.775 3118.696)">
      <path id="Path_1112" data-name="Path 1112" d="M7941.533,3203.012l0-35.227a.753.753,0,0,1,.75-.753h10.962a.649.649,0,0,0,.646-.646v-11.519a.649.649,0,0,0-.646-.647h-10.962a.752.752,0,0,1-.75-.752v-16.2a.649.649,0,0,0-.646-.646h-11.449a.649.649,0,0,0-.646.646V3206.5a10.045,10.045,0,0,0,10.014,10.029h14.44a.649.649,0,0,0,.646-.647v-11.467a.649.649,0,0,0-.646-.647h-10.964a.754.754,0,0,1-.752-.752" transform="translate(-7810.199 -3114.932)" fill="#fff" fill-rule="evenodd"/>
      <path id="Path_1113" data-name="Path 1113" d="M8049.111,3150.58a32.148,32.148,0,0,0-28.133,31.916v48.5a.65.65,0,0,0,.646.647h11.449a.648.648,0,0,0,.645-.647v-48.5a19.38,19.38,0,0,1,22.566-19.137l.25.043a19.409,19.409,0,0,1-.25,38.23,19.5,19.5,0,0,1-6.393,0l-.269-.045a19.212,19.212,0,0,1-8.234-3.625.645.645,0,0,0-1.037.514V3211.6a.628.628,0,0,0,.4.6,32.011,32.011,0,0,0,8.361,2.209,32.162,32.162,0,1,0,0-63.832" transform="translate(-7790.85 -3112.054)" fill="#fff" fill-rule="evenodd"/>
      <path id="Path_1114" data-name="Path 1114" d="M7985.33,3150.58a32.163,32.163,0,1,0,16.313,61.623.626.626,0,0,0,.4-.6v-13.126a.645.645,0,0,0-1.037-.514,19.226,19.226,0,0,1-8.5,3.67,19.511,19.511,0,0,1-6.394,0l-.267-.045a19.4,19.4,0,0,1,6.659-38.229l.253.043a19.393,19.393,0,0,1,15.921,19.094V3213a.648.648,0,0,0,.646.647h11.448a.648.648,0,0,0,.645-.647V3182.5a32.12,32.12,0,0,0-36.085-31.916" transform="translate(-7804.237 -3112.054)" fill="#fff" fill-rule="evenodd"/>
      <path id="Path_1115" data-name="Path 1115" d="M8070.562,3146.8l-1.824,2.969a38.382,38.382,0,0,1,16.363,30.285l3.463.093a41.853,41.853,0,0,0-18-33.347" transform="translate(-7780.824 -3112.795)" fill="#fff"/>
      <path id="Path_1116" data-name="Path 1116" d="M8067.548,3151.713l-1.823,2.968a31.357,31.357,0,0,1,13.036,24.15l3.479.1a34.873,34.873,0,0,0-14.691-27.216" transform="translate(-7781.458 -3111.765)" fill="#fff"/>
      <path id="Path_1117" data-name="Path 1117" d="M7833.192,3152.389l55.852,58.888a.88.88,0,0,1-.5,1.474,50.806,50.806,0,0,1-56.852-59.941.88.88,0,0,1,1.5-.421" transform="translate(-7830.774 -3111.68)" fill="#fff"/>
      <path id="Path_1118" data-name="Path 1118" d="M7923.488,3194.137l-15.807-16.669a.859.859,0,0,1-.205-.817,28.822,28.822,0,0,0-1.243-18.252,26.888,26.888,0,0,0-17.574-15.755,28.029,28.029,0,0,0-35.385,20.427.876.876,0,0,1-1.488.43l-15.957-16.817a.889.889,0,0,1-.142-1.024,50.785,50.785,0,0,1,56.754-25.591,49.841,49.841,0,0,1,37.34,37.321,51.21,51.21,0,0,1-4.887,36.577.881.881,0,0,1-1.406.172" transform="translate(-7829.765 -3118.695)" fill="#fff"/>
      <path id="Path_1119" data-name="Path 1119" d="M7898.524,3179.9h-24.849a.874.874,0,0,0-.635,1.475l24.446,25.726a.874.874,0,0,0,.633.273h24.84a.875.875,0,0,0,.632-1.477l-24.434-25.726a.878.878,0,0,0-.634-.271" transform="translate(-7821.953 -3105.849)" fill="#fff"/>
    </g>
  </g>
</svg>
